<?xml version="1.0" encoding="UTF-8" standalone="no"?>
<svg
   xmlns:dc="http://purl.org/dc/elements/1.1/"
   xmlns:cc="http://creativecommons.org/ns#"
   xmlns:rdf="http://www.w3.org/1999/02/22-rdf-syntax-ns#"
   xmlns:svg="http://www.w3.org/2000/svg"
   xmlns="http://www.w3.org/2000/svg"
   version="1.1"
   id="svg2"
   xml:space="preserve"
   width="466.66666"
   height="800"
   viewBox="0 0 466.66666 800.00004"><metadata
     id="metadata8"><rdf:RDF><cc:Work
         rdf:about=""><dc:format>image/svg+xml</dc:format><dc:type
           rdf:resource="http://purl.org/dc/dcmitype/StillImage" /><dc:title></dc:title></cc:Work></rdf:RDF></metadata><defs
     id="defs6" /><g
     id="g10"
     transform="matrix(1.3333333,0,0,-1.3333333,0,1057.3333)"><g
       id="g12"
       transform="scale(0.1)"><path
         d="M 500,2430 H 0 v 5000 h 500 v -500 h 500 V 2930 H 500 v -500"
         style="fill:#88b3c8;fill-opacity:1;fill-rule:nonzero;stroke:none"
         id="path14" /><path
         d="M 2500,6930 H 1000 v 500 H 500 v 500 h 2500 v -500 h -500 v -500"
         style="fill:#88b3c8;fill-opacity:1;fill-rule:nonzero;stroke:none"
         id="path16" /><path
         d="m 500,6930 h 500 v 500 H 500 Z"
         style="fill:#5b8eb1;fill-opacity:1;fill-rule:nonzero;stroke:none"
         id="path18" /><path
         d="M 3500,5930 H 2975.31 L 2635.3,6270 2500,6134.7 V 6930 h 500 v 500 h 500 V 5930"
         style="fill:#88b3c8;fill-opacity:1;fill-rule:nonzero;stroke:none"
         id="path20" /><path
         d="m 2500,6930 h 500 v 500 h -500 z"
         style="fill:#5b8eb1;fill-opacity:1;fill-rule:nonzero;stroke:none"
         id="path22" /><path
         d="m 3500,2430 h -500 v 500 h -500 v 792.89 l 145.3,-145.3 352.41,352.41 H 3500 V 2430"
         style="fill:#88b3c8;fill-opacity:1;fill-rule:nonzero;stroke:none"
         id="path24" /><path
         d="m 1935.9,4918.79 -325.9,325.91 890,890 V 5930 h 475.31 l 367.1,-367.1 -634.1,-634.1 -381.2,381.2 -391.21,-391.21"
         style="fill:#88b3c8;fill-opacity:1;fill-rule:nonzero;stroke:none"
         id="path26" /><path
         d="M 2975.31,5930 H 2500 v 204.7 l 135.3,135.3 340.01,-340"
         style="fill:#5b8eb1;fill-opacity:1;fill-rule:nonzero;stroke:none"
         id="path28" /><path
         d="m 2500,3722.89 -880,880 315.9,315.9 381.21,-381.2 391.2,391.21 644.1,-644.1 -354.7,-354.7 H 2500 v -207.11"
         style="fill:#88b3c8;fill-opacity:1;fill-rule:nonzero;stroke:none"
         id="path30" /><path
         d="M 2645.3,3577.59 2500,3722.89 V 3930 h 497.71 L 2645.3,3577.59"
         style="fill:#5b8eb1;fill-opacity:1;fill-rule:nonzero;stroke:none"
         id="path32" /><path
         d="m 2317.11,4537.59 -381.21,381.2 391.21,391.21 381.2,-381.2 -391.2,-391.21"
         style="fill:#5b8eb1;fill-opacity:1;fill-rule:nonzero;stroke:none"
         id="path34" /><path
         d="M 3000,1930 H 500 v 500 h 500 v 500 h 1500 v -500 h 500 v -500"
         style="fill:#88b3c8;fill-opacity:1;fill-rule:nonzero;stroke:none"
         id="path36" /><path
         d="m 500,2430 h 500 v 500 H 500 Z"
         style="fill:#5b8eb1;fill-opacity:1;fill-rule:nonzero;stroke:none"
         id="path38" /><path
         d="m 2500,2430 h 500 v 500 h -500 z"
         style="fill:#5b8eb1;fill-opacity:1;fill-rule:nonzero;stroke:none"
         id="path40" /><path
         d="m 500,7930 c 276.145,0 500,-223.86 500,-500 0,-276.14 -223.855,-500 -500,-500 -276.145,0 -500,223.86 -500,500 0,276.14 223.855,500 500,500"
         style="fill:#297a6c;fill-opacity:1;fill-rule:evenodd;stroke:none"
         id="path42" /><path
         d="m 3000,4430 c 276.14,0 500,-223.86 500,-500 0,-276.14 -223.86,-500 -500,-500 -276.14,0 -500,223.86 -500,500 0,276.14 223.86,500 500,500"
         style="fill:#559f35;fill-opacity:1;fill-rule:evenodd;stroke:none"
         id="path44" /><path
         d="m 2000,5430 c 276.14,0 500,-223.86 500,-500 0,-276.14 -223.86,-500 -500,-500 -276.14,0 -500,223.86 -500,500 0,276.14 223.86,500 500,500"
         style="fill:#203965;fill-opacity:1;fill-rule:evenodd;stroke:none"
         id="path46" /><path
         d="m 3000,6430 c 276.14,0 500,-223.86 500,-500 0,-276.14 -223.86,-500 -500,-500 -276.14,0 -500,223.86 -500,500 0,276.14 223.86,500 500,500"
         style="fill:#83cd27;fill-opacity:1;fill-rule:evenodd;stroke:none"
         id="path48" /><path
         d="m 3000,2930 c 276.14,0 500,-223.86 500,-500 0,-276.14 -223.86,-500 -500,-500 -276.14,0 -500,223.86 -500,500 0,276.14 223.86,500 500,500"
         style="fill:#223263;fill-opacity:1;fill-rule:evenodd;stroke:none"
         id="path50" /><path
         d="m 3000,7930 c 276.14,0 500,-223.86 500,-500 0,-276.14 -223.86,-500 -500,-500 -276.14,0 -500,223.86 -500,500 0,276.14 223.86,500 500,500"
         style="fill:#c81d2c;fill-opacity:1;fill-rule:evenodd;stroke:none"
         id="path52" /><path
         d="m 500,2930 c 276.145,0 500,-223.86 500,-500 0,-276.14 -223.855,-500 -500,-500 -276.145,0 -500,223.86 -500,500 0,276.14 223.855,500 500,500"
         style="fill:#8f1d26;fill-opacity:1;fill-rule:evenodd;stroke:none"
         id="path54" /><g
         id="g56"
         transform="scale(10)">
</g></g></g></svg>