<?xml version="1.0" encoding="utf-8"?>
<!-- Generator: Adobe Illustrator 16.0.0, SVG Export Plug-In . SVG Version: 6.00 Build 0)  -->
<!DOCTYPE svg PUBLIC "-//W3C//DTD SVG 1.1//EN" "http://www.w3.org/Graphics/SVG/1.1/DTD/svg11.dtd">
<svg version="1.1" id="Ebene_1" xmlns="http://www.w3.org/2000/svg" xmlns:xlink="http://www.w3.org/1999/xlink" x="0px" y="0px"
	 width="130.393px" height="130.393px" viewBox="0 0 130.393 130.393" enable-background="new 0 0 130.393 130.393"
	 xml:space="preserve">
<g>
	<path fill="#FFFFFF" d="M0.001,65.197c0-36.01,29.188-65.196,65.194-65.196s65.196,29.188,65.196,65.196
		c0,36.008-29.188,65.194-65.196,65.194S0.001,101.205,0.001,65.197L0.001,65.197z"/>
	<path fill="#004F91" d="M55.89,49.724l-0.105,0.104l0.189,0.063l1.004,0.254L58,50.89l0.523,0.63l0.527,0.361
		c0,0,0.329-0.239,0.075-0.524l-0.315-0.374l-0.613-0.733l-0.39-0.226l-0.479-0.18l-0.54-0.104l-0.537-0.046L55.89,49.724
		L55.89,49.724z M56.359,53.796c0,0-0.059,0.031-0.121,0.02c0,0-0.094-0.043-0.063-0.107l0.078-0.143l0.172-0.107l0.188-0.095
		l0.203-0.063l0.188-0.094l0.357-0.143l0.313-0.107l0.203-0.096l0.232-0.063l0.25-0.063l0.078-0.078l0.018-0.125l-0.018-0.078
		l-0.094-0.078l-0.125-0.031c0,0-0.125-0.016-0.203,0s-0.172,0.078-0.219,0.078s-0.297,0.156-0.297,0.156l-0.346,0.172l-0.266,0.109
		l-0.25,0.094l-0.297,0.047c0,0-0.203,0-0.25,0.016c-0.047,0.018-0.31-0.031-0.297-0.031c0,0-0.164,0.006-0.25-0.063
		c-0.027-0.021,0.026-0.168,0.022-0.141c0,0,0.117-0.057,0.172-0.047c0,0,0.131-0.014,0.156,0l0.125-0.018h0.219h0.234l0.281-0.063
		c0,0,0.062-0.043,0.089-0.146l0.043-0.215l-0.047-0.266l-0.094-0.125l-0.156-0.109l-0.25-0.156c0,0-0.142-0.078-0.172-0.078
		c-0.031,0-0.234-0.078-0.234-0.078L55.732,51.5c0,0-0.549,0.019-0.669,0.208l-0.135,0.022l0.044-0.485l0.104-0.343l0.288-0.021
		l0.432,0.086l0.219,0.078l0.203,0.109l0.297,0.107l0.203,0.109l0.203,0.078l0.313-0.018l0.143-0.047l0.029-0.125l-0.063-0.172
		L57.186,50.9l-0.313-0.233l-0.328-0.188l-0.143-0.107l-0.154-0.094l-0.188-0.049l-0.25-0.047h-0.281c0,0-0.258,0.018-0.271,0
		c0,0-0.129-0.082-0.117-0.125l-0.031-0.25l-0.008-0.163l0.188-0.141l0.201-0.094l0.375-0.047h0.438h0.578l0.266,0.016l0.375,0.063
		l0.268,0.108l0.438,0.203l0.219,0.172l0.406,0.469l0.344,0.393l0.313,0.438l0.391,0.453l0.375,0.5c0,0,0.094,0.099,0.156,0.188
		c0.027,0.039,0.059,0.211,0.047,0.25l-0.031,0.266c0,0-0.107,0.146-0.305,0.175L59.8,53.059h-0.518h-0.469
		c-0.047,0-0.344,0.031-0.422,0.047L58.11,53.17l-0.28,0.125l-0.233,0.094l-0.392,0.143l-0.423,0.141L56.359,53.796L56.359,53.796z"
		/>
	<path fill="#004F91" d="M87.213,90.055c0.226-0.29,0.264-1.075,2.969-1.277c0.617,0,0.925,0.796,0.479,0.808
		c-0.195,0.006-0.372-0.018-0.372-0.018c-0.571,0.018-0.432,0.339-0.432,0.339s0.199,0.49,1.08,0.425
		c0.077-0.007,0.418-0.019,0.502-0.039c1.235-0.327,0.306-1.233,0.306-1.233c-0.271-0.31-1-0.502-1-0.502l-0.305-0.065l-0.506-0.051
		l-0.926,0.116c-1.479,0.311-2.073,0.2-2.073,0.2L87.213,90.055L87.213,90.055z"/>
	<path fill="#004F91" d="M85.41,86.135l0.648,0.298c0,0,1.285,0.969,2.746,0.738c0.076-0.013,2.667-0.25,3.729,0.891
		c0-0.242,0.021-0.709-0.026-0.813c-0.376-0.792-2.088-0.784-2.088-0.784c-1.913,0.473-3.289-0.181-3.289-0.181
		s-1.08-0.812-1.157-0.851c-0.077-0.038-0.835-0.284-0.835-0.284L85.41,86.135L85.41,86.135z"/>
	<path fill="#004F91" d="M93.594,87.344l-0.936-1.479c-0.471-0.54-1.733-0.578-1.733-0.578l-0.771-0.039
		c0,0-1.193,0.105-1.312,0.114c-1.262,0.09-2.677-0.463-2.677-0.463l-0.465-0.152c0,0-0.152-0.597-0.152-0.673
		s0.038-0.616,0.038-0.616c0.239,0.854,1.08,0.81,1.08,0.81c0.266,0.073,0.386-0.038,0.386-0.038l1.366,0.077l1.967-0.077
		c0,0,0.821,0.074,0.896,0.077c1.552,0.063,2.033,1.713,2.033,1.713L93.594,87.344L93.594,87.344z"/>
	<polygon fill="#004F91" points="93.627,82.448 93.048,81.677 92.547,81.253 92.007,80.867 91.467,80.557 90.966,80.25 
		90.308,79.901 89.384,79.399 88.573,78.936 87.88,78.396 87.322,78.051 87.014,77.705 86.975,77.01 87.052,76.144 87.284,75.49 
		87.438,74.911 87.554,74.294 87.647,73.716 87.609,73.291 87.554,72.752 87.438,72.173 87.887,71.858 88.187,72.366 88.303,72.79 
		88.343,73.291 88.303,73.793 88.264,74.448 88.148,74.986 87.957,75.603 87.763,76.066 87.609,76.586 87.515,77.165 87.609,77.666 
		88.11,78.051 88.766,78.244 89.73,78.669 90.579,78.936 91.272,79.209 91.89,79.594 92.429,79.978 92.969,80.366 93.588,80.906 
		94.167,81.56 94.051,81.909 	"/>
	<path fill="#004F91" stroke="#004F91" stroke-width="0.1417" stroke-miterlimit="3.8637" d="M94.608,80.146
		c-0.446-0.847-1.852-0.926-1.852-0.926c-0.139-0.037-0.231-0.191-0.231-0.191s0.033-0.101,0.154-0.115
		c0.603-0.083,1.851,0.477,1.851,0.477l0.116,0.295L94.608,80.146L94.608,80.146z"/>
	<path fill="#004F91" d="M88.496,72.752c0,0,0.802,0.729,0.928,1.271c-0.054,0.15-0.851,2.16-0.851,2.16
		c-0.301,1.187-0.044,1.727,0.797,1.554l4.604,0.274l-0.424-1.271c-0.045,0.031-0.271,0.269-0.609,0.234
		c-4.609,0.91-3.479-0.984-3.479-0.984c0.032,0.314,0.654-1.734,0.654-1.734c0.195-0.527-0.386-1.234-0.386-1.234
		c-0.038-0.16-1.223-1.479-1.223-1.479l-0.552,0.323C87.957,71.862,88.39,72.546,88.496,72.752L88.496,72.752z"/>
	<path fill="#004F91" d="M90.673,76.322c0.441-0.596,0.736-1.021,0.887-1.272c0.588-1.296-0.964-1.929-0.964-1.929
		c-0.208-0.138-0.926-0.115-0.926-0.115l-0.813-0.463c0.093,0.116-0.385-0.386-0.385-0.386s1.987,0.156,2.508,0.355
		c1.549,1.077,1.805,2.07,0.693,3.152l-0.387,0.749l-0.309,0.957l-0.67-0.025L90.673,76.322L90.673,76.322z"/>
	<path fill="#004F91" d="M91.234,84.183c0-0.077,0-0.309,0-0.309l0.193-0.965l0.115-0.693l0.039-0.271v-0.19l0.19,0.154l0.116,0.309
		l0.076,0.308v0.231l-0.038,0.229l-0.154,0.427c0,0-0.204,0.22-0.077,0.849c0.016,0.065,0.116,0.286,0.116,0.286l-0.271,0.038
		c0,0-0.154-0.077-0.192-0.154S91.234,84.26,91.234,84.183L91.234,84.183z"/>
	<path fill="#004F91" d="M90.308,84.625l-0.192-0.154l-0.191-0.286l-0.077-0.191v-0.192l0.077-0.23l0.077-0.387l0.114-0.463
		l0.038-0.54l-0.077-0.386l-0.27-0.463l-0.309-0.271l-0.388-0.348l-0.578-0.309l-0.654-0.311l-0.363-0.191l-0.578-0.31l-0.731-0.54
		l-0.388-0.386l-0.27-0.425l-0.154-0.539l-0.039-0.579l0.116-0.463l0.192-0.479l0.191-0.425l0.154-0.347l0.038-0.771l0.039-0.271
		l-0.116-0.54l-0.077-0.349l-0.077-0.229c0,0-0.188-0.638-0.074-0.753c0.116-0.116,0.703-0.229,0.639-0.229
		c-0.42-0.056,0.792,0.114,0.557,0.286c0.072,0.117,0.038,0.501,0.038,0.501v0.463l-0.116,0.502l-0.115,0.426l-0.113,0.502
		l-0.116,0.386l-0.154,0.424l-0.113,0.386l-0.077,0.325l-0.154,0.578l-0.039,0.54l0.154,0.579l0.271,0.462l0.349,0.348l0.424,0.192
		l0.634,0.348l0.655,0.271c0,0,0.348,0.153,0.463,0.229c0.116,0.077,0.771,0.35,0.771,0.35l0.311,0.27l0.348,0.425l0.271,0.349
		l0.075,0.463l-0.037,0.81l-0.153,0.733v0.309v0.349l0.077,0.4l-0.077,0.231L90.308,84.625L90.308,84.625z"/>
	<path fill="#004F91" d="M82.771,73.482v0.388l-0.077,0.964l-0.73,2.254c-0.15,0.808-0.073,1.438,0.229,1.89l0.655,1.157l0.23,0.424
		c0,0,0.546,1.703-0.191,2.121c-1.118,1.26-1.466-0.19-1.466-0.19l-0.54-1.041l-0.349-1.157c-0.066-0.292-0.693-1.119-0.693-1.119
		l-0.324-0.386l-0.309-0.271l-0.426-0.502l-0.348-0.27l-0.23-0.154c0,0-0.23-0.115-0.31-0.115s-0.309,0.077-0.309,0.077
		s-0.192,0.192-0.154,0.271c0.039,0.075,0.154,0.348,0.154,0.348l0.271,0.153l0.54,0.271l0.424,0.347l0.501,0.617l0.364,0.54
		l0.424,1.08l0.231,0.813l0.347,0.73l0.518,0.839c0.534,0.663,1.601,0.252,1.678,0.252s0.43-0.279,0.43-0.279
		s0.35,0.103,0.426-0.054c0.078-0.152,0.152-1.026,0.152-1.026l0.039-0.655l-0.039-0.463c0.021-0.271-0.27-1.041-0.27-1.041
		l-0.889-1.505c-0.438-0.996,0-2.082,0-2.082l0.578-1.482l0.193-0.578l0.229-1.003v-0.271c-0.207-0.534-0.771-0.271-0.849-0.231
		C82.81,73.176,82.771,73.482,82.771,73.482L82.771,73.482z"/>
	<path fill="#004F91" d="M83.774,83.318l-0.116,0.388l-0.151,0.309l-0.193,0.231l-0.229,0.247l-0.426,0.348
		c-1.116,0.578-1.891,0.154-1.891,0.154c0.05,0.049-0.617-0.464-0.617-0.464l-1.479-2.178l-0.578-0.887l-0.926-1.041
		c-1.32-1.003-1.969,0.231-1.969,0.231l-0.191,0.309l0.731-1.697c0.993,0.127,2.159,0.926,2.159,0.926l2.331,3.55l0.616,0.749
		c0.906,0.271,1.312-0.21,1.312-0.21s0.161-0.146,0.311-0.31c0.141-0.153,0.54-0.229,0.54-0.229s0.229-0.192,0.309-0.231
		C83.388,83.473,83.774,83.318,83.774,83.318L83.774,83.318z"/>
	<path fill="#004F91" d="M80.698,72.682l0.014,0.561c0.243,0.277,0.172,0.474,0.172,0.474c0.037,0.003-0.231,0.27-0.231,0.27
		l-0.386,0.427l-0.347,0.615l-0.231,0.578l-0.077,0.54c-0.035,0.837,0.496,1.938,0.496,1.938l0.696,1.068
		c0.497,0.955,0.307,1.835,0.307,1.835l-0.147,0.691l0.386,0.771l0.139,0.25c0,0,0.095-0.404,0.132-0.48
		c0.038-0.078,0.106-1.593,0.106-1.593c0.055-0.546-0.185-1.301-0.185-1.301c-1.043-1.53-1.234-2.236-1.234-2.236
		c-0.233-0.837-0.149-1.285,0.116-1.598l0.54-0.733l0.309-0.386l0.347-0.311c0,0,0.116-0.113,0.231-0.27
		c0.116-0.154,0.231-0.311,0.231-0.311l0.075-0.229c0,0-0.038-0.311-0.229-0.386c-0.192-0.077-0.386-0.231-0.386-0.231l-0.443-0.208
		L80.698,72.682L80.698,72.682z"/>
	<path fill="#004F91" d="M80.31,86.545c0.031,0-0.253-0.055-0.253-0.055l-0.476,0.018c-0.533-0.215-0.938-0.031-0.938-0.031
		l-0.969,0.75l-0.563,0.469l-0.375,0.406c-0.302,0.332-0.548,0.162-0.548,0.162l-0.671-0.475l0.219-0.096l0.439-0.023l1.009-0.684
		l0.958-0.918l0.219-0.188c0.019-1.057-0.75-0.781-0.75-0.781l-0.188,0.156l-0.188,0.313c0,0-0.188,0.125-0.313,0.031
		c-0.126-0.094-0.156-0.281-0.156-0.281s0.146-0.419,0.526-0.649c0.437-0.163,0.786-0.161,0.786-0.161l-0.031-0.25
		c-0.251-0.614-1.187-0.688-1.187-0.688c-1.42,0.061-1.347,0.905-1.347,0.905l-0.12,0.393l-0.497-1.476l0.648,0.021
		c0,0,0.773-0.272,0.838-0.272c0.063,0,0.223-0.052,0.757-0.041c0.552,0.048,1.342,1.032,1.342,1.032l0.626,1.406
		c0.054,0.174,0.22,0.279,0.22,0.279l0.626,0.375C79.958,86.193,80.279,86.545,80.31,86.545L80.31,86.545z"/>
	<path fill="#004F91" d="M83.948,85.447c0.974-2.314,1.412-2.258,1.04-5.098c0.041-0.106-1.53-2.094-1.53-2.094
		c-0.14-0.197-0.124-0.875-0.124-0.875c0.118-0.828,0.687-1.625,0.687-1.625c0.188-0.166,0.375-0.813,0.375-0.813l0.157-1.154v-0.25
		l0.701-0.268c0,0-0.164,2.662-0.451,2.893c-0.618,1.121-0.681,1.983-0.188,2.594l0.656,0.875c0.104,0.092,0.375,0.094,0.375,0.094
		l1.063,0.844l1.249,1.125L88.77,82.6c0.551,0.938,0.354,1.807,0.354,1.807c-0.142,0.029-0.396-0.052-0.396-0.052l-0.02-0.786
		c-0.027-0.496-0.53-1-0.53-1l-1.011-1.029l-1.208-0.938l-0.188-0.063l-0.031,0.279l0.125,0.221l0.313,0.375l1.624,2.26l0.406,0.708
		l-1.093-0.05l-0.063-0.418c-0.084-0.916-1.219-2-1.219-2l-0.096,0.529l-0.126,1.406l0.157,0.719c0,0,0.044,1.039,0.013,0.979
		C85.752,85.482,83.948,85.447,83.948,85.447L83.948,85.447z"/>
	<path fill="#004F91" d="M80.769,73.258l0.377,0.322c5.273,0.347,6.513-1.065,6.513-1.065c0.446-0.271,0.999-1.117,0.999-1.117
		l0.58-0.231l-0.063-0.75l-0.619,0.246l-0.567,0.097l-0.375-0.063l-0.126,0.657c-0.198,0.841-4.624,1.625-4.624,1.625l-0.688-0.03
		h-0.595l-0.438,0.125L80.769,73.258L80.769,73.258z"/>
	<path fill="#004F91" d="M81.333,72.789c0,0,0.029-0.375,0.062-0.438c0.032-0.062,0.188-0.249,0.188-0.249
		c2.416,0.018,5.876-1.22,5.876-1.22c0.5-0.054,0.499-0.188,0.499-0.188c0.441-0.674,0.103-0.782,0.103-0.782l-0.759,0.254
		c-2.561,1.384-6.354,1.507-6.354,1.507l-0.146,0.336l0.03,0.438L81.333,72.789L81.333,72.789z"/>
	<path fill="#004F91" d="M80.926,71.479C80.85,71.2,81.207,71.2,81.207,71.2c1.773-0.024,4.875-1.125,4.938-1.156
		c0.063-0.031,1.063-0.438,1.063-0.438c0.382-0.311,0.791-0.174,0.791-0.174l-0.041-0.701l-0.188-0.5c0,0-0.159-0.26-0.159-0.195
		c0,0.063-0.685,0.916-0.685,0.916c-0.845,0.909-4.031,1.5-4.031,1.5l-0.624,0.094h-0.938c-0.493-0.002-0.513-0.726-0.513-0.726
		l-0.459,0.476l0.188,0.781L80.926,71.479L80.926,71.479z"/>
	<path fill="#004F91" d="M87.808,68.257c-0.053-0.527-0.992-0.223-0.992-0.223c-1.654,1.188-4.43,1.701-4.43,1.701
		c-1.438-0.115-1.649,0.396-1.649,0.396c-0.549-0.059-0.687-0.375-0.687-0.375s-0.157-1.188-0.157-1.25
		c0-0.063-0.155-0.281-0.155-0.281l0.381,0.117l0.683,0.732c2.293,0.111,3.219-1.162,3.219-1.162
		c1.242-0.464,1.652-0.608,2.001-1.031c0.16-0.194,0.313-0.156,0.375-0.188c0.063-0.029,1.215-0.049,1.215-0.049L87.808,68.257
		L87.808,68.257z"/>
	<path fill="#004F91" d="M70.707,65.258c0,0,0.721-0.548,0.78-0.625c0.055-0.067,0.249-0.281,0.313-0.344
		c0.063-0.063,0.375-0.281,0.375-0.281c0.178,0.03,0.844,0,0.844,0c0.009,0.015,0.11,0.194,0.271,0.313
		c0.152,0.111,0.387,0.375,0.387,0.375l0.405,0.281c0,0,0.405,0.281,0.469,0.281c0.063,0,0.532,0.156,0.532,0.156l0.403,0.155
		l0.407,0.25l0.563,0.188l0.437,0.219l0.251,0.188l0.25,0.188l0.665,0.522l0.391,0.258l0.359,0.238
		c0.239,0.499,1.304,0.729,1.304,0.729l-0.279-0.469l-0.156-0.438l-0.031-0.529c0,0-0.063-0.346-0.063-0.406
		c0-0.063-0.096-0.28-0.096-0.28l-0.469-0.313l-0.396-0.248l-0.791-0.158l-0.345-0.188l-0.587-0.315c0,0-0.507-0.186-0.568-0.186
		c-0.063,0-0.438,0-0.438,0l-0.438-0.155c-1.077-0.541-1.781-1.345-1.781-1.345l-0.375-0.375l-0.313-0.095l-0.375-0.03l-0.529,0.03
		c0,0-0.218,0.006-1.313,0.75c-0.345,0.313-0.813,0.095-0.813,0.095c0.01-0.07,0.155,0.625,0.155,0.625l0.346,0.625L70.707,65.258
		L70.707,65.258z"/>
	<path fill="#004F91" d="M84.084,67.967c-0.021-0.198-0.501-0.359-0.501-0.359l-1.075,0.052l-0.875-0.096l-0.471-0.154l-0.344-0.156
		l-0.281-0.188l-0.279-0.188l-0.625-0.531l-0.375-0.094l-0.406-0.219l-0.321-0.386l0.54,0.04c0,0,0.625,0.031,0.688,0.031
		c0.063,0,0.594,0.031,0.594,0.031s0.469,0.125,0.531,0.125c0.062,0,0.438,0.125,0.438,0.125l0.531,0.281l0.75,0.344
		c0.797,0.47,1.375-0.094,1.375-0.094l0.375,0.063c0.268,0.965,1.406,0.719,1.406,0.719C85.648,67.464,84.084,67.967,84.084,67.967
		L84.084,67.967z"/>
	<path fill="#004F91" stroke="#004F91" stroke-width="0.1417" stroke-miterlimit="3.8637" d="M76.176,47.817l-0.313-0.125
		l-0.375-0.219l-0.249-0.188l-0.344-0.063L74.55,47.16l-0.375-0.221l-0.53-0.344l-0.279-0.404l-0.281-0.471l-0.438-0.719
		l-0.251-0.656l-0.094-0.344v-0.219l0.126-0.063c0.188,0.013,0.437,0.156,0.437,0.156c0.336,0.134,0.75,0.531,0.75,0.531
		l0.375,0.313l0.313,0.156l0.688,0.25l0.405,0.125l1.031,0.25c0.609,0.163,1.125,0.438,1.125,0.438c1.022,0.71,1.157,1.5,1.157,1.5
		l0.153,0.721l0.063,0.688l-0.031,0.531l-0.063,0.75l0.063,0.406l0.155,0.469l0.094,0.313c0.021,0.226,0.021,0.359,0,0.406
		c-0.126,0.015-0.343-0.125-0.343-0.125c-0.13-0.098-0.281-0.375-0.281-0.375l-0.188-0.313l-0.096-0.471l-0.03-0.719l-0.063-0.594
		v-0.844c0.097-0.817-0.531-1.688-0.531-1.688l-0.404-0.344L76.675,46l-0.406-0.156l-0.844-0.188l-0.782-0.125l-0.75-0.346
		l-0.343-0.25c-0.422-0.051-0.25,0.346-0.25,0.346l0.156,0.375L73.705,46c0.601,0.396,0.876,0.406,0.876,0.406
		s0.999,0.029,1.093,0.063s0.345,0.125,0.345,0.125l0.313,0.156l0.279,0.219l0.251,0.344l0.03,0.281
		C76.704,47.997,76.176,47.817,76.176,47.817L76.176,47.817z"/>
	<path fill="#004F91" stroke="#004F91" stroke-width="0.1417" stroke-miterlimit="3.8637" d="M80.57,62.113
		c-0.153,0.23,0.059,0.398,0.375,0.469c-0.005,0.04,0.593,0.156,0.593,0.156c0.158,0.007,0.313-0.188,0.282-0.281
		c-0.032-0.094-0.188-0.188-0.188-0.188C81.167,61.863,80.57,62.113,80.57,62.113L80.57,62.113z"/>
	<path fill="#004F91" stroke="#004F91" stroke-width="0.1417" stroke-miterlimit="3.8637" d="M66.363,54.663
		c-0.108,0.025-0.279-0.125-0.279-0.125c-0.188-0.277-0.063-0.596-0.063-0.596c0.021-0.043,0.131-0.161,0.188-0.188
		c0.063-0.027,0.22-0.094,0.279-0.094c0.347-0.063,0.511-0.021,0.782,0.094c0.058,0.014,0.313,0.156,0.313,0.156l0.312,0.25
		c0.169,0.17,0.252,0.295,0.251,0.375c0,0,0.042,0.877-0.063,0.969c-0.334,0.442-0.698,0.715-1.095,0.813l-1.438,0.346l-0.406,0.154
		l-0.219,0.281l-0.271,0.642c0,0-0.241-1.448-0.306-1.479c-0.063-0.031-0.176-0.879-0.176-0.879l0.969,0.781
		c1.485,0.007,2.25-0.75,2.25-0.75l0.094-0.406c-0.009-0.226-0.019-0.351-0.029-0.375c0,0-0.194-0.325-0.721-0.156
		C66.597,54.584,66.363,54.663,66.363,54.663L66.363,54.663z"/>
	<path fill="#004F91" d="M59.531,37.758c0.234-0.2,1.366-0.709,1.366-0.709c-0.003-0.03,1.417-0.455,1.417-0.455
		s0.763-0.22,0.962-0.253c2.815-0.437,4.979-0.614,6.489-0.533c2.931-0.014,5.411,0.687,5.411,0.687
		c1.447,0.311,4.457,1.468,4.457,1.468c0.585,0.224,2.557,1.266,3.594,2.885c0.077,0.121,2.176,3.496,2.176,3.496
		c0.631,1.316,1.43,4.244,1.43,4.244l0.395,1.678l0.51,1.872c0.758,2.862,0.911,4.457,0.911,4.457l0.154,1.315l0.259,2.361
		l0.093,1.234l0.253,1.974c0.053,0.227-0.605,2.328-0.605,2.328l-0.759,1.015l-0.715,0.2v-0.403l0.814-1.063
		c0.085-0.014,0.557-1.012,0.557-1.113c0-0.101-0.15-4.1-0.15-4.1l-0.104-2.18l-0.139-1.366c0.04-0.159-0.215-1.771-0.215-1.771
		c0.006-0.096-0.354-1.063-0.354-1.063l-0.356-1.266l-0.354-1.22l-0.374-1.489l-0.228-1.359c-0.03-0.486-0.816-2.769-0.816-2.769
		c-1.022-2.353-3.036-4.86-3.036-4.86l-1.266-1.164c-6.94-4.229-14.967-3.341-15.24-3.341c0,0-1.588,0.188-3.142,0.456
		c-1.447,0.345-2.282,0.757-2.282,0.757c-0.374,0.228-0.957,0.306-0.957,0.306C59.4,37.994,59.531,37.758,59.531,37.758
		L59.531,37.758z"/>
	<path fill="#004F91" stroke="#004F91" stroke-width="0.1417" stroke-miterlimit="3.8637" d="M71.801,38.871
		c0.144,0.063,0.413,0.216,0.81,0.455c1.643,1.043,2.959,1.688,4.254,2.096c0.104,0.051,2.536,1.074,3.141,2.46
		c0.566,0.826,0.81,1.623,0.81,1.623c-0.014-0.146,0.354,1.164,0.354,1.164l0.455,2.379l0.304,0.86
		c0.337,1.012,1.063,1.617,1.063,1.617l1.923,1.676c0,0,1.109,1.224,1.048,2.266c0.063,0.211-0.186,0.312-0.287-0.039
		c-0.12-0.408-0.153-0.49-0.283-0.734c-0.234-0.438-1.187-1.29-1.187-1.29l-1.111-0.81l-1.113-0.864l-0.759-0.657
		c-0.468-0.848-0.354-1.567-0.354-1.567l0.053-1.113c0.129-0.557-0.456-2.43-0.456-2.43l-0.221-0.521l-0.186-0.439l-0.354-0.765
		c-0.053-0.043-0.251-0.208-0.712-0.656c-1.104-1.297-3.138-1.873-3.138-1.873c-0.877-0.185-1.526-0.381-2.177-0.708
		C71.66,39.773,71.801,38.871,71.801,38.871L71.801,38.871z"/>
	<path fill="#004F91" d="M59.973,39.826c0.516-0.281,2.291-0.702,2.291-0.702c0.115-0.063,1.724-0.304,1.825-0.304
		c0.101,0,2.983-0.404,2.983-0.404c1.26-0.09,2.229,0.304,2.229,0.304c0.355,0.101,0.657,0.354,0.657,0.354l1.618,1.266l1.623,1.113
		c0,0,0.961,0.506,1.113,0.557c0.151,0.051,2.176,0.76,2.379,0.811c0.202,0.052,1.723,0.761,1.723,0.761s2.142,1.225,1.96,2.073
		c-0.901-0.951-2.519-1.618-2.519-1.618c-4.411-1.475-5.062-2.178-5.062-2.178l-1.22-0.811l-1.063-0.708
		c-1.397-1.117-3.345-1.203-3.345-1.203c-1.927-0.167-5.245,0.472-5.245,0.472C60.603,39.972,59.973,39.826,59.973,39.826
		L59.973,39.826z"/>
	<path fill="#004F91" d="M74.519,38.034c-0.103,0.004,0.695,0.062,1.365,0.229c0.203,0.051,1.196,0.416,1.314,0.456
		c0.098,0.031,1.802,0.771,2.024,0.91c1.032,0.591,1.729,1.076,2.129,1.417c1.154,0.989,1.434,1.644,1.434,1.644
		c0.813,1.082,1.438,2.112,1.856,3.624l0.354,1.216l0.202,1.063l0.306,1.771l0.253,1.063l-1.015-1.417l-0.368-0.479l-0.287-0.48
		l-0.306-0.911c-1.015-4.499-1.82-5.47-1.82-5.47c-1.024-1.551-2.585-2.43-2.585-2.43c-0.32-0.219-2.277-1.113-2.277-1.113
		s-1.63-0.606-1.821-0.658C74.112,38.151,74.519,38.034,74.519,38.034L74.519,38.034z"/>
	<path fill="#004F91" d="M64.241,43.677c1.016,0.57,1.67,0.658,1.67,0.658c0.807,0.003,1.723,0.206,1.723,0.206
		s0.605,0.304,0.709,0.605c0.102,0.305,0.102,0.455,0.102,0.455l0.05,0.962c0,0,0.203,1.113,0.354,1.164
		c0.152,0.051,0.142,0.333,2.277,0.86c0.099,0.022,1.103,0.447,1.219,0.605c0.289,0.228,0.475,0.43,0.557,0.607
		c0.752,1.234,0.253,3.9,0.253,3.9l0.104,0.557c0.957,0.827,1.468,0.709,1.468,0.709s0-0.203,0-0.304
		c0-0.104-0.254-0.607-0.254-0.607L73.51,49.75c-0.414-0.81-2.23-1.569-2.23-1.569c-1.062-0.267-1.111-1.063-1.111-1.063
		l-0.256-1.063L69.61,44.94c-0.272-1.411-1.519-1.37-1.519-1.37h-1.316l-0.657-0.05l-0.557-0.102l-0.86-0.354
		C64.697,43.068,63.74,42.857,64.241,43.677L64.241,43.677z"/>
	<path fill="#004F91" d="M64.386,45.776l0.614,0.13l0.455,0.15c0.414,0.02,0.506-0.101,0.506-0.101l0.911-0.306h0.305l0.604,0.103
		c1.188,0.28,1.268,1.013,1.268,1.013l-0.709-0.202l-0.658-0.051l-1.012-0.051l-0.709,0.051
		C64.968,46.845,64.386,45.776,64.386,45.776L64.386,45.776z"/>
	<path fill="#004F91" d="M64.041,41.654c0.882,1.188,1.813,0.484,1.771,0.558l1.468-0.304c0.396-0.028,0.776-0.047,0.89-0.033
		c0.665,0.046,0.932,0.154,1.098,0.206c0.456,0.132,0.818,0.185,1.405,1.092c-0.012-0.085,0.506,0.962,0.506,0.962l0.409,1.066
		c0.632,2.399,3.034,3.29,3.034,3.29l1.417,0.402l0.456,0.203c0,0,0.555,0.423,0.657,0.708c0.05,0.135,0.354,0.709,0.354,0.709
		l0.304,0.91l0.455,1.271l0.405,0.354l0.506,0.404l0.459,0.605c-0.171,0.146-0.103,0.506-0.103,0.506
		c0,0.06-0.459,0.152-0.459,0.152l-0.487,0.135c-0.229-0.098-0.371-0.487-0.371-0.487l-0.152-0.761l-0.657-2.181
		c-0.499-1.279-1.418-1.518-1.418-1.518l-1.265-0.607l-1.721-0.962c-1.256-0.592-1.929-2.783-1.929-2.783
		c-0.525-2.201-1.519-2.687-1.519-2.687c-0.523-0.543-3.121-0.236-3.121-0.236l-1.015,0.335c0.111-0.052-1.583,0.561-1.583,0.561
		s0.051-0.811,0.051-0.91C63.887,42.513,64.041,41.654,64.041,41.654L64.041,41.654z"/>
	<path fill="#004F91" d="M74.77,50.762c0.984,1.203,0.558,3.45,0.558,3.45l0.203,1.063l0.657,0.963c0,0,1.164,1.314,1.215,1.416
		c1.353,1.533,1.026,2.991,0.507,4.153l-0.507,0.607l-0.101,0.202l-0.051,1.314l0.2,0.354c0.34,0.209,1.521,0.253,1.521,0.253
		s1.521,0,1.623,0.051c0.101,0.05,0.708-0.104,0.557-0.203c-0.15-0.1-0.403-0.202-0.403-0.202s-0.708-0.557-0.761-0.709
		c-0.051-0.149-0.149-1.012-0.149-1.112c0-0.102-0.152-0.454-0.152-0.454c-0.041-0.083-0.287-0.472-0.459,0.051
		c0.031-0.101-0.102,0.557-0.102,0.557l-0.151,0.607l-0.557,0.253c-0.07,0.014-0.155-0.003-0.253-0.051
		c-0.104-0.076-0.053-0.456-0.053-0.456c0.071-0.185,0.404-0.657,0.404-0.657l0.203-0.658l0.253-0.911l0.101-1.064l-0.253-0.911
		l-0.304-0.607l-1.214-1.619l-0.558-0.759l-0.559-0.76l-0.253-0.911l-0.056-2.216c0.029-0.672-0.652-1.434-0.652-1.434
		C74.459,50.059,74.77,50.762,74.77,50.762L74.77,50.762z"/>
	<path fill="#004F91" d="M59.191,38.849l1.507-0.66l1.869-0.433c4.507-0.685,7.696-0.405,7.696-0.405
		c2.645,0.466,4.354,1.316,4.354,1.316s4.48,1.89,6.18,3.896c0.51,0.691,0.709,1.316,0.709,1.316l1.265,3.899
		c0.395,1.212,0.813,1.722,0.813,1.722c0.285,0.384,0.655,0.557,0.655,0.557l0.456,0.203c0.442,0.173,0.812,0.708,0.812,0.708
		c0.521,0.723,0.506,1.37,0.506,1.37c0.104,0.071,0,0.709,0,0.709l-0.455-0.557l-0.895-0.901c-1.987-1.104-2.549-4.012-2.549-4.012
		l-0.354-1.521l-0.507-1.519c-0.548-2.834-7.999-5.823-7.999-5.823c-3.135-1.511-7.09-1.013-7.09-1.013
		c-0.479,0.01-1.722,0.201-1.722,0.201L61.2,38.462l-1.26,0.274L59.191,38.849L59.191,38.849z"/>
	<path fill="#004F91" d="M85.403,67.728c0.194-0.012,0.313-0.214,0.354-0.605l0.15-0.709l0.103-0.911l0.051-0.759l0.104-0.812
		v-0.658c-0.533-1.31-2.328-2.073-2.328-2.073l-0.962-0.306l-0.709-0.402l-0.559-0.512l-0.557-0.354l-0.708-0.202
		c-0.416-0.026-0.152-0.253-0.152-0.253s0.253-0.103,0.456-0.103c0.202,0,0.759,0.052,0.91,0.103
		c0.152,0.05,0.658,0.151,0.658,0.151s0.453,0.453,0.76,0.605c1.21,0.604,3.896,2.585,3.896,2.585
		c0.321,0.199,0.306,0.86,0.306,0.86v0.658l-0.053,0.707l-0.149,0.507l-0.253,1.111l-0.104,0.709c0,0-0.149,0.255-0.2,0.354
		c-0.053,0.101-0.306,0.354-0.306,0.354l-0.403,0.104L85.403,67.728L85.403,67.728z"/>
	<path fill="#004F91" stroke="#004F91" stroke-width="0.1417" stroke-miterlimit="3.8637" d="M87.125,62.263l-0.657-1.114
		c0,0-0.688-1.361-2.026-2.008c-0.773-0.222-0.939-0.554-0.939-0.554c-0.02-0.021-0.021-0.883-0.021-0.883
		c0.157-1.334-1.013-2.48-1.013-2.48s-1.417-0.759-1.52-0.81c-0.102-0.052-1.445-0.455-1.571-0.506
		c-0.096-0.039-1.014-0.762-1.014-0.762l-0.202-0.557l0.404,0.253l1.319,0.658l3.03,1.495c0.69,0.374,1.067,0.833,1.067,0.833
		c0.136,0.273,0.405,1.519,0.405,1.519c0.049,0.461,0.506,0.759,0.506,0.759c0.222,0.201,2.075,1.926,2.075,1.926
		C87.309,60.506,87.125,62.263,87.125,62.263L87.125,62.263z"/>
	<path fill="#004F91" d="M64.797,42.389c-0.224-0.352-0.149-0.786-0.149-0.786c0.499-0.876,4.453-0.415,4.858-0.203l1.771,0.963
		l1.876,1.013c3.241,1.665,5.49,2.185,5.49,2.185c1.087,0.652,0.938,3.336,0.938,3.336l0.054,1.469l0.051,0.859l0.102,0.658
		c0.057,0.444,0.455,0.712,0.455,0.712l3.998,2.328c0,0,1.096,0.692,1.215,2.479c-0.002,0.676-0.304,1.014-0.304,1.014
		c0.024,0.146,0,0.456,0,0.456s0.051,0.101,0.405,0.304c0.354,0.202,0.708,0.404,0.708,0.404l-0.051-0.455l-0.202-0.709
		l-0.051-1.619l0.084-1.203c0.037-0.31-0.147-0.472-0.488-0.67L85.05,54.67l-2.023-1.014l-0.709-0.403l-1.013-0.607l-0.657-0.712
		l-0.405-0.76l-0.253-0.91l-0.102-0.861v-0.708l-0.046-0.932l-0.057-0.941c0.181-1.452-2.938-2.275-2.938-2.275l-2.229-0.765
		l-0.909-0.403l-1.568-1.113c-0.012-0.077-1.573-1.063-1.573-1.063c-2.07-1.112-4.355-0.979-4.355-0.979l-0.979,0.08
		c-0.81,0.128-1.244,0.546-1.244,0.546l-0.051,0.405c0,0,0.083,0.387,0.125,0.479c0.063,0.135,0.229,0.381,0.229,0.381
		L64.797,42.389L64.797,42.389z"/>
	<path fill="#004F91" d="M64.661,47.012c0.091,0.063,2.721,2.172,2.721,2.172c0.993,0.915,2.516,1.188,2.516,1.188
		c0.321,0.074,1.234,0.031,1.234,0.031c0.904,0.232,0.857,1.391,0.857,1.391c0.278,1.688-0.511,1.71-0.511,1.71
		c-0.224,0.134-0.404,0.202-0.404,0.202s-0.403,0.253-0.051,0.304c0.354,0.051,1.674-0.101,1.674-0.101l-0.456-3.192
		c-0.346-1.251-2.096-1.11-2.096-1.11c-0.391,0.078-0.922,0.018-0.922,0.018c-1.172-0.297-1.906-1.018-1.906-1.018l-2.516-1.891
		C64.074,46.451,64.661,47.012,64.661,47.012L64.661,47.012z"/>
	<path fill="#004F91" d="M84.677,67.123l0.119-0.812l0.295-1.063c0.031-0.143-0.094-0.414-0.094-0.414
		c0-0.047-0.703-0.922-0.703-0.922c-0.086-0.164-0.031-0.758-0.031-0.758c0.014-0.313-0.163-0.944-0.529-1.902
		c-0.432-0.699-1.164-0.911-1.164-0.911s-0.403-0.159-0.403-0.104c-0.083,0.027-0.084,0.109-0.005,0.244
		c1.031,1.041,1.22,2.239,1.22,2.239c0.048,0.185,0.036,0.146,0.087,0.247c0.051,0.101,0.166,0.462,0.166,0.462l0.203,0.506
		l0.557,1.113c0.223,0.294-0.304,1.012-0.304,1.012l0.051,0.709L84.677,67.123L84.677,67.123z"/>
	<path fill="#004F91" d="M84.594,67.376l-0.051-0.76c0,0-0.092-0.707-0.202-0.812c-1.768-1.613-3.849-1.566-3.849-1.566
		l-0.354,0.101l0.17,0.253c4.156,0.914,3.68,1.984,3.68,1.984c0.184,0.217,0.101,0.344,0.101,0.344l0.253,0.304L84.594,67.376
		L84.594,67.376z"/>
	<path fill="#004F91" d="M78.77,64.086c0,0,1.349-0.157,1.461-0.189c2.042-0.576,3.3-0.164,3.3-0.164
		c0.247,0.01,0.481,0.367,0.481,0.367l0.141-0.164l-0.015-0.305c-0.032-0.477-0.946-0.586-0.946-0.586l-2.232,0.117l-0.972,0.165
		l-1.521,0.403L78.77,64.086L78.77,64.086z"/>
	<path fill="#004F91" d="M76.574,51.21l0.021,0.621c0,0-0.104,1.933-0.104,1.725c-0.013-0.038,0.044,1.067,0.456,1.417
		c0.244,0.15,0.771,0.612,0.771,0.612c0.313,0.224,0.828,1.147,0.828,1.147s0.46,1.513,0.375,1.631l-0.151,0.811l0.231,0.458
		c0,0,0.835-0.155,0.936-0.155c0.104,0,0.405-0.101,0.405-0.101l0.051-0.253c0,0-0.254-0.152-0.354-0.104
		c-0.104,0.053-0.255,0.104-0.255,0.104l-0.15-0.658c-0.007-0.282-0.578-1.39-0.578-1.39l-0.134-0.384l-0.306-0.962l-0.605-0.858
		c-0.443-0.17-0.759-0.812-0.759-0.812c-0.183-0.302-0.253-2.28-0.253-2.28C76.961,51.574,76.574,51.21,76.574,51.21L76.574,51.21z"
		/>
	<path fill="#004F91" d="M82.468,60.034c0.177,0.116-0.202-0.607-0.202-0.607l0.202-1.671c-0.135-1.818-1.976-2.985-1.976-2.985
		l-0.965-0.304l-0.557,0.051C78.389,55,77.704,54.77,77.704,54.77s-1.365,0.306-1.618,0.202c-0.253-0.102-0.508-0.405-0.508-0.405
		s-0.148-0.443-0.201-0.304c-0.109,0.294-0.911,0-0.911,0l-1.468-0.604l-0.151,0.05l-1.113,0.15l-0.051,0.202l0.253,0.104
		c0,0,2.428,0.771,2.785,2.164c0.04,0.153,0.604,0.164,0.707,0.164c0.102,0,1.215-0.405,1.215-0.405s0.396-1.033,1.266-0.506
		c0.131,0.078,1.267-0.053,1.267-0.053l1.016,0.152c1.206,0.334,1.417,2.43,1.417,2.43c0.104,0.222-0.253,0.709-0.253,0.709
		s0.586,1.076,0.658,1.163C82.306,60.334,82.468,60.034,82.468,60.034L82.468,60.034z"/>
	<path fill="#004F91" d="M64.284,52.191l0.354-0.253l0.304-0.304c0,0,0.354-0.405,0.506-0.405c0.152,0,0.508,0,0.508,0
		s0.897,0.165,1.052,0.218c0.149,0.05,0.922,0.341,0.922,0.341l1.013,0.203l0.404,0.051l0.658,0.355l0.354,0.455l0.151,0.306
		l0.051,0.403l0.304,0.253l0.661,0.152l-0.307-0.911l-0.507-1.168l-0.354-0.304l-0.405-0.202c-2.396-0.429-2.528-0.911-2.528-0.911
		l-0.253-0.253l-1.015-0.911l-1.345-1.382c-0.079-0.12-0.74-0.521-0.74-0.521c-0.226,0.063-0.091,0.281-0.091,0.281l1.164,0.961
		c0,0,0.81,1.215,1.012,1.367c0.202,0.151,0.306,0.455,0.306,0.455c-0.156,0.276-0.455,0-0.455,0l-0.306-0.405l-1.685-1.601
		c-0.612-0.355-0.188,0.285-0.188,0.285c0.072,0.121,1.113,1.365,1.113,1.365l0.103,0.558l-0.253,0.203l-0.354-0.152l-0.202,0.104
		L63.93,51.43L64.284,52.191L64.284,52.191z"/>
	<path fill="#004F91" stroke="#004F91" stroke-width="0.1417" stroke-miterlimit="3.8637" d="M76.797,64.894l-0.151-0.403
		l-0.051-0.455c0.083-0.382,0.658-0.152,0.658-0.152s0.304-0.051,0.402-0.051c0.104,0,0.085-1.301,0.085-1.301L77,62.515
		l-0.658,0.051c0,0-0.36-0.458-0.152-0.455c1.363,0.012,1.417-1.928,1.417-1.928c-0.069-0.453-0.354-0.202-0.354-0.202
		c-0.325,1.563-1.47,1.774-1.47,1.774l-0.605,0.051l-0.405-0.101l-0.202-0.203c1.482-0.788,1.723-1.521,1.723-1.521
		c0.197-0.173,0.15-1.164,0.15-1.164l-0.102-0.506c-0.182-0.175-0.354,0.05-0.354,0.05v0.405c0.011,0.174-0.008,0.359-0.051,0.558
		c-1.009,2.078-1.923,1.369-1.923,1.369l-0.202-0.2c1.71-0.229,1.417-3.647,1.417-3.647l-0.051-0.456l-0.202-0.202l-0.234,0.026
		c0.188,0.456,0.234,1.542,0.234,1.542c0.063-0.023-0.47,2.227-1.873,1.924c-0.099-0.021-0.557-0.102-0.506-0.203
		c0.051-0.101,0-0.303,0.151-0.354c0.15-0.051,0.454-0.203,0.557-0.253c0.102-0.053,0.557-0.507,0.557-0.507l0.203-0.455
		l0.051-0.607l-0.051-0.253c-0.053-0.063-0.203,0-0.203,0L73.76,57.25c-0.155,1.419-1.367,1.567-1.367,1.567l-0.557,0.255h-0.309
		l-0.15-0.104c1.235-0.879,1.318-1.822,1.318-1.822l0.052-0.557c0.001-0.254-0.019-0.372-0.052-0.354c-0.02-0.044-0.203,0-0.203,0
		c0.005-0.036-0.149,0.201-0.149,0.201l-0.253,0.812c-0.335,0.92-1.219,1.314-1.219,1.314c-0.478,0.025-0.255-0.354-0.255-0.354
		c1.121-1.136,1.018-1.521,1.018-1.521l-0.054-0.858c-0.116-0.124-0.256,0-0.256,0l-0.149,0.455
		c-0.141,0.929-0.911,1.671-1.113,1.671s-0.354,0.101-0.354,0.101l-0.103-0.253l0.354-0.202l0.304-0.354l0.253-0.455
		c0.042-0.295,0.059-0.497,0.051-0.607c0.065-0.246,0.102-0.381,0.104-0.403c-0.09-0.086-0.253-0.053-0.253-0.053
		c-0.043-0.017-0.104,0.253-0.104,0.253c-0.184,0.552-0.403,0.923-0.658,1.114c0,0-0.396-0.038-0.253-0.15
		c0.367-0.293,0.354-1.217,0.354-1.217l-0.051-1.265l0.15-0.304l0.812-0.203l1.167,0.102l0.305-0.253l-0.507-0.403l-1.066-0.151
		l-0.506,0.202l-0.405,0.051L69.1,53.455l-0.202-0.103l-1.113-0.709c-0.238-0.043-0.392-0.043-0.454,0c0,0-0.229,0.229,0.102,0.354
		c0.143,0.067,2.729,1.039,1.468,3.745c-0.031,0.122-0.304,0.304-0.304,0.304c-0.098,0.081-0.812,0.101-0.812,0.101
		c-0.071,0.011-0.557-0.2-0.557-0.2l-0.456-0.455v-0.456l-1.313,0.202l-0.103,0.305l0.05,0.202c0,0,0.407,0.39,0.455,0.402
		c0.155,0.068,0.354,0.56,0.354,0.56c0.013-0.004,0,0.91,0,0.91l-0.084,2.836c0.005,0.263,0.479,1.138,0.479,1.138
		c-0.001,0.01,0.433-0.052,0.433-0.052c-0.271-0.517-0.458-1.229-0.425-1.691l0.202-1.521c0,0,0.203-0.607,0.203-0.709
		c0-0.103,0.112-0.852,0.112-0.852s0.039-0.162,0.188-0.162c0.152,0,0.254,0.052,0.254,0.052c0.073,0.037,0.103,0.15,0.103,0.15
		c0.015,0.018-0.051,1.113-0.051,1.113c-0.658,2.391-0.308,3.604-0.308,3.604c0.036-0.013,0.669-0.072,0.669-0.072
		c-0.387-0.662-0.411-1.351-0.411-1.351l0.149-0.76l0.202-0.763l0.152-1.164l0.101-0.202h0.203l0.051,0.506v1.266l-0.156,0.952
		c-0.047,0.846,0.163,1.479,0.163,1.479l0.433-0.037l-0.136-0.566l-0.051-0.759c0,0,0.051-0.604,0.051-0.709
		c0-0.104,0.255-1.016,0.255-1.016l0.2-0.306c0.413-0.133,0.455,0.354,0.455,0.354l-0.402,2.078c0,0-0.094,0.958-0.053,1.063
		c0.056,0.138,0.405,0.708,0.405,0.708c0.077,0.116,0.202-0.101,0.202-0.101c-0.006,0.09,0.15-2.278,0.15-2.278
		s0.187-0.302,0.515-0.13c0.558,0.025,0.701-0.582,0.701-0.582s0.735-0.717,0.763,0.662c0.005,0.248-0.401,0.779-0.401,0.779
		c-0.404,0.451,0.313,0.232,0.313,0.232l0.544-0.204c0,0,0.405-0.102,0.507-0.102s0.202,0,0.404,0.102
		c0.203,0.104,0.304,0.306,0.304,0.306l-0.354,0.706c0,0-0.083,0.599,0,0.762c0.188,0.37,0.557,0,0.557,0s-0.103-0.405-0.051-0.507
		c0.051-0.103,0.149-0.354,0.149-0.354c0.143-0.238,0.709-0.203,0.709-0.203c1.025,0.465,1.216,2.126,1.216,2.126
		c0.106,0.229-0.255,0.306-0.255,0.306l0.203,0.403l1.569,0.559L76.797,64.894L76.797,64.894z"/>
	<path fill="#004F91" stroke="#004F91" stroke-width="0.1417" stroke-miterlimit="3.8637" d="M85.867,51.865l0.447,0.777
		l0.658,2.126l0.404,5.313l0.102,2.13v1.721c-0.197,0.894-0.506,1.164-0.506,1.164c-0.021-0.004-0.203-1.013-0.203-1.013v-2.277
		l-0.101-2.635c0.016-4.676-0.79-6.376-0.79-6.376L85.867,51.865L85.867,51.865z"/>
	<path fill="#004F91" d="M78.314,53.098l0.854,2.485l0.67,1.412l0.604,1.519c0.186,0.217,0,0.607,0,0.607l0.405,0.304l1.113,0.506
		c0,0,0.354,0.051,0.253-0.202c-0.103-0.254-0.759-1.013-1.063-1.266c-0.304-0.253-0.354-0.253-0.403-0.405
		c-0.053-0.149-0.708-2.328-0.708-2.328l-0.512-1.566l-0.657-0.911L78.314,53.098L78.314,53.098z"/>
	<path fill="#004F91" d="M50.422,97.606l-0.903-0.019l0.13-3.492c0.021-1.863-0.586-3.387-0.586-3.387l-0.704-1.702l-0.705-1.291
		l-0.646-1.408c-0.357-0.66-0.403-1.425-0.403-1.425l0.029-0.438c0.019-1.108-0.85-1.055-0.85-1.055l-3.653-0.76l-1.896-0.165
		c-4.161,0.047-3.534-4.688-3.534-4.688c0.094-0.639,0.528-1.135,0.528-1.135l0.47-0.819c0.295-0.577-0.345-1.146-0.345-1.146
		l-0.497-0.259c-0.347-0.161-0.156-1.063-0.156-1.063l0.113-0.335l0.141-0.516c0.027-0.284-0.254-0.559-0.254-0.559
		c-0.229-0.38,0-1.232,0-1.232l0.061-1.074L36.7,69.113c0,0-0.035-0.6-0.035-0.539c0,0.059-0.022-0.059-0.022-0.059l-0.663,0.025
		c-2.063,0.057-1.992-1.989-1.992-1.989c0.093-0.81,1.075-1.812,1.075-1.812l0.994-1.732l1.174-1.721l1.3-1.76
		c0.438-0.565,0.316-1.76,0.316-1.76l-0.014-0.824c-0.016-1.047,0.352-1.351,0.352-1.351l0.646-1.057c0,0,0.599-1.497,0.629-1.548
		c0.407-0.681,0.68-3.599,0.476-3.88c0.202,0.099-1.532-0.8-1.633-1.197c-0.444-2.745,0.295-4.152,0.295-4.152l1.819-1.584
		l1.354-1.626c1.7-2.59,3.316-2.653,3.316-2.653c0.446-1.109,1.9-2.231,1.9-2.231s1.505-1.021,4.243-0.607
		c0.811,0.021,1.063,0.786,1.063,0.786s0.318,2.389,1.483,2.909c1.496,0.996,2.341-0.098,2.341-0.098
		c0.606-0.275,0.831,0.432,0.012,0.695c-0.23,0.045-0.893,0.125-0.893,0.125c-2.206,0.458-2.83-1.311-2.83-1.311l-0.648-1.644
		c-0.243-1.005-1.526-0.938-1.526-0.938l-1.761,0.116c-0.4-0.01-0.772,0.068-1.114,0.234c-0.497,0.348-0.998,1.174-0.998,1.174
		l-0.294,0.41l-0.469,0.547l-0.43,0.293l-0.527,0.234c0,0-1.188,0.49-2.428,2.121c-0.366,0.687-0.834,1.344-1.329,1.988l-1.174,0.88
		c-1.361,1.069-1.046,2.516-1.046,2.516l0.048,1.259c0.036,0.371,0.683,0.731,1.524,1.059c0.347,0.171,0.411,0.587,0.411,0.587
		l0.061,1.057l-0.178,1.938l-0.353,1.408l-0.528,1.427l-0.511,0.974c-0.373,0.698-0.252,1.322-0.252,1.322v1.344
		c0.027,0.882-1.117,1.775-1.117,1.775l-0.955,1.218l-1.174,2.014l-0.411,0.528c-0.702,0.712-1.62,2.357-1.62,2.357
		c0.043,0.514-0.375,1.438,1.25,1.375c0.293-0.013,1.377-0.118,1.377-0.118c0.887,0.121,1.519,0.498,1.519,0.498
		c0.427,0.593,1.141,0.398,1.352,0.332c0.344-0.112,0.52-0.163,0.188-1.054c-0.065-0.176-0.305-0.813-0.305-0.813l0.14-0.128
		c0,0,0.849,1.226,0.911,2.101c-1.031,0.656-1.545,0.457-1.545,0.457l-1.05-0.426l-0.813-0.125
		c-0.692-0.348-0.282-0.125-0.282-0.125c0.438,0.563,0.073,2.058,0.073,2.058l-0.102,0.547c0,0-0.099,0.396,0.288,0.441
		c0.291,0.034,0.465,0.051,0.546,0.07c0.119,0.026,0.273,0.15,0.318,0.223c0.443,0.674,0.681,0.457,0.681,0.457
		s0.568-0.028,0.749-0.034c0.15-0.005,0.372,0.603-0.097,0.603c-0.549,0.037-0.864,0.043-0.864,0.043
		c-0.146-0.002-0.639-0.368-0.639-0.368c-0.987-0.426-1.549,2.205-0.242,1.892c0.331,0.285,0.551,1.308,0.551,1.308
		c0.002,0.479-1.088,1.679-1.088,1.679s-0.271,0.562-0.063,1.813c0.159,1.521,1.503,2.582,4.01,2.582
		c1.191,0.049,3.052,0.179,3.109,0.179c0.059,0,1.565,0.053,1.701,0.059c3.611,0.159,7.985-3.771,7.985-3.771l3.332-3.52
		c1.433-1.247,1.288-0.085,1.288-0.085c0.772,0.295-1.142,2.192-1.142,2.192c0.146-0.088-4.313,2.936-4.313,2.936
		c-1.771,1.146-1.795,1.834-1.795,1.834c-0.134,1.34-0.158,1.394-0.158,1.394s-1.983,1.333-2.313,1.25
		c-0.229-0.059,1.729-1.627,1.729-1.627c0.354-0.771-0.493-0.447-0.657-0.388c-1.288,0.832-2.972,0.789-2.972,0.789l-0.033,0.988
		c0.124,1.699,0.765,2.895,0.765,2.895l0.881,1.525l0.586,1.232c0.781,1.422,0.998,3.286,0.998,3.286L50.422,97.606L50.422,97.606z"
		/>
	<path fill="#004F91" d="M61.716,48.1c-0.152,0.298,0.524,0.895,0.524,0.895c0.102,0.139,1.001,1.255,1.001,1.255
		s0.853,0.75,0.728,2.179c0.146,1.298-0.352,1.494-0.594,2.189c-0.047,0.775,0.348,2.296,0.348,2.296
		c0.197,0.463,0.709,3.314,0.709,3.314s0.198,2.784,0.33,2.784c0.188,0.219,1.377,0.263,3.563,0.132
		c1.512,0.705,1.396,2.491,1.527,2.491s0.521-0.181,0.521-0.181l0.272-0.66c0.147-0.277,0.228-0.701,0.228-0.701
		c-0.587-0.178-0.854-0.488-0.854-0.488c-0.246-0.354-0.131-0.871-0.131-0.871c0.08-0.502-0.881-0.419-0.881-0.419
		c-3.326,0.371-3.534,0.047-3.534,0.047c-0.267-0.337-0.8-4.776-0.8-4.776l-0.572-2.374c-0.008-0.744,0.525-1.722,0.525-1.722
		c0.209-0.916,0.012-2.261,0.012-2.261c-0.348-0.983-1.33-2.038-1.33-2.038c-0.641-0.64-0.559-0.985-0.559-0.985
		c1.204-2.552,1.446-4.27,1.446-4.27l0.167-1.425c-0.2-1.786-0.727-1.98-0.727-1.98c-0.24-0.197-1.058-0.463-1.058-0.463
		c-0.845-0.279-2.015-0.339-2.32-0.33c-0.365-0.03-1.255,0.134-1.255,0.134c-0.396,0.065-0.857,0.265-0.857,0.265
		s-0.597,0.287-0.049,0.315c0.132,0.007,1.699-0.25,2.096-0.186c0.397,0.065,1.349,0.077,2.821,0.703
		c1.229,0.37,0.424,3.391,0.424,3.391L61.716,48.1L61.716,48.1z"/>
	<path fill="#004F91" d="M66.03,79.947l-2.567,3.229l-3.478,5.188l-2.052,4.135l-2.646,9.41h1.248
		c0.875-7.625,5.206-14.772,5.206-14.772l3.895-5.211l4.612-5.781l3.824-3.668c0,0,4.375-3.312,4.775-3.646
		c0.295-0.646,0.721,1.031,0.721,1.031c0.417,0.813,0.613,1.149,0.613,1.149c0.663,2.111-0.049,2.013-0.049,2.013
		c-1.474,0.198-2.125,1.286-2.125,1.286c-1.021,1.602-0.465,3.485-0.465,3.485c-2.087-0.226-2.688,1.354-2.688,1.354
		c-1.244,2.358-0.256,4.665-0.256,4.665s0.308,1.537,0.241,2.662c-0.008,0.147-0.065,1.691,0.569,2.043
		c0.571,0.417,1.057,0.505,1.057,0.505s0.351,0.702,0.879,0.771c1.036,0.132,1.717-1.23,1.783-1.297
		c0.064-0.065,1.229-1.12,1.229-1.12s0.659-0.439,1.562-0.221c0.107,0.021,1.252-0.064,1.252-0.064
		c1.208-0.066,1.625-1.252,1.625-1.252s0.088,2.897,2.067,3.492c-0.195,0.264-0.169,0.789-0.169,0.789
		c-0.384,1.628,0.809,2.418,0.809,2.418c2.567,1.563,5.161,0.064,5.161,0.064c1.547-0.881,1.626-3.054,1.626-3.054
		c0.188-1.765-0.022-2.79-0.022-2.79c-1.428-2.267,0.044-3.848,0.044-3.848c0.489-0.441,0.814-1.302,0.979-2.576
		c0.188-2.104-0.888-2.854-0.888-2.854c-0.722-0.588-0.51-1.242-0.51-1.242l0.22-2.558c0.022-1.272-0.525-2.329-0.525-2.329
		c-0.177-0.593-1.144-1.032-1.144-1.032c-0.703-0.151-1.733-0.132-1.733-0.132c-2.197,0.132-2.052,0.543-2.307,0.447
		c-0.164-0.063,0.311-0.547,0.176-1.286c-0.654-1.194-0.3-1.91-0.3-1.91l1.128-1.593c1.574-2.793,1.311-6.184,1.311-6.184
		c-0.406-5.906-1.531-9.049-1.531-9.049c-1.625-5.25-4.094-9.923-4.094-9.923c-3.188-5.141-10.063-6.077-10.063-6.077
		c-3.375-0.688-9.203-0.438-9.203-0.438c-3.016,0.234-4.719,0.984-4.719,0.984s-2.657,1.028-3.771,2.797
		c-0.035,0.056-0.381,0.927-0.267,0.988c0.31,0.171,0.267,0.396,0.267,0.396c0.089,0.284-0.267,0.646-0.267,0.646l-0.828,1.284
		c0,0-0.419,0.682-0.855,2.181c0.01,0.019-0.562,1.435-0.562,1.435c-0.239,0.988-0.513,1.91-0.513,1.91
		c-0.079,0.115-1.082,2.194-1.082,2.194c-0.296,1.558-0.846,2.172-0.846,2.172l-3.992,6.195c-0.47,0.871-0.503,1.704-0.396,2.019
		c0.141,0.414,0.242,0.602,0.641,0.602c0.396,0,1.228,0.084,1.5,0.078c0.719-0.016,0.758,0.563,0.758,0.563s0.021,1.838,0.039,1.982
		c0.023,0.188,0.055,1.104,0.055,1.104s-0.047,0.586,0.721,0.883c0.021,0.039,0.141,0.18-0.128,0.602
		c-0.062,0.134-0.247,1.187-0.218,1.273c0.039,0.109,0.02,0.258,0.289,0.375c0.836,0.359,0.828,0.96,0.828,0.96
		c0.156,0.353-0.703,1.826-0.703,1.826c-0.482,0.769-0.271,3.037-0.25,3.183c0.297,1.844,2.398,2.317,2.398,2.317
		c2.125,0.094,3.322,0.028,3.322,0.028l2.483-0.232c0.742-0.07,0.765,1.229,0.765,1.229l1.938,8.552
		c0.655-0.968,0.613-0.93,0.613-0.93l-0.363-1.911l-1.086-4.99c-0.43-2.359-0.402-1.688-0.402-1.949c0-0.266,0.85-0.352,0.85-0.352
		c5.775-0.994,6.36-2.798,6.625-3.178c0.937-1.637,2.461-6.406,2.461-6.406s0.497-0.61,0.943-0.74
		c0.596-0.173,1.156,0.172,1.156,0.172c0.258,0.146,0.883,0.867,0.883,0.867c0.398,0.288,1.289,0.563,1.289,0.563
		c0.375,0.086,1.695,0.648,1.846,0.695c0.126,0.039,0.548,0.379,0.672,0.477c0.112,0.09,1.469,0.439,1.469,0.439
		c-0.269-0.557-0.127-0.646-1.228-1.479c-0.167-0.126-2.931-1.03-2.931-1.03c-0.711-0.405-1.114-0.812-1.258-0.931
		c-0.977-0.813-1.492-0.944-1.492-0.944c-1-0.173-2.242,1.444-2.242,1.444l-0.414,0.87c0.111,1.08-1.799,5.157-1.799,5.157
		c-0.28,0.53-0.409,1.491-1.871,1.771c-1.228,0.469-1.978,0.674-3.438,0.938c-2.455,0.556-4.183,0.556-4.183,0.556l-2.972,0.06
		c-5.132,0.142-3.238-3.939-3.238-3.939l0.465-1.116c0.118-0.323,0.348-0.166,0.609-0.153c0.773,0.032,0.127-0.649,0.127-0.649
		c-0.294-0.311-0.692-1.034-0.063-1.605c0.016-0.164-0.313-0.107-0.313-0.107c-0.66,0.433-0.969,0.056-0.969,0.056
		c-0.398-0.604,0.176-0.97,0.176-0.97s0.326-0.363,1.551-0.033c0.285,0.077,0.991-0.001,0.991-0.001
		c0.504-0.091,0.493-0.49,0.493-0.49c-0.657-0.474-0.498-0.437-0.815-0.582c-0.165-0.076-0.306,0.879-1.37,0.129
		c-0.563-0.539-0.656-0.479-0.725-0.479c-0.611,0-0.688,0.181-0.857-0.496l-0.057-2.453l0.024-0.723l1.102,0.142
		c0.666,0.234,1.03,0.145,1.03,0.145c-0.234,0.09,1.131-0.121,0.645-1.291c-0.301,0.724-1.758,0.313-1.758,0.313
		c-1.054-0.763-2.518-0.392-2.518-0.392c-1.868,0.271-1.02-1.138-1.02-1.138l1.785-2.825c0,0,1.945-2.717,2.99-4.488
		c0.233-1.909,0.569-2.645,0.569-2.645c0.767-0.852,0.979-1.589,1.001-1.65c1.045-3.448,1.213-4.128,1.213-4.128
		c0.144-0.584,0.85-1.721,1.649-1.864c-0.685-0.702-0.518-2.168-0.023-2.536c0.378-0.496,1.409-1.198,1.409-1.198
		c0.25-0.188,3.094-1.531,6.313-1.642c3.108-0.105,5.75,0.047,7.953,0.313c1.955,0.235,7.172,2.517,7.172,2.517
		c1.587,0.804,2.828,2.625,2.828,2.625c1,1.063,3.109,5.983,3.109,5.983s1.543,5.251,1.607,5.251c0.065,0,1.147,3.587,1.337,9.548
		c-0.234,3.962-2.147,5.077-2.147,5.094c-0.297,0.594-0.288,0.991-0.288,0.991c-0.04,0.634,0.063,1.057,0.063,1.057
		c0.483,1.029,0.368,1.521,0.368,1.521c0.063,0.138-0.368,0.999-0.368,0.999s-0.15,0.65,1.093,0.446
		c0.261-0.041,1.11-0.23,1.11-0.23c1.892-0.233,3.258-0.106,3.68,2.195c0,0-0.53,2.011-0.329,3.765
		c1.694,1.896,1.422,3.585,1.422,3.65s0.016,0.231-0.654,1.077c-0.041,0.053-1.078,1.784-1.078,1.784
		c-0.43,1.818,0.196,2.995,0.196,2.995c0.619,1.012,0.31,3.178,0.31,3.178c-0.76,3.923-7.804,3.318-5.819-0.702
		c-1.674-1.152-1.785-2.166-1.785-2.166l-0.873-2.513l-1.461,1.443c-0.563,0.702-1.912,0.702-1.912,0.702l-1.96-0.153
		c0,0,0.16,0.97-0.824,1.532c-1.363,1.771-2.038,0.646-2.038,0.646c-1.49-0.983-1.266-4.568-1.266-4.568
		c-1.294-1.573-0.108-3.563-0.108-3.563c0.361-2.229,2.779-2.174,2.779-2.174s-0.009-0.991,0-1.478
		c0.016-0.812,0.532-1.906,0.532-1.906c0.782-0.907,1.519-1.03,1.519-1.03c1.343-0.064,1.017-1.375,1.017-1.375l-0.335-1.529
		l-0.603-2.22c-0.144-0.413-0.854-1.324-0.854-1.324l-0.796,0.521l-4.438,3.399C70.627,74.078,66.03,79.947,66.03,79.947
		L66.03,79.947z"/>
	<path fill="#004F91" d="M42.384,44.826c-0.037,0.03-0.071,0.058-0.104,0.075c-0.804,0.541-1.301,1.64-1.301,1.64l-0.156,1.274
		c0.223,0.496,0.817,0.045,0.817,0.045c0.008,0,0.117-0.821,0.459-1.228c0.229-0.389,0.831-0.91,2.023-1.214
		c0.54-0.104,0.768-0.201,0.841-0.188c0.629,0.12,0.251,0.594,0.251,0.594c-0.118,0.08-1.278,0.332-1.278,0.332
		c-1.37,0.228-1.619,1.597-1.619,1.597c-0.047,1.196-0.672,2.071-0.672,2.071c-0.249-1.215-0.978-1.572-0.978-1.572
		c-0.188-0.438-0.211-0.865-0.211-0.865c0.023-1.129,0.417-2.039,0.712-2.563L42.384,44.826L42.384,44.826z M47.042,44.826
		c-0.48,0.996-0.986,0.438-1.246,0.006L47.042,44.826L47.042,44.826z M51.49,44.826c-0.44,0.262-0.748,0.313-0.748,0.313
		l-2.283,0.593c0,0-0.07,0.144-0.049,0.165c0.023,0.023,0.478,1.36,2.254,0.19c0.049-0.029,0.925-0.707,1.643-1.265l2.729,0.002
		c-0.177,0.507-0.377,1.07-0.377,1.07c0.392-0.29-1.563,1.042-1.563,1.042l-0.842,0.527c-1.402,1.092-2.945,0.798-2.945,0.798
		c-0.741-0.007-1.184-0.402-1.184-0.402l-0.263-0.188c1.266,0.205,2.29,0.281,3.017-0.097c0.048,0,2.063-0.893,3.232-2.391
		c-0.027-0.576-1.089-0.188-1.089-0.188l-0.71,0.379c-0.563,0.199-2.309,1.725-2.309,1.725c-0.28,0.218-0.687,0.063-0.687,0.063
		c-0.623-0.812-1.67-0.959-1.67-0.959l-0.757,0.048c-0.718,0.227-0.593-0.179-0.593-0.179s0.373-0.529,2.708-0.996
		c0.568-0.088,0.999-0.17,1.325-0.249L51.49,44.826L51.49,44.826z"/>
	<path fill="#004F91" d="M50.682,39.826c-0.391,0.068-0.71,0.197-0.819,0.299c-0.057,0-1.337,0.718-1.858,1.39
		c0,0-1.301,1.458-1.369,2.145c0,0-0.021,0.254,0.197,0.339c0,0,0.165,0.028,0.197,0.018c0.144-0.142,0.861-1.658,1.363-2.051
		c0,0,1.861-1.563,3.162-0.932l1.009,0.719c0,0,0.313,0.185,0.509,0.193c0,0,0.654,0.035,1.17-0.129c0,0,0.698-0.104,0.108-0.418
		l-0.339-0.142L53.7,41.144c-0.293-0.081-0.72-0.402-1.255-1.02c0,0-0.354-0.215-0.631-0.292l1.416-0.007
		c0.451,0.492,0.943,0.77,0.979,0.77c0.044,0,0.807,0.233,1.767-0.769l1.271-0.001c-0.028,0.04-0.063,0.081-0.102,0.125
		l-1.043,0.524c0,0-0.801,0.497-0.852,0.994c0.064,0.636,0.949,0.016,0.949,0.016c0.308,0.819-0.432,1.239-0.432,1.239
		c-0.293-0.166-1.443-0.022-1.443-0.022c-0.896,0.229-1.586,1.019-1.586,1.019c-0.443,0.559-0.893,0.901-1.251,1.109l-1.152-0.004
		c1.092-0.263,1.021-0.485,1.122-0.721c0,0,0.094-0.266-0.231-0.174c-0.071,0.021-1.207,0.213-1.302,0.213
		c-0.097,0-0.262,0.023-0.262,0.023s0.777-0.555,2.771-0.68c0.343-0.562,0.28-0.469-0.096-0.693c0,0-0.805-0.221-1.207-0.095
		c-0.814,0.171-1.42,0.779-1.42,0.779l-0.854,0.71l-0.907,0.543c0,0,0.139-0.406,0.155-0.437c0.529-0.778,2.078-1.646,2.078-1.646
		l0.898-0.354c0.562-0.646-0.78-0.521-0.78-0.521c-1.573-0.002-2.698,1.774-2.698,1.774s-0.477,1.157-0.544,1.23
		c-0.007,0.015-0.014,0.027-0.021,0.044l-1.244-0.003c-0.111-0.182-0.18-0.344-0.18-0.351c0-0.021-0.308-0.213-0.354-0.213
		c-0.048,0-0.427-0.095-0.427-0.095c-1.542-0.109-2.134,0.414-2.453,0.658l-1.214-0.003c0.178-0.314,0.319-0.49,0.328-0.49
		c0.526-0.423,0.854-0.729,1.373-0.854c0,0,0.818-0.326,2.911-0.188c0.414-0.318-0.021-0.593-0.021-0.593s-1.113-0.356-3.338-0.096
		c-0.367,0.095-0.53-0.208-0.53-0.208c-0.024-0.071,0.938-1.367,0.986-1.367c0.048,0,2.146-0.531,4.2-0.063
		c1.137,0.259,0.666-0.724,0.557-0.751c-0.093-0.148-0.615-0.293-1.104-0.399L50.682,39.826L50.682,39.826z M52.304,44.826
		c0.507-0.396,0.934-0.729,0.934-0.729c0.664-0.359,2.062-0.095,2.062-0.095c0.01,0.016-0.118,0.396-0.264,0.813L52.304,44.826
		L52.304,44.826z M42.845,42.14c0.909-0.034,1.299-0.113,1.299-0.113c0.657-0.067,1.609,0.17,1.609,0.17
		c0.298,0.104,0.901,0.112,0.901,0.112c0.621-0.125,0.228-0.678,0.228-0.678c-0.831-0.588-2.146-0.508-2.146-0.508
		c-1.623-0.049-2.118,0.79-2.118,0.79C42.559,41.963,42.559,42.17,42.845,42.14L42.845,42.14z"/>
	<path fill="#004F91" d="M46.531,39.826c-0.465-0.107-0.896-0.175-0.896-0.175c-0.079,0.013,1.069-0.511,3.156,0.14
		c0.396,0.124,0.391-0.413,0.391-0.413c-0.065-0.402-1.065-0.914-1.006-0.842c-1.237-0.358-2.442-0.191-2.442-0.191l1.614-1.892
		c0,0,0.392-0.068,0.438-0.068c0.047,0,0.862-0.164,1.532,0.024c0.644,0.182,1.457,1.576,1.457,1.576l0.411,0.569
		c0.773,1.238,0.563-0.021,0.563-0.021s-0.07-0.331-0.096-0.38c-0.325-1.094-0.816-1.715-1.137-2.178
		c-0.246-0.355-1.192-0.423-1.192-0.423c-1.92,0.211,0.929-0.633,1.763-0.216c0.047,0.022,0.426,0.615,0.426,0.615l1.207,3.146
		c0.14,0.276,0.323,0.521,0.515,0.729l-1.416-0.006c-0.032-0.003-0.063-0.011-0.094-0.016c-0.343-0.068-0.716-0.048-1.04,0.013
		L46.531,39.826L46.531,39.826z M55.975,39.826c0.073-0.075,0.146-0.157,0.222-0.248c0.245-0.283,0.31-0.379,0.31-0.379
		c0.543-0.079,1.275-0.077,0.742,0.627H55.975L55.975,39.826z M47.514,37.621c0.11,0.026,0.368,0.013,0.368,0.013
		c1.68,0.122,1.8,1.147,1.8,1.147c0.046,0.228,0.819,1.033,0.798-0.413c-0.36-1.473-2.033-1.44-2.033-1.44
		c-0.682,0.005-0.997,0.311-0.997,0.311S47.303,37.514,47.514,37.621L47.514,37.621z"/>
	<path fill="#004F91" stroke="#004F91" stroke-width="0.1417" stroke-miterlimit="3.8637" d="M40.841,61.229
		c0.422,0,0.672-0.029,1.001-0.078c0.016-0.188,0.1-1.358,0.1-1.358v-0.606l0.104-0.505l0.303-0.354c0,0,0.202-0.202,0.404-0.202
		c0.2,0,0.604,0.05,0.604,0.05l0.708,0.051l0.505,0.253l0.929,0.365l0.616,0.868l0.165,0.292l0.434,0.178
		c0.101,0.031,0.489,0.175,0.489,0.175c-0.1-0.113-1.04-1.648-1.182-1.816c0,0-0.27-0.219-0.377-0.19
		c-0.37-0.18-0.612-0.189-0.612-0.189l-0.809-0.354l-0.556-0.303l-0.59-0.104h-0.578l-0.568,0.037l-0.605,0.072l-0.172,0.25
		l0.203,0.595l0.109,0.438v1.109l-0.172,0.644L40.841,61.229L40.841,61.229z"/>
	<path fill="#004F91" stroke="#004F91" stroke-width="0.1417" stroke-miterlimit="3.8637" d="M43.044,62.04l0.42,0.001
		c0,0,0.222-0.019,0.271-0.019s0.357,0,0.442,0s0.426-0.137,0.46-0.137s0.699-0.429,0.699-0.429l0.144-0.191l-0.093-0.269
		l-0.154-0.371c0,0-0.238-0.171-0.289-0.188c-0.052-0.018-0.271-0.148-0.271-0.148L44.434,60.1l-0.324-0.204l-0.271-0.204
		l-0.188-0.151l-0.324-0.104L43.21,59.42l-0.085-0.034l-0.172,0.034l-0.137,0.085l0.025,0.128l0.066,0.103l0.17,0.068l0.188,0.085
		l0.222,0.085l0.272,0.137l0.255,0.104l0.205,0.167l0.17,0.212l0.104,0.231l-0.316,0.132l-0.226-0.02l-0.132-0.189l-0.119-0.085
		l-0.137-0.153l-0.153-0.086l-0.117-0.034l-0.238,0.018l-0.2,0.104l-0.021,0.186l0.032,0.188l0.025,0.308
		c0,0,0.18,0.019,0.214,0.019s0.238,0.032,0.238,0.032l0.221-0.052c0,0,0.104-0.051,0.137-0.051c0.034,0,0.19-0.044,0.241-0.044
		s0.238,0.034,0.238,0.034l0.249,0.195l-0.034,0.222l-0.27,0.139h-0.171l-0.272,0.068l-0.221,0.034l-0.369,0.031l-0.135,0.117
		L43.044,62.04L43.044,62.04z"/>
	<path fill="#004F91" stroke="#004F91" stroke-width="0.1417" stroke-miterlimit="3.8637" d="M43.259,62.671l0.034,0.238
		l0.103,0.188l0.17,0.137l0.137,0.053l0.238,0.032l0.256-0.085l0.152-0.171l0.068-0.119l-0.034-0.117c0,0,0.086-0.053-0.119-0.053
		c-0.204,0-0.323,0.019-0.323,0.019l-0.238-0.034l-0.117-0.067l-0.139-0.032h-0.151L43.259,62.671L43.259,62.671z"/>
	<path fill="#004F91" stroke="#004F91" stroke-width="0.1417" stroke-miterlimit="3.8637" d="M77.759,66.616l-0.455,0.354
		l-0.405,0.304l-0.605,0.405l-0.812,0.557l-0.759,0.61l-0.813,0.709l-0.909,0.709l-0.812,0.557l-0.712,0.606l-0.506,0.456
		c-0.206,0.077-0.456,0.102-0.456,0.102c-0.109-0.015-0.078-0.192-0.078-0.192c0.15-0.142,0.3-0.243,0.3-0.243l0.487-0.373
		l0.61-0.404l0.605-0.456l0.709-0.557l0.559-0.455l0.656-0.557l0.559-0.512l0.759-0.656l0.962-0.962l0.354-0.508l0.304-0.2h0.354
		l0.254,0.149L77.759,66.616L77.759,66.616z"/>
	<path fill="#004F91" stroke="#004F91" stroke-width="0.1417" stroke-miterlimit="3.8637" d="M73.263,70.975
		c0.098,0.081,0.04,0.198,0.04,0.198L73,71.579l-2.043,1.629l-0.49,0.396l-0.56,0.455l-0.455,0.405l-0.304,0.253
		c-0.087,0.07-0.171,0.07-0.253,0c-0.004-0.146,0.202-0.304,0.202-0.304c0.091-0.096,0.76-0.559,0.76-0.559l0.657-0.557l0.658-0.506
		l0.864-0.658l0.453-0.354l0.354-0.354l0.151-0.176C73.158,70.89,73.263,70.975,73.263,70.975L73.263,70.975z"/>
	<polygon fill="#004F91" stroke="#004F91" stroke-width="0.1417" stroke-miterlimit="3.8637" points="76.175,65.791 76.057,65.937 
		75.93,66.088 75.528,66.447 75.105,66.796 74.608,67.209 74.28,67.482 73.867,67.876 73.433,68.257 73.063,68.616 72.8,68.848 
		72.546,69.082 72.249,69.345 72.048,69.495 71.856,69.579 71.655,69.548 71.613,69.397 71.772,69.209 72.142,68.913 72.503,68.627 
		72.946,68.215 73.401,67.768 73.837,67.313 74.292,66.858 74.757,66.426 75.2,65.97 75.541,65.537 75.698,65.506 75.888,65.506 
		76.015,65.567 	"/>
	<path fill="#004F91" stroke="#004F91" stroke-width="0.1417" stroke-miterlimit="3.8637" d="M75.031,65.283l-0.23,0.138
		l-0.17,0.223l-0.224,0.224l-0.157,0.18l-0.285,0.286l-0.183,0.188l-0.188,0.224L73.35,67.01l-0.169,0.17l-0.096,0.105l-0.148,0.114
		c-0.173,0.122-0.285,0.032-0.285,0.032c-0.04-0.172,0.139-0.315,0.139-0.315l0.139-0.201l0.188-0.212l0.19-0.19l0.275-0.296
		l0.23-0.286l0.18-0.201l0.14-0.169l0.18-0.159l0.021-0.137l-0.042-0.159c0,0,0.146-0.042,0.169-0.042
		c0.021,0,0.18,0.021,0.18,0.021l0.104,0.032l0.126,0.029L75.031,65.283L75.031,65.283z"/>
	<path fill="#004F91" stroke="#004F91" stroke-width="0.1417" stroke-miterlimit="3.8637" d="M70.222,64.725l-0.391,0.172
		l-0.579,0.922l-1.125,2.017l-1.854,2.599c-0.672,1.143-1.401,1.435-1.401,1.435c-0.424,0.076-1.568,0.368-1.568,0.368l1.184-0.868
		c0.707-0.369,1.75-1.624,1.75-1.624l0.846-1.05l0.671-0.938l0.516-0.813l0.609-0.981c0.126-0.092,0.563-1.922,0.563-1.922
		l0.269,0.047l0.219,0.188l0.171,0.203L70.222,64.725L70.222,64.725z"/>
	<polygon fill="#004F91" stroke="#004F91" stroke-width="0.1417" stroke-miterlimit="3.8637" points="69.363,63.771 69.176,64.068 
		68.613,64.803 68.238,65.367 67.691,66.178 67.208,66.788 66.738,67.335 66.269,67.942 65.691,68.585 65.113,69.21 64.597,69.742 
		64.066,70.271 63.535,70.771 63.083,71.211 61.961,72.382 61.259,72.469 62.144,71.617 62.63,71.164 63.426,70.474 63.894,70.039 
		64.441,69.553 64.769,69.21 65.035,68.913 65.458,68.442 65.91,67.895 66.285,67.382 66.941,66.538 67.347,66.053 68.034,65.008 
		68.755,63.789 69.005,63.289 69.38,63.521 	"/>
	<path fill="#004F91" stroke="#004F91" stroke-width="0.1417" stroke-miterlimit="3.8637" d="M68.504,62.818l-0.267,0.406
		l-0.251,0.438l-0.593,0.75l-0.72,0.857l-1.093,1.392l-0.703,0.829l-0.471,0.563l-1.016,1.155l-0.438,0.454l-0.971,0.952
		l-0.482,0.483l-0.781,0.703c-1.223,0.988-1.599,1.016-1.599,1.016c-0.449,0.061-0.879,0.061-0.879,0.061s0.491-0.355,0.522-0.355
		s0.375-0.154,0.375-0.154l0.406-0.235l0.469-0.327l0.594-0.453l0.471-0.438l1.063-1.032l0.688-0.672l0.594-0.643l0.828-0.938
		l0.813-0.922l0.625-0.78l1.143-1.469l1.115-1.637c0,0,0.098-0.188,0.12-0.207C68.594,62.215,68.504,62.818,68.504,62.818
		L68.504,62.818z"/>
	<path fill="#004F91" stroke="#004F91" stroke-width="0.1417" stroke-miterlimit="3.8637" d="M59.361,70.754l-0.373,0.253
		l-0.5,0.345l-0.585,0.297l-0.431,0.203l-0.375,0.155L56.59,72.2l-0.686,0.16l-0.922,0.089l-0.689,0.037
		c0,0-0.988,0.237-0.023,0.396c0.046,0.007,0.563-0.031,0.563-0.031l0.732-0.079c0.738-0.028,1.578-0.39,1.609-0.39s1-0.407,1-0.407
		l1.607-1.062l1.239-1.124C61.274,69.319,59.361,70.754,59.361,70.754L59.361,70.754z"/>
	<path fill="#004F91" stroke="#004F91" stroke-width="0.1417" stroke-miterlimit="3.8637" d="M49.547,80.469
		c-1.893,0.409-2.358,0.352-2.358,0.352l-5.935,0.265c-0.938-0.029-1.422-0.205-1.422-0.205l1.422-0.175
		c1.811,0.042,7.563-0.737,7.563-0.737l2.425-0.334L49.547,80.469L49.547,80.469z"/>
	<path fill="#004F91" stroke="#004F91" stroke-width="0.1417" stroke-miterlimit="3.8637" d="M51.855,78.607l-2.544,0.526
		l-3.367,0.432c0,0-1.794,0.067-1.846,0.08c-0.175,0.043-0.473-0.063-0.473-0.063c-0.016-0.14,0.045-0.151,0.045-0.151
		s0.214-0.053,0.294-0.053s1.953-0.161,1.953-0.161l3.948-0.552l2.632-0.614l1.143-0.28L51.855,78.607L51.855,78.607z"/>
	<path fill="#004F91" stroke="#004F91" stroke-width="0.1417" stroke-miterlimit="3.8637" d="M56.397,76.574l-2.476,0.498
		l-2.513,0.489l-3.281,0.495c-0.65,0.104-1.346,0-1.346,0c-0.243,0.048-0.18-0.09-0.18-0.09c0.008-0.133,0.271-0.271,0.359-0.271
		s0.449-0.046,0.449-0.046c0.451,0.021,2.559-0.313,2.559-0.313l2.474-0.45c0,0,1.891-0.444,2.114-0.489s2.108-0.494,2.108-0.494
		L56.397,76.574L56.397,76.574z"/>
	<polygon fill="#004F91" stroke="#004F91" stroke-width="0.1417" stroke-miterlimit="3.8637" points="51.925,66.568 51.61,66.456 
		51.239,66.456 50.982,66.568 50.725,66.714 50.326,66.939 49.927,67.17 49.385,67.51 49.099,67.682 48.958,67.767 48.615,67.883 
		48.587,67.798 48.7,67.682 48.928,67.51 49.157,67.341 49.699,66.913 50.183,66.598 50.64,66.343 50.954,66.141 51.212,65.97 
		51.51,65.782 51.781,65.829 51.953,66.257 	"/>
	<path fill="#004F91" stroke="#004F91" stroke-width="0.1417" stroke-miterlimit="3.8637" d="M51.696,65.143
		c-0.058-0.028-0.371-0.086-0.371-0.086l-0.229,0.145l-0.428,0.284l-0.229,0.145l-0.456,0.257l-0.285,0.171l-0.229,0.257
		l-0.229,0.113l-0.342,0.114l-0.229,0.086c-0.045,0.061-0.199,0-0.199,0s-0.029-0.114,0.085-0.172
		c0.114-0.059,0.285-0.144,0.371-0.199s0.656-0.542,0.656-0.542l0.771-0.57l0.656-0.397c0,0,0.456-0.229,0.513-0.229
		c0.058,0,0.172-0.285,0.172-0.285l0.257-0.085l0.43,0.343c0,0-0.086,0.199-0.114,0.284c-0.028,0.086-0.171,0.314-0.171,0.314
		S51.754,65.173,51.696,65.143L51.696,65.143z"/>
	<path fill="#004F91" stroke="#004F91" stroke-width="0.1417" stroke-miterlimit="3.8637" d="M51.068,62.803l-0.285,0.172
		l-0.397,0.199l-0.57,0.343l-0.429,0.285l-0.37,0.257c0,0-0.003,0.037-0.2,0.114c-0.275,0.107-0.398,0.157-0.398,0.157
		c-0.074,0.025-0.171-0.157-0.113-0.215c0.058-0.059,0.285-0.259,0.285-0.259l0.371-0.171l0.483-0.397l0.371-0.285l0.37-0.2
		l0.314-0.228l0.257-0.145l0.197-0.086l0.173-0.229l0.027-0.37l-0.257-0.029l-0.257,0.086l-0.485,0.343l-0.654,0.399l-0.344,0.256
		l-0.257,0.2c0,0-0.257,0.143-0.343,0.143c-0.085,0-0.229,0.024-0.285,0.028c-0.193,0.016-0.199-0.144-0.199-0.144
		c0.053-0.144,0.285-0.258,0.285-0.258l0.884-0.455l0.43-0.344l0.354-0.24l0.359-0.242l0.342-0.086l0.257-0.059l0.145,0.028
		l0.229,0.482v0.457L51.068,62.803L51.068,62.803z"/>
	<path fill="#004F91" stroke="#004F91" stroke-width="0.1417" stroke-miterlimit="3.8637" d="M51.068,60.224l-0.457,0.297
		l-0.482,0.258l-0.457,0.229l-0.285,0.229l-0.399,0.229l-0.313,0.172l-0.257,0.114l-0.285,0.112c0,0-0.114-0.027-0.086-0.084
		c0.027-0.06,0.112-0.2,0.112-0.2s0.345-0.145,0.371-0.199c0.028-0.058,0.399-0.2,0.43-0.257c0.027-0.059,0.283-0.285,0.283-0.285
		s0.2-0.114,0.345-0.171c0.143-0.06,0.428-0.286,0.428-0.286s0.343-0.154,0.371-0.212s0.057-0.113,0.143-0.199
		c0.085-0.086,0.229-0.171,0.229-0.171s0.171-0.058,0.228,0.028C51.046,59.915,51.131,60,51.131,60L51.068,60.224L51.068,60.224z"/>
	<path fill="#004F91" stroke="#004F91" stroke-width="0.1417" stroke-miterlimit="3.8637" d="M64.635,59.598l-0.281,0.143
		l-0.364,0.194l-0.309,0.168l-0.256,0.143l-0.336,0.197l-0.312,0.112l-0.393,0.168l-0.311,0.084l-0.337,0.112
		c0,0-0.14,0.112-0.194,0c-0.058-0.112-0.058-0.168-0.058-0.168s0.112-0.084,0.196-0.112s0.505-0.253,0.505-0.253l0.646-0.339
		l0.531-0.309l0.426-0.227l0.309-0.196l0.28-0.11l0.253,0.11L64.635,59.598L64.635,59.598z"/>
	<polygon fill="#004F91" stroke="#004F91" stroke-width="0.1417" stroke-miterlimit="3.8637" points="64.3,58.392 64.047,58.449 
		63.626,58.727 63.202,58.98 62.724,59.346 62.333,59.544 61.406,60.019 60.648,60.332 60.367,60.526 59.946,60.639 59.721,60.555 
		59.946,60.302 60.311,60.133 61.295,59.628 61.911,59.291 62.949,58.644 63.849,58.055 64.102,57.886 64.27,58.026 	"/>
	<polygon fill="#004F91" stroke="#004F91" stroke-width="0.1417" stroke-miterlimit="3.8637" points="64.158,57.383 63.795,57.383 
		63.54,57.605 63.229,57.886 62.949,58.084 62.528,58.337 61.939,58.674 61.321,58.98 60.732,59.233 59.974,59.569 59.415,59.824 
		58.852,60.049 58.599,60.102 58.46,59.965 58.545,59.767 58.992,59.569 59.553,59.375 60.62,58.842 61.686,58.307 62.472,57.802 
		63.006,57.495 63.259,57.327 63.51,57.185 63.849,56.932 64.132,56.878 	"/>
	<path fill="#004F91" stroke="#004F91" stroke-width="0.1417" stroke-miterlimit="3.8637" d="M63.933,56.176l-0.479,0.112
		l-0.309,0.141l-0.533,0.31l-0.646,0.394l-0.758,0.449l-0.813,0.394l-0.562,0.311l-0.729,0.362l-0.477,0.227l-0.617,0.225
		l-0.396,0.168l-0.393,0.112l-0.421,0.027l-0.337,0.027l-0.28-0.057l0.084-0.168c0,0,0.196-0.084,0.337-0.112
		c0.143-0.026,0.813-0.168,0.813-0.168l1.038-0.337l0.813-0.394l1.15-0.675l1.206-0.674l0.646-0.337l0.617-0.364
		c0,0,0.281-0.169,0.337-0.194c0.057-0.028,0.169-0.143,0.196-0.197c0.026-0.055,0.11-0.364,0.11-0.364l0.199,0.143l0.143,0.278
		L63.933,56.176L63.933,56.176z"/>
	<path fill="#004F91" stroke="#004F91" stroke-width="0.1417" stroke-miterlimit="3.8637" d="M51.496,63.973l-0.342,0.06
		l-0.257,0.171l-0.457,0.257l-0.342,0.229l-0.343,0.229l-0.344,0.172l-0.143,0.143l-0.286,0.229l-0.228,0.172
		c0,0-0.229,0.085-0.285,0.085c-0.06,0-0.2-0.028-0.2-0.028s0-0.171,0.057-0.197c0.06-0.029,0.314-0.229,0.314-0.229l0.371-0.229
		l0.313-0.258l0.259-0.197l0.343-0.229l0.37-0.199l0.283-0.229l0.174-0.114l0.171-0.114l0.171-0.143l0.313,0.086l0.172,0.114
		L51.496,63.973L51.496,63.973z"/>
	<path fill="#004F91" stroke="#004F91" stroke-width="0.1417" stroke-miterlimit="3.8637" d="M51.496,63.973l-0.342,0.06
		l-0.257,0.171l-0.457,0.257l-0.342,0.229l-0.343,0.229l-0.344,0.172l-0.143,0.143l-0.286,0.229l-0.228,0.172
		c0,0-0.241,0.099-0.297,0.108c-0.188,0.029-0.188-0.225-0.134-0.252c0.06-0.028,0.314-0.229,0.314-0.229l0.371-0.229l0.313-0.259
		l0.259-0.197l0.343-0.229l0.37-0.199l0.283-0.229l0.174-0.114l0.171-0.114l0.171-0.143l0.313,0.086l0.172,0.114L51.496,63.973
		L51.496,63.973z"/>
	<path fill="#004F91" d="M49.495,85.827l0.146-0.221l0.153-0.279l0.179-0.153l0.153-0.153l0.104-0.302
		c0.044-0.023-0.259,0.098-0.259,0.098l-0.281,0.128l-0.179,0.128l-0.207,0.133l-0.132,0.756L49.495,85.827L49.495,85.827z"/>
	<path fill="#004F91" d="M21.002,99.387c0.422-0.317,0.509-0.939,0.189-1.363c-0.327-0.435-0.939-0.509-1.363-0.189
		c-0.435,0.327-0.519,0.929-0.189,1.363C19.957,99.618,20.566,99.716,21.002,99.387L21.002,99.387z"/>
	<polygon fill="#004F91" points="29.797,111.112 29.342,110.73 28.62,111.592 25.26,108.769 33.139,106.769 33.374,106.493 
		28.886,102.727 29.098,102.475 28.644,102.094 27.458,103.51 27.911,103.89 28.464,103.232 31.624,105.885 23.758,107.92 
		23.533,108.183 28.651,112.477 	"/>
	<path fill="#004F91" d="M43.89,112.901l-2.899-1.605l-0.318,0.577l1.082,0.6l-1.999,3.606c-0.647,1.169-1.893,1.572-2.975,0.974
		c-1.053-0.583-1.313-1.783-0.654-2.966l2.007-3.621l1.097,0.605l0.319-0.575l-3.274-1.815l-0.319,0.577l1.098,0.608l-2.175,3.924
		c-0.752,1.354-0.181,2.975,1.363,3.831c1.646,0.911,3.361,0.468,4.228-1.093l2.021-3.647l1.081,0.6L43.89,112.901L43.89,112.901z"
		/>
	<path fill="#004F91" d="M51.77,123.352c1.521,0.379,2.576-0.104,2.884-1.338c0.299-1.2-0.399-2.14-1.926-2.571
		c1.168,0.291,2.188-0.186,2.427-1.146c0.28-1.12-0.403-2.056-1.766-2.396l-3.904-0.974l-0.146,0.593l1.2,0.299l-1.55,6.212
		l-1.198-0.302l-0.147,0.595L51.77,123.352L51.77,123.352z M50.935,119.406l1.152,0.286c1.057,0.265,1.457,0.907,1.21,1.899
		c-0.229,0.912-0.89,1.24-1.944,0.978l-1.136-0.282L50.935,119.406L50.935,119.406z M51.742,116.174l1.138,0.283
		c0.782,0.193,1.089,0.747,0.89,1.548c-0.204,0.814-0.848,1.217-1.646,1.017l-1.023-0.255L51.742,116.174L51.742,116.174z"/>
	<polygon fill="#004F91" points="66.064,123.35 65.457,123.33 65.426,124.204 62.624,124.104 62.722,121.219 64.834,121.295 
		64.804,122.119 65.416,122.139 65.494,119.847 64.885,119.843 64.856,120.635 62.746,120.56 62.843,117.807 65.547,117.901 
		65.515,118.76 66.109,118.781 66.175,116.933 65.563,116.913 65.552,117.243 60.377,117.061 60.354,117.673 61.592,117.716 
		61.368,124.109 60.133,124.066 60.11,124.677 66.011,124.885 	"/>
	<path fill="#004F91" d="M79.334,122.76l-0.456,0.072c-0.358,0.058-0.699-0.089-1.041-0.453l-1.865-1.978
		c1.044-0.363,1.585-1.27,1.412-2.359c-0.209-1.319-1.167-1.886-2.747-1.636l-3.845,0.607l0.104,0.651l1.222-0.193l0.993,6.272
		l-1.222,0.191l0.096,0.604l3.684-0.583l-0.098-0.604l-1.222,0.193l-0.428-2.704l0.798-0.127l2.158,2.347
		c0.506,0.557,0.646,0.602,1.361,0.486l1.189-0.188L79.334,122.76L79.334,122.76z M73.354,117.277l1.14-0.181
		c0.85-0.134,1.386,0.299,1.528,1.211c0.144,0.896-0.268,1.579-1.05,1.703l-1.156,0.183L73.354,117.277L73.354,117.277z"/>
	<polygon fill="#004F91" points="89.382,118.045 88.827,118.258 89.187,119.197 86.6,120.188 84.343,114.307 85.499,113.862 
		85.26,113.249 81.78,114.585 82.017,115.2 83.173,114.758 85.448,120.685 84.294,121.13 84.511,121.699 89.978,119.599 	"/>
	<polygon fill="#004F91" points="97.026,114.994 95.967,115.631 92.695,110.186 93.757,109.551 93.417,108.983 90.22,110.903 
		90.56,111.469 91.621,110.833 94.891,116.274 93.832,116.914 94.145,117.436 97.342,115.515 	"/>
	<polygon fill="#004F91" points="103.318,101.835 104.222,100.991 103.772,100.509 101.347,102.768 101.799,103.252 
		102.716,102.395 105.931,105.846 98.876,105.076 97.318,106.525 97.768,107.01 98.613,106.221 99.146,106.309 103.185,110.64 
		102.28,111.483 102.697,111.93 105.121,109.671 104.707,109.223 103.79,110.079 100.469,106.519 107.794,107.357 108.155,107.02 	
		"/>
	<path fill="#004F91" d="M110.791,97.475c-0.429-0.311-1.051-0.212-1.359,0.216c-0.319,0.439-0.211,1.051,0.216,1.358
		c0.44,0.32,1.039,0.226,1.359-0.215C111.316,98.409,111.23,97.797,110.791,97.475L110.791,97.475z"/>
	<polygon fill="#004F91" points="14.885,82.249 15.387,83.379 9.542,85.98 9.037,84.85 8.479,85.099 9.996,88.506 10.553,88.258 
		10.057,87.141 12.635,85.995 14.467,90.106 11.888,91.256 11.385,90.126 10.828,90.374 12.344,93.777 12.902,93.531 12.398,92.399 
		18.245,89.798 18.75,90.927 19.306,90.678 17.791,87.272 17.232,87.52 17.735,88.651 15.068,89.841 13.237,85.725 15.904,84.539 
		16.4,85.652 16.959,85.406 15.441,82.001 	"/>
	<path fill="#004F91" d="M5.384,69.999l0.519,3.273l0.652-0.104l-0.193-1.222l4.072-0.646c1.319-0.209,2.404,0.521,2.598,1.743
		c0.188,1.188-0.598,2.132-1.934,2.344l-4.089,0.647l-0.196-1.238L6.16,74.9l0.586,3.698l0.652-0.104l-0.196-1.238l4.433-0.702
		c1.532-0.242,2.455-1.688,2.179-3.434c-0.294-1.857-1.701-2.938-3.461-2.659l-4.121,0.653l-0.192-1.224L5.384,69.999L5.384,69.999z
		"/>
	<polygon fill="#004F91" points="13.384,53.961 13.231,55.186 6.928,54.415 7.079,53.185 6.426,53.104 6.111,55.66 11.321,58.974 
		5.469,60.883 5.169,63.339 5.823,63.419 5.973,62.189 12.277,62.965 12.127,64.191 12.732,64.266 13.135,60.975 12.53,60.9 
		12.381,62.13 7.239,61.499 13.435,59.482 7.611,55.76 13.079,56.431 12.928,57.661 13.534,57.733 13.988,54.035 	"/>
	<path fill="#004F91" d="M16.889,45.266c0.562-1.464,0.209-2.569-0.979-3.023c-1.153-0.443-2.173,0.138-2.785,1.598
		c0.432-1.124,0.083-2.194-0.843-2.549c-1.076-0.414-2.09,0.149-2.593,1.461L8.25,46.51l0.567,0.219l0.444-1.152l5.975,2.293
		l-0.441,1.153l0.567,0.22L16.889,45.266L16.889,45.266z M12.869,45.613l0.428-1.107c0.391-1.018,1.078-1.336,2.031-0.969
		c0.879,0.337,1.123,1.029,0.732,2.048l-0.419,1.094L12.869,45.613L12.869,45.613z M9.76,44.42l0.42-1.093
		c0.289-0.755,0.874-0.989,1.645-0.694c0.785,0.302,1.104,0.989,0.811,1.76l-0.379,0.985L9.76,44.42L9.76,44.42z"/>
	<path fill="#004F91" d="M22.208,35.911c1.19-1.703,0.69-4.27-1.077-5.507c-1.743-1.223-4.313-0.806-5.503,0.897
		c-1.211,1.729-0.738,4.275,1.018,5.505C18.428,38.056,20.996,37.639,22.208,35.911L22.208,35.911z M16.184,31.714
		c0.795-1.135,2.641-1.211,4.154-0.151c1.524,1.068,2.096,2.816,1.291,3.965c-0.794,1.137-2.646,1.188-4.171,0.119
		C15.96,34.595,15.39,32.848,16.184,31.714L16.184,31.714z"/>
	<polygon fill="#004F91" points="30.422,23.843 29.993,24.257 30.692,24.978 28.699,26.904 24.322,22.373 25.213,21.512 
		24.755,21.039 22.072,23.629 22.53,24.102 23.421,23.243 27.833,27.81 26.941,28.671 27.366,29.108 31.578,25.043 	"/>
	<path fill="#004F91" d="M34.339,22.839l3.313-2.072c1.932-1.206,2.521-3.5,1.365-5.347c-1.127-1.804-3.502-2.305-5.404-1.115
		L30.3,16.376l0.324,0.518l1.049-0.653l3.392,5.427l-1.049,0.656L34.339,22.839L34.339,22.839z M36.1,20.959l-3.34-5.344l1.104-0.69
		c1.287-0.804,3.017-0.25,3.958,1.261c0.944,1.512,0.668,3.278-0.633,4.092L36.1,20.959L36.1,20.959z"/>
	<polygon fill="#004F91" points="49.474,14.688 48.149,15.144 46.083,9.14 48.358,8.355 48.659,9.229 49.236,9.031 48.613,7.222 
		48.036,7.422 48.143,7.731 42.404,9.71 42.298,9.396 41.735,9.592 42.358,11.398 42.921,11.207 42.619,10.334 44.896,9.55 
		46.965,15.553 45.637,16.01 45.838,16.588 49.675,15.265 	"/>
	<polygon fill="#004F91" points="56.307,9.176 53.216,9.775 53.454,11.008 56.548,10.406 	"/>
	<path fill="#004F91" d="M70.217,5.384l-3.314-0.058L66.89,5.984l1.237,0.021l-0.072,4.123c-0.023,1.336-0.931,2.275-2.168,2.255
		c-1.203-0.021-1.995-0.958-1.972-2.312l0.07-4.141l1.253,0.021l0.014-0.659L61.51,5.228l-0.012,0.659l1.253,0.022l-0.078,4.483
		c-0.027,1.551,1.237,2.711,3.004,2.742c1.88,0.032,3.188-1.166,3.219-2.947l0.073-4.172l1.234,0.021L70.217,5.384L70.217,5.384z"/>
	<polygon fill="#004F91" points="83.7,8.763 84.894,9.085 85.065,8.447 81.863,7.59 81.692,8.226 82.903,8.551 81.682,13.106 
		78.596,6.715 76.543,6.164 76.371,6.801 77.486,7.099 77.693,7.598 76.161,13.317 74.967,12.999 74.808,13.589 78.01,14.447 
		78.17,13.855 76.959,13.533 78.218,8.833 81.386,15.488 81.864,15.616 	"/>
	<polygon fill="#004F91" points="91.034,18.984 89.941,18.404 92.924,12.799 94.015,13.379 94.325,12.797 91.034,11.047 
		90.723,11.629 91.816,12.21 88.836,17.815 87.742,17.234 87.457,17.773 90.749,19.523 	"/>
	<polygon fill="#004F91" points="103.339,19.648 103.891,20.065 104.291,19.54 102.38,18.1 101.981,18.628 102.732,19.191 
		98.006,22.012 99.374,16.662 100.203,17.288 100.599,16.76 98.046,14.835 97.647,15.36 98.294,15.847 96.355,23.351 96.673,23.591 
			"/>
	<polygon fill="#004F91" points="107.571,31.708 107.165,31.255 106.513,31.84 104.636,29.756 106.782,27.824 108.194,29.392 
		107.583,29.943 107.99,30.396 109.694,28.863 109.273,28.422 108.685,28.952 107.272,27.383 109.319,25.539 111.131,27.55 
		110.492,28.124 110.889,28.563 112.262,27.329 111.854,26.875 111.609,27.094 108.143,23.247 107.689,23.654 108.517,24.575 
		103.761,28.855 102.933,27.936 102.48,28.345 106.431,32.732 	"/>
	<path fill="#004F91" d="M113.422,42.984l-0.226-0.402c-0.176-0.317-0.152-0.688,0.07-1.132l1.218-2.432
		c0.701,0.856,1.736,1.058,2.702,0.521c1.169-0.648,1.374-1.742,0.598-3.144l-1.887-3.402l-0.577,0.317l0.602,1.082l-5.556,3.079
		l-0.601-1.082l-0.533,0.296l1.809,3.261l0.532-0.297l-0.6-1.082l2.395-1.325l0.394,0.706l-1.467,2.832
		c-0.351,0.664-0.344,0.813,0.01,1.445l0.584,1.055L113.422,42.984L113.422,42.984z M116.528,35.493l0.562,1.01
		c0.416,0.75,0.191,1.401-0.615,1.85c-0.793,0.44-1.575,0.289-1.959-0.401l-0.567-1.024L116.528,35.493L116.528,35.493z"/>
	<path fill="#004F91" d="M114.844,47.482c-0.146,0.726-0.135,1.347,0.059,1.94c0.423,1.303,1.633,1.984,2.812,1.603
		c1.021-0.332,1.397-0.869,1.714-2.465c0.082-0.391,0.179-0.839,0.281-1.322c0.141-0.636,0.305-0.88,0.713-1.013
		c0.643-0.209,1.209,0.146,1.446,0.882c0.14,0.426,0.15,0.732,0.021,1.451l-0.785,0.255l0.189,0.58l1.882-0.609l-0.188-0.581
		l-0.393,0.128c0.104-0.537,0.063-1.027-0.104-1.545c-0.406-1.255-1.623-1.953-2.753-1.587c-0.925,0.302-1.319,0.949-1.563,2.556
		c-0.235,1.516-0.506,2.072-1.104,2.266c-0.61,0.199-1.232-0.223-1.487-1.008c-0.176-0.533-0.177-1.018-0.003-1.768l0.814-0.268
		l-0.188-0.58l-1.961,0.639l0.188,0.581L114.844,47.482L114.844,47.482z"/>
	<polygon fill="#004F91" points="117.916,59.73 117.743,58.507 124.031,57.623 124.204,58.847 124.857,58.757 124.34,55.063 
		123.684,55.156 123.857,56.382 117.568,57.264 117.396,56.041 116.793,56.126 117.31,59.815 	"/>
	<polygon fill="#004F91" points="118.052,69.348 118.101,67.948 124.448,68.17 124.364,70.577 123.44,70.545 123.421,71.152 
		125.333,71.22 125.353,70.609 125.023,70.599 125.235,64.534 125.564,64.546 125.587,63.952 123.675,63.885 123.652,64.477 
		124.576,64.51 124.492,66.917 118.145,66.694 118.194,65.295 117.585,65.271 117.442,69.328 	"/>
	<path fill="#004F91" d="M115.652,81.686l0.171-0.688l7.776-1.189l0.104-0.416l-6.273-4.828l0.149-0.606l-0.592-0.147l-0.559,2.24
		l0.592,0.147l0.224-0.896l1.559,1.188l-0.728,2.911l-1.925,0.285l0.176-0.704l-0.592-0.146l-0.671,2.688L115.652,81.686
		L115.652,81.686z M124.861,82.315c0.448,0.112,0.908-0.164,1.018-0.597c0.11-0.448-0.164-0.908-0.612-1.02
		c-0.433-0.107-0.893,0.169-1.004,0.615C124.153,81.75,124.429,82.21,124.861,82.315L124.861,82.315z M125.567,79.482
		c0.448,0.112,0.908-0.164,1.019-0.597c0.109-0.447-0.165-0.907-0.613-1.02c-0.432-0.107-0.894,0.169-1.004,0.615
		C124.859,78.917,125.135,79.377,125.567,79.482L125.567,79.482z M119.357,76.916l2.516,1.919l-3.108,0.466L119.357,76.916
		L119.357,76.916z"/>
	<polygon fill="#004F91" points="112.222,89.674 112.814,88.401 118.57,91.087 117.552,93.268 116.717,92.88 116.459,93.431 
		118.191,94.241 118.449,93.686 118.15,93.549 120.717,88.047 121.014,88.185 121.265,87.646 119.531,86.84 119.28,87.378 
		120.118,87.767 119.1,89.951 113.344,87.266 113.937,85.996 113.385,85.736 111.67,89.416 	"/>
</g>
</svg>
