<?xml version="1.0" encoding="utf-8"?>
<!-- Generator: Adobe Illustrator 16.0.0, SVG Export Plug-In . SVG Version: 6.00 Build 0)  -->
<!DOCTYPE svg PUBLIC "-//W3C//DTD SVG 1.1//EN" "http://www.w3.org/Graphics/SVG/1.1/DTD/svg11.dtd">
<svg version="1.1" id="Ebene_1" xmlns="http://www.w3.org/2000/svg" xmlns:xlink="http://www.w3.org/1999/xlink" x="0px" y="0px"
	 width="1106.154px" height="425.564px" viewBox="0 0 1106.154 425.564" enable-background="new 0 0 1106.154 425.564"
	 xml:space="preserve">
<g>
	<path fill-rule="evenodd" clip-rule="evenodd" fill="#FFFFFF" d="M553.079,425.564c-182.309,0-364.62-0.024-546.928,0.129
		c-5.114,0.006-6.273-1.151-6.267-6.267C0.045,281.444,0.043,143.462-0.118,5.48c-0.005-4.67,0.917-5.587,5.586-5.585
		c365.073,0.14,730.147,0.14,1095.22,0c4.669-0.001,5.593,0.914,5.587,5.584c-0.161,138.209-0.161,276.419,0,414.628
		c0.006,4.67-0.916,5.591-5.587,5.586C918.152,425.542,735.615,425.564,553.079,425.564z"/>
	<path fill-rule="evenodd" clip-rule="evenodd" fill="#1B181C" d="M108.931,133.489c6.873-25.371,13.713-50.751,20.669-76.098
		c0.665-2.424,1.757-4.307,5.283-4.309c11.248-0.01,11.378-0.278,15.098,11.591c7.151,22.81,14.139,45.67,21.444,69.322
		c2.053-10.165,4.224-19.721,5.861-29.367c1.635-9.622,2.293-19.427,4.269-28.967c0.89-4.298-1.25-4.465-3.778-4.638
		c-3.849-0.262-7.604,0.059-7.335-5.667c0.242-5.147,0.937-9.517,7.115-10.803c13.625-2.834,27.382-0.586,41.053-1.345
		c0.955-0.053,1.811-0.04,2.357,0.839c1.709,2.747-0.648,14.883-3.563,15.359c-8.118,1.325-8.993,7.627-10.086,13.526
		c-2.947,15.895-5.336,31.892-8.214,47.8c-3.217,17.783-6.774,35.498-9.61,53.358c-0.693,4.36-3.948,9.21-10.347,8.25
		c-0.223-0.035-0.455-0.006-0.682-0.006c-19.002,0.008-18.698-0.065-23.064-18.186c-4.775-19.82-10.181-39.49-15.359-59.213
		c-0.156-0.595-0.841-1.051-1.657-2.023c-6.21,23.551-12.351,46.565-18.316,69.625c-1.811,7.002-4.981,9.779-12.297,9.796
		c-3.409,0.008-6.914-0.507-10.207,0.113c-5.869,1.104-8.078-1.881-8.945-6.837c-3.195-18.252-6.193-36.54-9.545-54.764
		c-3.456-18.79-7.295-37.511-10.817-56.29c-0.527-2.813-1.838-3.639-4.477-3.657c-2.976-0.021-6.424,0.191-6.46-4.305
		c-0.036-4.471-1.147-9.597,4.567-11.6c3.003-1.052,6.31-1.648,9.492-1.702c11.589-0.196,23.187,0.088,34.773-0.175
		c3.588-0.082,4.445,0.855,4.438,4.398c-0.021,10.368-0.953,12.102-11.513,14.655c-2.887,0.698-2.399,1.962-2.008,3.683
		c3.774,16.578,6.669,33.32,9.31,50.108C106.781,128.512,109.11,130.587,108.931,133.489z"/>
	<path fill-rule="evenodd" clip-rule="evenodd" fill="#1B181C" d="M419.956,119.98c10.944,4.297,18.092,11.869,21.398,23.313
		c3.961,13.712-3.58,33.863-15.956,40.947c-9.519,5.448-19.605,8.36-30.735,8.179c-18.619-0.304-37.249-0.017-55.872-0.166
		c-2.42-0.019-6.641,1.599-7.012-1.239c-0.504-3.854-2.311-8.561,1.524-12.146c1.441-1.346,2.633-3.032,4.779-3.348
		c6.709-0.984,7.217-5.277,7.148-11.166c-0.333-28.614-0.379-57.238,0.042-85.851c0.084-5.739-2.357-7.124-6.85-7.522
		c-3.208-0.285-6.734,0.472-7.037-4.55c-0.304-5.047,0.76-9.598,5.459-11.813c2.791-1.314,6.351-1.315,9.569-1.345
		c13.854-0.132,27.728-0.495,41.56,0.071c12.711,0.521,25.083,2.493,35.859,10.663c8.922,6.764,13.583,19.706,11.759,30.66
		C433.804,105.426,428.841,113.379,419.956,119.98z"/>
	<path fill-rule="evenodd" clip-rule="evenodd" fill="#C30A7B" d="M791.081,123.063c-0.14-9.66,0.212-19.024,3.798-28.436
		c4.064-10.673,12.336-16.423,21.91-17.899c16.638-2.564,33.61-4.14,50.271,2.22c9.316,3.558,14.273,9.809,17.059,18.837
		c5.234,16.973,5.043,33.97,0.28,50.898c-3.086,10.974-9.969,17.833-21.672,20.701c-16.946,4.153-33.751,3.917-50.235-0.511
		c-12.535-3.366-21.191-17.564-21.4-31.493C791.021,132.609,791.081,127.835,791.081,123.063z"/>
	<path fill-rule="evenodd" clip-rule="evenodd" fill="#6AB02F" d="M989.311,75.042c12.148-0.412,23.83,0.172,34.352,7.902
		c7.255,5.33,9.976,12.581,11.458,20.543c2.906,15.598,2.913,31.418-1.355,46.654c-3.013,10.76-11.625,17.903-22.469,19.973
		c-16.329,3.116-32.909,3.507-49.194-1.236c-12.634-3.68-18.448-13.809-20.64-25.219c-2.901-15.099-3.055-30.458,1.722-45.638
		c3.979-12.646,12.681-18.695,24.846-21.715C975.144,74.539,982.229,75.424,989.311,75.042z"/>
	<path fill-rule="evenodd" clip-rule="evenodd" fill="#0281B5" d="M690.206,75.07c12.361-0.417,24.202,0.176,35.012,7.957
		c6.851,4.93,9.659,11.93,10.891,18.814c2.867,16.049,3.381,32.267-1.592,48.375c-3.461,11.207-11.226,17.539-21.598,19.64
		c-16.483,3.339-33.27,3.973-49.738-1.142c-12.755-3.961-18.508-14.057-20.613-25.925c-2.464-13.897-2.396-27.923,1.043-41.978
		c3.401-13.906,12.153-21.126,25.328-24.482C675.993,74.533,683.11,75.207,690.206,75.07z"/>
	<path fill-rule="evenodd" clip-rule="evenodd" fill="#1B181C" d="M264.83,170.513c10.913,0,21.591-0.178,32.256,0.096
		c3.766,0.097,5.841-0.731,6.942-4.611c0.459-1.617-1.896-5.249,2.291-4.972c4.255,0.282,9.109-1.825,12.409,2.924
		c1.9,2.735,1.835,5.749,1.801,8.811c-0.07,6.323,2.313,14.933-0.876,18.368c-3.679,3.963-12.352,1.116-18.847,1.155
		c-22.489,0.135-44.981-0.028-67.47,0.127c-3.94,0.026-4.922-0.708-5.882-5.125c-2.362-10.856,4.719-18.025,8.666-26.205
		c7.073-14.661,15.309-28.76,23.009-43.119c6.897-12.864,13.75-25.753,20.569-38.658c1.395-2.64,2.153-4.616-2.562-4.383
		c-8.385,0.414-16.806,0.183-25.21,0.086c-3.147-0.035-5.191,0.653-5.088,4.394c0.083,3.016,0.14,6.248-4.234,6.556
		c-5.166,0.362-10.313-0.335-12.046-5.809c-2.521-7.959-1.167-16.379-1.453-24.607c-0.088-2.529,1.254-2.338,2.947-2.337
		c26.806,0.027,53.613,0.03,80.419,0.002c1.471-0.001,2.419-0.043,2.655,1.946c0.995,8.369,0.54,16.356-3.492,24.092
		c-15.125,29.021-30.039,58.15-45.021,87.246C266.028,167.627,265.571,168.831,264.83,170.513z"/>
	<path fill-rule="evenodd" clip-rule="evenodd" fill="#221F23" d="M90.03,291.9c-0.739-4.241,0.677-8.648,1.781-12.209
		c1.151-3.715-0.48-5.183-2.449-7.938c3.871,0,6.872,0,10.554,0c-6.599,6.875-4.768,15.748-6.911,23.511
		c-0.65,2.353-1.86,4.91-1.595,7.543c0.218,2.167-0.764,3.784-2.659,3.906c-2.195,0.143-2.44-2.59-2.773-3.846
		c-1.799-6.751-3.085-13.639-4.83-21.8c-4.147,6.441-4.014,12.941-6.104,18.664c-0.141,0.39,0.22,1.001,0.032,1.329
		c-1.133,1.965-1.237,5.453-3.708,5.434c-1.865-0.013-1.318-3.312-1.935-5.101c-2.27-6.568-2.402-13.497-3.971-20.158
		c-0.536-2.273-0.91-4.676-1.941-6.725c-1.518-3.013-1.743-2.942,1.537-3.057c2.255-0.076,4.517-0.015,6.802-0.015
		c-3.521,4.341-3.016,16.13,1.175,23.236c1.628-6.723,3.354-13.11,4.627-19.586c0.357-1.815,1.064-3.127,2.501-3.491
		c2.305-0.586,2.299,2.171,2.572,3.102c1.786,6.111,3.101,12.36,4.569,18.564c0.087,1.216-0.293,3.114,1.726,2.583
		C91.098,295.305,89.61,293.224,90.03,291.9z"/>
	<path fill-rule="evenodd" clip-rule="evenodd" fill="#272428" d="M553.494,306.071c-6.251,1.926-8.843,0.896-8.001-5.059
		c0.471-3.337-0.073-6.804,0.128-10.195c0.222-3.747-0.572-6.164-5.07-5.774c-3.612,0.314-6.43,1.126-5.891,5.651
		c0.61,5.125-2.055,10.819,3.661,15.318c-6.048,1.925-8.631,0.999-7.831-5.176c0.463-3.57-0.1-7.262,0.129-10.877
		c0.252-3.983-1.629-5.237-5.247-4.882c-3.175,0.309-6.425,0.708-5.665,5.107c0.864,5.001-3.125,11.365,4.146,14.486
		c-3.089,4.072-7.245,1.764-10.804,2.165c-1.876,0.212-1.771-1.327-0.774-2.739c4.369-6.187,4.661-15.969,0.692-21.67
		c6.797,3.196,13.395-4.7,20.419,0.464c1.356,0.998,3.69-0.669,5.561-1.304c6.261-2.126,10.28,1.014,10.808,7.559
		C550.204,294.719,547.32,300.889,553.494,306.071z"/>
	<path fill-rule="evenodd" clip-rule="evenodd" fill="#242125" d="M472.172,359.24c3.367,3.948,8.036,1.319,11.896,3.396
		c4.641,2.495,7.367,6.647,5.594,11.434c-1.417,3.827-11.826,6.976-16.758,5.067c-4.521-1.748-6.319-7.07-4.186-12.384
		c0.402-1.001,0.871-15.646,0.543-16.966c-0.813-3.27,3.943-9.833,7.673-10.146c3.598-0.303,7.26-0.343,10.848-0.01
		c1.358,0.125,4.982,0.856,0.9,3.323c-1.267,0.765,0.502,1.846,0.724,2.801c1.408,6.033-2.002,11.673-9.245,11.685
		C477.43,357.444,474.167,356.001,472.172,359.24z"/>
	<path fill-rule="evenodd" clip-rule="evenodd" fill="#232024" d="M587.521,287.021c5.321,3.683,7.73,8.471,4.965,14.388
		c-1.942,4.155-18.885,7.827-22.784,5.409c-1.385-0.858-1.151-2.163-0.083-2.646c4.282-1.936,3.164-5.658,3.219-8.975
		c0.07-4.312,0.084-8.625-0.003-12.935c-0.08-3.979,1.657-8.681-3.888-10.821c4.297,0,8.602,0.145,12.892-0.041
		c4.397-0.19,8.407,1.354,9.867,5.166C593.146,280.329,592.16,284.592,587.521,287.021z"/>
	<path fill-rule="evenodd" clip-rule="evenodd" fill="#2C282D" d="M265.968,283.516c3.028-1.117,5.327-3.165,8.393-2.515
		c3.792,0.803,7.204,1.8,6.688,6.986c-0.357,3.595-0.167,7.256-0.021,10.878c0.048,1.198-0.945,2.728,0.591,3.622
		c1.301,0.759,3.687,0.709,2.588,3.15c-0.786,1.745-2.668,1.435-4.2,1.232c-2.396-0.314-3.237-1.78-3.142-4.21
		c0.16-4.074-0.155-8.174,0.079-12.241c0.207-3.616-0.854-5.668-4.796-5.337c-3.336,0.281-6.846,0.49-6.15,5.318
		c0.734,5.105-2.424,10.903,3.197,15.075c-2.154,2.414-4.524,1.192-6.551,1.367c-1.498,0.131-4.029,0.189-4.38-0.542
		c-0.982-2.053,1.182-2.702,2.602-3.783c1.757-1.341,0.869-26.706,0.088-28.831c-0.531-1.446-4.012,0.307-2.258-2.408
		c1.391-2.152,3.696-1.043,5.615-1.153c2.184-0.125,1.654,1.558,1.656,2.819C265.973,276.339,265.968,279.732,265.968,283.516z"/>
	<path fill-rule="evenodd" clip-rule="evenodd" fill="#282428" d="M393.167,363.304c-2.68,1.509-4.976,0.815-7.149,0.801
		c-1.32-0.009-3.526,1.223-3.931-1.107c-0.388-2.223,1.743-1.224,2.829-1.607c2.223-0.786,0.987-2.705,1.021-4.046
		c0.149-5.658,0.085-11.324,0.055-16.986c-0.021-4.005,0.998-8.407-4.319-10.792c3.208,0.016,6.896-3.409,8.249,1.409
		c0.864,3.074,0.162,6.591,0.162,10.094c11.896-3.962,14.761-1.712,15.166,10.133c0.121,3.542-2.574,7.998,2.102,10.818
		c0.263,0.159,0.117,1.639,0.019,1.654c-1.508,0.253-3.036,0.401-4.565,0.497c-2.097,0.132-1.82-1.328-1.809-2.695
		c0.034-4.303-0.176-8.616,0.054-12.907c0.215-4.007-1.71-4.873-5.277-4.931c-3.819-0.063-6.342,0.805-5.642,5.15
		C390.924,353.71,387.474,359.345,393.167,363.304z"/>
	<path fill-rule="evenodd" clip-rule="evenodd" fill="#282529" d="M157.693,328.78c2.841,0.677,8.186-0.546,7.418,6.386
		c-0.12,1.088-0.47,1.771-1.522,1.651c-0.463-0.053-0.937-0.697-1.264-1.17c-3.031-4.394-10.259-4.398-13.037-0.059
		c-1.188,1.857-0.59,3.099,0.631,4.709c2.372,3.127,5.996,4.232,9.112,6.088c6.516,3.883,9.274,8.63,7.114,13.143
		c-1.957,4.088-10.745,7.664-15.584,5.481c-2.599-1.173-7.641,0.23-7.419-5.364c0.065-1.646,1.081-2.342,1.798-3.404
		c0.781,0.662,1.865,1.169,2.293,2.011c2.977,5.843,8.24,3.701,11.998,2.421c3.643-1.241,4.695-4.921,1.286-8.649
		c-2.464-2.696-5.76-3.746-8.688-5.474c-4.455-2.629-8.634-5.719-7.152-11.327C146.175,329.548,151.347,328.527,157.693,328.78z"/>
	<path fill-rule="evenodd" clip-rule="evenodd" fill="#29262A" d="M672.877,306.669c6.772-7.384,6.794-19.283-0.998-24.582
		c7.338,0.709,12.717,0.084,18.086-0.927c4.225-0.795,6.555,2.381,6.931,6.472c0.27,2.923,0.21,5.897,0.04,8.833
		c-0.211,3.65-0.547,7.218,4.391,7.838c-2.205,3.587-5.342,3.153-7.624,2.298c-2.079-0.779-0.635-3.622-0.76-5.522
		c-0.224-3.385-0.218-6.805-0.02-10.193c0.216-3.691-0.459-6.164-4.99-5.85c-4.057,0.281-6.792,1.563-5.939,6.244
		c0.773,4.252-1.863,8.873,1.836,12.893c1.511,1.641-0.898,2.693-2.007,2.786C679.2,307.178,676.529,306.833,672.877,306.669z"/>
	<path fill-rule="evenodd" clip-rule="evenodd" fill="#2D292D" d="M204.589,297.009c0-2.042,0.078-4.086-0.019-6.122
		c-0.151-3.17-0.6-6.511-4.939-5.714c-3.359,0.617-8.452-0.042-7.278,6.109c0.829,4.355-2.531,9.636,3.263,13.011
		c1.686,0.983-0.829,2.328-1.545,2.439c-2.189,0.341-4.463,0.202-6.701,0.14c-1.03-0.026-2.369,0.651-2.991-0.738
		c-0.599-1.336,0.603-1.995,1.341-2.772c2.639-2.782,4.004-15.123,1.411-18.02c-2.378-2.654-1.677-3.158,1.223-2.945
		c3.877,0.284,7.484-0.015,11.329-1.244c4.862-1.554,8.117,2.471,9.056,9.229c0.652,4.691-2.235,9.865,2.094,14.182
		c0.69,0.689-1.14,2.521-2.735,2.354c-1.47-0.152-3.913,0.872-3.541-2.434c0.277-2.463,0.055-4.979,0.055-7.474
		C204.602,297.009,204.595,297.009,204.589,297.009z"/>
	<path fill-rule="evenodd" clip-rule="evenodd" fill="#2A262A" d="M451.776,364.325c-5.418,0-9.021,0.013-12.623-0.019
		c-0.384-0.004-0.766-0.275-1.147-0.428c3.525-3.331,5.493-15.243,3.379-19.967c-0.45-1.003-2.649-1.125-1.484-2.918
		c1.032-1.588,2.891-1.979,4.148-1.262c2.976,1.697,5.597,0.437,8.483,0.002c6.859-1.034,9.508,1.901,9.951,9.139
		c0.29,4.717-2.248,10.069,3.409,14.866c-4.677,0.449-8.583,2.274-7.668-4.723c0.378-2.896-0.094-5.892,0.1-8.824
		c0.276-4.178-0.39-6.918-5.687-6.567c-4.743,0.315-7.395,1.636-6.675,6.987C446.594,355.31,443.938,360.911,451.776,364.325z"/>
	<path fill-rule="evenodd" clip-rule="evenodd" fill="#2A262A" d="M432.419,351.112c2.168,2.822-3.992,8.703,3.466,10.871
		c1.485,0.432,0.33,2.247-1.397,2.206c-4.631-0.112-9.149,0.438-13.742,1.188c-4.359,0.713-7.231-1.993-7.42-6.671
		c-0.146-3.617,0.132-7.257-0.139-10.859c-0.095-1.249,1.506-3.125-1.024-3.938c-1.251-0.401-3.139-1.047-2.213-2.883
		c1.155-2.292,3.568-1.247,5.494-1.376c2.765-0.184,1.894,1.856,1.908,3.262c0.044,4.754,0.158,9.514-0.004,14.263
		c-0.132,3.835,2.002,4.511,5.118,4.293c2.877-0.2,6.098-0.469,5.701-4.3c-0.511-4.94,2.042-10.202-1.82-14.888
		c-1.271-1.543,1.046-2.784,2.165-2.653c1.331,0.157,4.016-1.287,3.926,2.04C432.356,344.606,432.419,347.549,432.419,351.112z"/>
	<path fill-rule="evenodd" clip-rule="evenodd" fill="#292529" d="M499.273,282.877c5.056-1.666,7.595-0.694,6.834,5.284
		c-0.456,3.577-0.036,7.263-0.103,10.896c-0.033,1.757-0.503,3.507,2.06,4.062c0.558,0.12,2.41,0.71,1.511,2.163
		c-0.538,0.867-1.428,2.161-2.684,1.633c-4.892-2.059-9.732,0.404-14.587-0.025c-3.779-0.337-5.467-2.41-5.385-6.174
		c0.083-3.86,0.07-7.725-0.022-11.586c-0.031-1.289,0.686-2.785-0.516-3.854c-0.996-0.884-4.584,1.037-2.974-2.306
		c0.437-0.904,3.719-0.475,5.698-0.592c2.775-0.165,1.862,1.944,1.885,3.305c0.074,4.317-0.075,8.639,0.083,12.948
		c0.061,1.644-1.402,4.39,2.356,4.204c3.193-0.156,8.008,0.594,8.237-3.042C502.014,294.281,504.054,288.028,499.273,282.877z"/>
	<path fill-rule="evenodd" clip-rule="evenodd" fill="#272428" d="M442.663,306.208c-6.527,2.018-8.344-0.022-7.636-5.435
		c0.408-3.118,0.08-6.333,0.073-9.505c-0.006-2.607,0.752-5.707-3.198-6.167c-3.432-0.401-6.775,0.234-8.734,3.321
		c-2.213,3.489,0.337,13.795,4.029,16.706c-4.257,2.515-8.258,2.595-12.756,0.197c6.776-3.778,8.074-15.95,2.609-20.189
		c-0.461-0.357-0.953-1.037-0.945-1.562c0.016-1.129,0.97-1.421,1.893-1.194c4.61,1.133,8.878-0.669,13.315-1.257
		c5.271-0.697,7.628,2.424,7.95,7.675C439.615,294.594,437.121,300.877,442.663,306.208z"/>
	<path fill-rule="evenodd" clip-rule="evenodd" fill="#2D292D" d="M106.581,363.636c-6.717,1.07-11.87-0.117-16.882,1.74
		c-3.33,1.233-5.013-1.605-6.649-4.712c-3.189-6.058,1.853-13.495-3.609-19.037c-0.2-0.201,1.605-2.326,3.47-2.003
		c1.415,0.245,3.222-0.521,3.1,2.214c-0.202,4.519-0.127,9.055-0.042,13.58c0.058,3.113,0.408,6.479,4.698,5.951
		c3.438-0.425,8.548,0.393,7.503-5.845c-0.744-4.446,2.148-9.375-2.11-13.447c-1.099-1.051,1.15-2.324,2.013-2.476
		c2.235-0.396,4.152,0.842,4.304,3.13c0.253,3.822-0.097,7.681-0.046,11.521C102.372,357.52,101.131,361.187,106.581,363.636z"/>
	<path fill-rule="evenodd" clip-rule="evenodd" fill="#2C282D" d="M288.814,283.942c11.697-5.876,16.555-2.966,16.817,9.237
		c0.08,3.732-2.119,8.12,3.01,11.091c1.785,1.034-0.918,2.818-2.438,2.578c-4.192-0.662-8.336,0.309-12.459,0.031
		c-4.96-0.332-7.418-4.563-7.013-8.387c0.365-3.433,2.897-7.14,8.212-6.822c1.909,0.112,6.644,3.154,6.385-2.577
		c-0.231-5.114-3.829-4.752-7.607-4.092C292.352,285.243,290.587,285.769,288.814,283.942z"/>
	<path fill-rule="evenodd" clip-rule="evenodd" fill="#292529" d="M255.793,363.575c-5.034,1.01-9.352,0.93-13.55,1.764
		c-4.894,0.974-8.303-2.437-8.897-7.19c-0.758-6.062,3.938-7.664,8.684-9.07c2.118-0.627,6.649,2.457,6.022-2.232
		c-0.539-4.032-4.025-6.195-8.539-3.42c-1.083,0.665-2.925,0.912-3.366-0.633c-0.514-1.807,1.179-2.797,2.681-3.233
		c7.995-2.327,13.223,1.926,13.597,10.423C252.624,354.479,250.232,359.601,255.793,363.575z"/>
	<path fill-rule="evenodd" clip-rule="evenodd" fill="#282529" d="M170.501,351.65c0.033-8.026,4.145-12.133,12.029-12.014
		c6.261,0.096,9.871,4.841,9.793,12.871c-0.079,8.12-4.256,13.069-11.008,13.045C174.06,365.525,170.464,360.903,170.501,351.65z"/>
	<path fill-rule="evenodd" clip-rule="evenodd" fill="#2A262A" d="M178.786,301.353c-0.459,6.674-5.143,5.435-8.951,5.53
		c-4.85,0.124-7.686-3.631-8.735-7.034c-1.645-5.338-2.278-11.404,2.987-15.843c3.343-2.819,6.556-3.907,11.199-1.881
		c5.088,2.221,4.247,6.946,6.045,10.5c0.694,1.371-0.606,2.184-2.379,2.044c-2.698-0.212-5.445-0.237-8.135,0.025
		c-1.868,0.184-4.377-1.349-5.495,0.83c-0.868,1.687-0.648,3.818,1.224,5.464c2.026,1.78,3.692,4.23,6.838,3.196
		C175.129,303.613,176.691,302.476,178.786,301.353z"/>
	<path fill-rule="evenodd" clip-rule="evenodd" fill="#282428" d="M312.349,352.458c0.005,8.23-3.801,13.096-10.244,13.094
		c-6.159-0.004-11.919-6.578-11.589-13.229c0.4-8.065,4.49-12.633,11.357-12.686C309.541,339.578,312.342,343.005,312.349,352.458z"
		/>
	<path fill-rule="evenodd" clip-rule="evenodd" fill="#272328" d="M617.018,304.166c-5.082,3.895-10.59,4.24-14.949,0.802
		c-4.617-3.644-6.093-9.567-4.172-15.404c1.793-5.453,5.792-8.768,11.852-8.516c4.658,0.193,9.165,7.183,8.188,11.784
		c-0.425,2.002-1.432,1.825-2.801,1.8c-2.266-0.044-4.561-0.226-6.792,0.059c-2.241,0.287-5.06-1.364-6.642,1.1
		c-1.268,1.974,0.655,4.053,1.738,5.208c1.916,2.042,4.229,4.52,7.829,2.398C612.904,302.434,614.897,302.054,617.018,304.166z"/>
	<path fill-rule="evenodd" clip-rule="evenodd" fill="#272327" d="M410.41,303.751c-4.294,4.212-9.434,4.469-13.668,1.715
		c-4.62-3.003-5.935-8.379-5.251-13.902c0.66-5.332,4.006-8.647,8.833-10.356c3.867-1.37,6.49,0.831,9.309,3.416
		c2.895,2.653,2.224,5.606,2.223,8.644c0,1.663-1.249,1.405-2.401,1.373c-2.487-0.068-5-0.219-7.461,0.051
		c-2.093,0.229-4.664-1.375-6.212,0.805c-1.4,1.972,0.58,3.913,1.521,5.296c1.566,2.297,4.437,4.462,7.132,3.021
		C406.788,302.557,408.42,303.134,410.41,303.751z"/>
	<path fill-rule="evenodd" clip-rule="evenodd" fill="#282429" d="M323.393,304.624c-3.123,4.106-7.297,2.095-10.811,2.153
		c-2.882,0.05-1.415-1.897-0.313-3.141c4.156-4.687,3.952-13.655-0.426-18.564c-0.131-0.146-0.421-0.148-0.637-0.22
		c5.447-2.865,2.342-9.747,5.996-13.126c2.88-2.663,7.071-1.913,10.739-1.378c1.096,0.159,2.584,1.438,2.011,3.033
		c-0.456,1.269-2.329,1.202-2.956,0.784c-5.065-3.381-6.833-0.23-7.757,3.931c-1.336,6.02,3.411,3.992,8.185,4.255
		c-4.959,2.808-10.305,3.583-8.378,9.884C320.342,296.469,316.642,302.271,323.393,304.624z"/>
	<path fill-rule="evenodd" clip-rule="evenodd" fill="#2B282C" d="M272.838,363.891c7.248-5.007,2.857-12.508,4.103-18.799
		c0.278-1.407-1.348-1.37-2.509-1.293c-1.098,0.073-1.901-1.387-1.609-1.537c5.16-2.657,3.139-9.018,6.488-12.426
		c2.543-2.587,6.011-0.661,9.035-1.035c1.255-0.156,3.743-1.09,3.4,1.567c-0.213,1.658-1.4,2.464-3.8,1.27
		c-1.62-0.804-5.341-1.59-6.19,2.41c-0.548,2.581-2.991,5.958,2.607,5.531c1.674-0.127,2.977,1.067,3.096,2.018
		c0.134,1.059-1.464,2.429-2.713,2.177c-4.714-0.946-3.782,2.217-3.771,4.805c0.013,2.943,0.004,5.886,0.001,8.83
		c0,0.678-0.143,1.383-0.008,2.03c1.023,4.896,1.04,4.898-6.814,4.874C273.77,364.312,273.388,364.073,272.838,363.891z"/>
	<path fill-rule="evenodd" clip-rule="evenodd" fill="#29252A" d="M61.612,363.829c4.58-4.3,5.495-13.923,1.925-20.242
		c-1.964-3.477,4.652-14.469,8.957-14.82c1.354-0.11,2.722-0.034,4.082-0.039c1.921-0.008,4.695-0.669,3.896,2.623
		c-0.796,3.283-2.306-0.548-3.933-0.149c-2.664,0.652-4.586,0.641-6.022,3.811c-1.68,3.71-1.466,4.845,2.667,4.666
		c1.354-0.06,3.228-0.836,3.276,1.941c0.047,2.708-1.681,2.317-3.143,2.066c-3.689-0.634-4.015,1.298-3.797,4.238
		c0.233,3.159,0.052,6.35,0.053,9.525c0,0.453-0.036,0.912,0.017,1.359C70.259,364.481,70.263,364.481,61.612,363.829z"/>
	<path fill-rule="evenodd" clip-rule="evenodd" fill="#2C282C" d="M116.979,298.7c3.087,2.507,4.91,7.834,10.44,4.397
		c3.344-2.079,3.213-3.96,0.12-5.823c-2.538-1.526-5.291-2.693-7.938-4.042c-3.823-1.945-3.002-6.095-2.118-8.323
		c1.839-4.642,6.916-4.393,10.989-3.821c2.127,0.298,5.02,1.913,3.887,5.555c-0.308,0.992,0.284,2.377-1.389,2.485
		c-1.16,0.074-1.401-0.771-1.398-1.76c0.01-2.916-2.604-3.523-4.013-2.725c-1.339,0.76-4.175-1.05-4.355,2.709
		c-0.161,3.385,2.313,3.578,3.832,4.423c4.173,2.321,10.123,2.675,8.667,9.957c-0.768,3.846-5.993,6.294-11.882,5.253
		C117.149,306.159,115.799,303.951,116.979,298.7z"/>
	<path fill-rule="evenodd" clip-rule="evenodd" fill="#2B272C" d="M356.067,306.893c-2.701,0.007-4.684-0.251-6.821-1.241
		c-3.014-1.396-0.628-3.575-1.404-5.191c-0.169-0.353,0.386-1.521,0.732-1.58c2.854-0.479,1.258,2.214,2.042,2.964
		c1.875,1.792,4.414,3.144,7.004,2.227c1.512-0.535,3.649-2.438,3.589-3.627c-0.123-2.432-1.963-4.281-4.831-4.46
		c-0.599-0.04-1.212-0.386-1.754-0.703c-3.757-2.208-8.515-4.128-6.324-9.777c1.722-4.438,9.076-5.536,13.858-3.321
		c3.585,1.66,2.215,3.587,1.164,5.673c-0.282,0.559-1.751,2.381-1.901-0.095c-0.338-5.568-4.64-2.498-6.543-2.521
		c-2.609-0.031-4.533,2.286-1.309,4.881c1.333,1.071,2.767,2.542,4.298,2.747c5.046,0.671,7.931,4.276,7.38,8.27
		C364.646,305.501,360.534,307.876,356.067,306.893z"/>
	<path fill-rule="evenodd" clip-rule="evenodd" fill="#2B272C" d="M145.929,306.898c-3.726-0.199-8.445,1.085-8.152-5.312
		c0.047-1.027-0.532-2.434,1.016-2.763c1.582-0.338,1.299,1.052,1.785,2.007c2.276,4.473,5.985,4.315,9.483,1.836
		c1.882-1.333,2.841-3.681-0.389-5.235c-2.854-1.374-6.046-2.402-8.369-4.416c-1.926-1.67-4.662-3.444-2.304-7.537
		c3.012-5.227,7.31-4.778,11.743-4.216c3.078,0.392,3.841,2.936,3.435,5.87c-0.129,0.926-0.087,1.835-1.187,1.989
		c-1.031,0.145-1.303-0.506-1.683-1.499c-1.865-4.857-5.449-2.58-8.287-1.454c-2.182,0.866-1.17,2.681,0.265,3.648
		c1.923,1.299,3.96,2.511,6.101,3.393c4.391,1.808,7.453,4.906,5.98,9.589C154.101,306.82,149.816,307.133,145.929,306.898z"/>
	<path fill-rule="evenodd" clip-rule="evenodd" fill="#2B272B" d="M215.737,298.173c1.744,3.909,4.384,6.233,8.081,5.798
		c1.104-0.13,3.697-0.444,4.093-3.267c0.404-2.882-1.533-3.313-3.075-4.189c-2.191-1.249-4.557-2.188-6.831-3.294
		c-4.162-2.025-3.207-6.195-2.084-8.684c1.864-4.126,6.614-4.073,10.497-3.462c2.228,0.351,5.212,1.552,4.123,5.272
		c-0.283,0.967,0.491,2.411-1.081,2.729c-1.67,0.338-1.443-0.953-1.702-2.071c-0.525-2.266-1.997-3.172-4.386-2.358
		c-1.805,0.616-4.767,0.407-4.8,2.492c-0.025,1.597,1.867,3.593,4.049,4.354c1.578,0.55,3.103,1.262,4.628,1.951
		c4.208,1.899,5.899,5.896,4.499,9.52c-1.936,5.008-7.382,4.359-11.634,3.842c-3.427-0.413-6.916-2.104-5.944-6.906
		C214.241,299.548,214.717,299.276,215.737,298.173z"/>
	<path fill-rule="evenodd" clip-rule="evenodd" fill="#2A262B" d="M371.713,288.908c-2.398-1.124-2.447-3.194-1.977-5.227
		c0.662-2.864,3.046-0.688,4.509-1.315c0.192-0.084,0.455-0.042,0.676-0.007c3.909,0.596,9.688-2.116,11.351,1.456
		c1.808,3.883-4.249,6.575-6.081,10.335c-1.306,2.68-3.535,4.909-5.736,7.854c3.628,1.134,6.86,1.403,9.877,0.101
		c0.731-0.315,1.085-2.819,2.477-1.454c0.837,0.82,0.433,2.934,0.537,4.469c0.098,1.449-0.667,1.847-2.047,1.829
		c-4.541-0.063-9.144,0.444-13.607-0.146c-3.729-0.493-2.437-3.533-1.162-5.438c3.6-5.38,7.481-10.574,12.089-17.011
		C378.131,286.297,372.897,282.142,371.713,288.908z"/>
	<path fill-rule="evenodd" clip-rule="evenodd" fill="#2A262A" d="M209.533,343.053c-4.933,1.565-9.546-1.465-12.313,4.512
		c-1.797-6.063-1.151-9.063,4.908-7.92c3.844,0.725,9.336-2.298,11.232,1.765c1.587,3.4-3.329,6.308-5.424,9.435
		c-2.274,3.394-4.327,6.933-7.374,10.029c10.068,0.971,10.068,0.971,11.314-3.352c2.683,1.147,2.84,3.552,2.062,5.681
		c-0.82,2.244-3.149,0.75-4.766,0.918c-2.466,0.258-4.98,0.097-7.473,0.059c-2.182-0.033-5.188,0.837-6.031-1.452
		c-0.465-1.262,1.583-3.645,2.803-5.295C201.817,352.906,205.324,348.498,209.533,343.053z"/>
	<path fill-rule="evenodd" clip-rule="evenodd" fill="#2A262B" d="M340.363,356.227c1.259,4.284,6.603,7.002,10.37,5.335
		c1.42-0.629,1.006-1.749,1.161-2.799c0.313-2.13-0.867-3.089-2.522-4.135c-2.356-1.486-5.264-1.396-7.49-3.624
		c-2.475-2.478-3-5.229-1.972-7.846c0.955-2.432,3.29-4.206,6.529-3.545c3.256,0.665,8.372-2.11,8.188,4.637
		c-0.025,0.926,0.054,1.895-1.071,2.088c-0.98,0.169-1.768-0.239-1.668-1.453c0.358-4.365-3.032-2.085-4.719-2.509
		c-2.126-0.533-3.643,1.604-4.109,2.87c-0.754,2.05,2.173,2.717,3.06,4.309c1.076,1.931,3.197,1.024,4.769,1.733
		c4.105,1.849,6.384,4.867,5.01,8.756c-1.22,3.453-4.169,6.479-8.875,5.512c-3.131-0.642-6.874-0.515-8.574-3.617
		C337.492,360.191,337.697,357.439,340.363,356.227z"/>
	<path fill-rule="evenodd" clip-rule="evenodd" fill="#2D292D" d="M479.326,289.026c-1.593-0.85,0.833-4.76-2.801-3.896
		c-2.488,0.59-6.271,1.604-5.853,4.191c0.778,4.8-3.116,10.562,2.798,14.497c2.611,1.738-0.518,2.839-1.249,2.944
		c-2.418,0.351-4.922,0.085-7.391,0.136c-0.908,0.018-1.816,0.195-2.25-0.852c-0.433-1.045,0.382-1.609,0.95-2.284
		c2.144-2.539,4.27-15.485,2.854-17.783c-0.278-0.45-1.032-0.828-1.579-0.846c-1.159-0.039-2.429,0.139-2.324-1.515
		c0.105-1.661,1.523-1.209,2.555-1.253c3.796-0.161,7.662,1.271,11.359-1.295c1.242-0.862,3.71-0.38,4.607,1.621
		C482.1,285.138,481.987,287.466,479.326,289.026z"/>
	<path fill-rule="evenodd" clip-rule="evenodd" fill="#312D31" d="M621.989,282.384c5.131,0.434,10.29,0.334,15.404-1.164
		c3.16-0.927,5.087,3.595,2.976,6.515c-0.747,1.034-0.986,2.036-2.22-0.32c-2.538-4.844-5.677-2.07-7.599,0.898
		c-2.346,3.625,0.125,13.797,3.627,16.568c-2.934,3.802-7.076,1.813-10.579,1.903c-2.777,0.073-1.549-1.823-0.4-3.114
		c2.118-2.383,3.979-15.479,2.776-17.849C625.084,284.065,621.964,286.559,621.989,282.384z"/>
	<path fill-rule="evenodd" clip-rule="evenodd" fill="#2E2A2E" d="M316.474,341.676c0.669-0.627,1.593-1.905,1.946-1.763
		c5.201,2.092,10.374-0.966,15.354-0.089c3.917,0.69,0.896,4.17,1.959,7.188c-3.255-1.388-4.706-5.082-7.989-2.912
		c-2.781,1.839-3.816,4.427-3.073,7.528c0.868,3.631-2.947,9.007,3.848,10.611c0.563,0.134-0.02,1.94-0.913,1.978
		c-3.383,0.14-6.797,0.22-10.156-0.114c-1.212-0.122-1.34-1.523-0.238-2.541C322.332,356.83,321.956,345.896,316.474,341.676z"/>
	<path fill-rule="evenodd" clip-rule="evenodd" fill="#2C282D" d="M377.888,347.505c-3.23-1.865-3.759-7.842-9.493-3.903
		c-4.801,3.299-4.879,7.489-3.741,11.988c1.301,5.141,5.44,6.563,10.3,5.961c1.256-0.156,2.691-2.177,3.547,0.056
		c0.644,1.678-1.204,2.009-2.413,2.757c-3.993,2.468-7.441,1.218-10.805-1.145c-4.999-3.51-6.08-8.771-5.229-14.198
		c1.139-7.27,9.218-11.862,16.113-9.323C380.008,341.114,376.291,344.985,377.888,347.505z"/>
	<path fill-rule="evenodd" clip-rule="evenodd" fill="#2D2A2E" d="M237.333,293.784c-0.002-9.063,5.487-14.453,13.311-12.778
		c2.418,0.518,5.194,1.514,4.437,5.031c-0.212,0.989-0.915,2.342-1.721,2.642c-1.775,0.659-0.782-1.341-1.396-2.02
		c-2.229-2.468-5.11-2.262-7.336-1.079c-3.571,1.896-4.74,5.992-4.412,9.54c0.594,6.393,4.907,8.788,11.692,7.713
		c1.044-0.166,3.139-0.762,3.015,1.395c-0.092,1.611-1.448,2.435-3.227,2.761C242.646,308.649,237.335,303.827,237.333,293.784z"/>
	<path fill-rule="evenodd" clip-rule="evenodd" fill="#373337" d="M642.194,304.733c3.082-0.876,4.48-2.175,4.379-5.277
		c-0.252-7.686-0.278-15.396,0.046-23.076c0.103-2.429-0.807-3.376-2.602-4.205c0.932-1.296,1.802-2.243,3.79-2.184
		c2.462,0.073,2.894,0.876,2.845,3.168c-0.164,7.692-0.095,15.389-0.035,23.083c0.024,2.885-0.897,6.02,2.953,7.741
		c1.639,0.731,1.923,2.99-0.771,2.85C649.402,306.653,645.578,308.313,642.194,304.733z"/>
	<path fill-rule="evenodd" clip-rule="evenodd" fill="#292529" d="M447.375,293.291c-1.065-2.551,2.248-6.746-2.42-8.882
		c3.232-2.637,1.908-6.597,2.966-9.858c0.116-0.354,1.627-0.445,2.449-0.336c1.064,0.141,1.209,1.048,1.109,2.01
		c-0.399,3.811-0.505,7.364,5.158,6.126c1.088-0.239,1.676,0.501,1.546,1.563c-0.137,1.121-1.02,1.369-1.954,1.158
		c-5.517-1.239-4.928,2.415-4.781,5.836c0.108,2.483,0.229,4.991,0.009,7.458c-0.305,3.405,2.035,5.697,4.373,5.501
		c2.038-0.172,3.54-0.346,3.689,1.496c0.211,2.624-2.225,1.435-3.533,1.502C448.471,307.258,447.377,305.557,447.375,293.291z"/>
	<path fill-rule="evenodd" clip-rule="evenodd" fill="#2C282D" d="M107.504,364.174c5.382-4.816,6.063-16.572,1.794-21.04
		c-0.584-0.611-2.171-0.862-0.679-2.419c1.561-1.626,4.041-1.686,4.861-0.952c2.505,2.242,4.097,1.931,7.055,0.426
		c5.063-2.579,6.6-0.727,5.733,6.297c-2.513-0.45-3.734-4.752-7.135-2.455c-2.764,1.87-3.979,4.442-3.108,7.488
		c1.021,3.57-3.468,9.031,3.713,10.768c0.947,0.228-0.452,1.96-2.067,1.914C114.514,364.11,111.353,364.174,107.504,364.174z"/>
	<path fill-rule="evenodd" clip-rule="evenodd" fill="#282529" d="M344.288,281.906c-1.553,2.005-2.148,3.521-3.792,3.201
		c-3.978-0.775-3.728,1.685-3.628,4.33c0.127,3.397,0.135,6.806,0.019,10.203c-0.116,3.438,1.244,5.035,4.783,4.42
		c0.709-0.123,1.625-2.484,2.086,0.063c0.173,0.955,0.255,2.246-1.083,2.881c-4.234,2.014-9.564-1.069-9.806-5.868
		c-0.193-3.848,0.088-7.717-0.123-11.563c-0.096-1.76,1.695-4.925-2.689-4.477c-1.28,0.13-1.653-2.271-0.806-2.26
		c6.439,0.089,0.369-8.701,6.306-8.632c1.73,0.02,1.537,1.444,1.302,2.457C335.534,282.375,338.729,283.088,344.288,281.906z"/>
	<path fill-rule="evenodd" clip-rule="evenodd" fill="#272428" d="M265.976,345.587c-0.001,3.842-0.082,7.687,0.034,11.523
		c0.056,1.905-1.308,4.89,2.835,4.362c0.99-0.127,1.641,1.348,1.06,1.889c-2.048,1.912-4.686,0.632-7.046,0.729
		c-1.61,0.066-3.696,1.147-4.917-0.794c-0.491-0.78,0.134-1.954,1.168-1.831c4.254,0.504,2.688-2.633,2.722-4.445
		c0.129-7.003,0.157-14.013-0.022-21.015c-0.043-1.698,1.821-4.821-2.593-4.545c-2.308,0.145-0.787-1.237-0.19-1.876
		c1.67-1.785,3.87-0.919,5.727-0.709c2.478,0.282,1.098,2.536,1.154,3.834C266.092,336.995,265.976,341.293,265.976,345.587z"/>
	<path fill-rule="evenodd" clip-rule="evenodd" fill="#2D292D" d="M218.321,341.671c1.799-2.989,4.918-2.584,7.226-1.744
		c2.167,0.788,0.705,3.609,0.807,5.489c0.22,4.075,0.048,8.172,0.08,12.259c0.009,1.089,0.015,2.222,0.307,3.256
		c0.447,1.582,5.852-0.218,2.948,2.591c-2.221,2.149-7.233,1.033-10.937,0.208c-0.895-0.199-0.531-1.433,0.213-2.142
		C224.15,356.649,223.771,346.013,218.321,341.671z"/>
	<path fill-rule="evenodd" clip-rule="evenodd" fill="#383337" d="M658.198,283.013c5.475-1.676,8.288-0.996,7.482,5.084
		c-0.443,3.34-0.079,6.786-0.082,10.184c-0.001,1.123-0.264,2.314,0.021,3.356c0.551,2.011,6.21,2.433,3.146,4.627
		c-2.511,1.796-7.687,2.089-11.234-1.086C662.595,301.793,663.319,287.914,658.198,283.013z"/>
	<path fill-rule="evenodd" clip-rule="evenodd" fill="#373337" d="M99.421,304.702c3.979-0.702,4.864-3.337,4.228-6.671
		c-0.886-4.646,2.309-9.954-2.471-14.07c-0.767-0.66,0.705-1.929,1.987-1.57c1.711,0.478,4.859-1.76,4.636,2.578
		c-0.22,4.271-0.045,8.563-0.038,12.847c0.003,1.339-0.389,2.861,0.111,3.982c2.436,5.456,2.424,5.371-4.158,5.192
		C101.817,306.941,100.87,306.089,99.421,304.702z"/>
	<path fill-rule="evenodd" clip-rule="evenodd" fill="#4C474B" d="M97.01,335.606c-1.624-0.471-3.028-1.362-2.885-3.563
		c0.16-2.484,1.702-3.652,3.999-3.295c1.921,0.299,3.145,1.699,2.824,3.817C100.644,334.583,99.352,335.615,97.01,335.606z"/>
	<path fill-rule="evenodd" clip-rule="evenodd" fill="#4F4A4E" d="M90.18,331.506c-0.287,2.647-1.562,4.535-3.288,3.826
		c-1.257-0.518-4.371-0.512-3.71-3.553c0.421-1.938,1.452-3.137,3.613-3.08C89.059,328.759,89.538,330.434,90.18,331.506z"/>
	<path fill-rule="evenodd" clip-rule="evenodd" fill="#454044" d="M227.802,331.896c-1.51,1.373-2.258,3.884-4.566,3.477
		c-1.31-0.23-2.634-1.571-2.289-3.518c0.35-1.987,1.393-2.907,3.45-3.186C227.156,328.294,225.871,331.578,227.802,331.896z"/>
	<path fill-rule="evenodd" clip-rule="evenodd" fill="#2D292E" d="M664.147,271.483c1.833-0.35,3.106,0.058,2.843,2.257
		c-0.237,1.979-1.41,3.037-3.404,3.177c-1.727,0.122-2.207-0.627-2.133-2.357C661.536,272.624,661.411,270.898,664.147,271.483z"/>
	<path fill-rule="evenodd" clip-rule="evenodd" fill="#2E2A2E" d="M106.882,276.766c-3.802,0.4-3.06-1.49-3.223-2.923
		c-0.255-2.25,0.965-2.381,2.75-2.447c1.897-0.072,2.962,0.338,2.758,2.419C108.963,275.897,107.432,276.516,106.882,276.766z"/>
	<path fill-rule="evenodd" clip-rule="evenodd" fill="#8D888D" d="M90.03,291.9c-0.42,1.319,1.063,3.394-1.017,3.938
		c-2.062,0.539-1.571-1.401-1.711-2.573C88.212,292.81,89.122,292.356,90.03,291.9z"/>
	<path fill-rule="evenodd" clip-rule="evenodd" fill="#FFFFFF" d="M377.816,150.05c0-2.95,0-5.9,0-8.852
		c0-11.847,0.019-12.19,11.996-11.524c18.343,1.02,27.553,13.971,19.401,31.906c-3.201,7.043-10.098,8.467-16.686,8.795
		c-14.696,0.731-14.711,0.428-14.711-14.196C377.816,154.137,377.816,152.094,377.816,150.05z"/>
	<path fill-rule="evenodd" clip-rule="evenodd" fill="#FFFFFF" d="M377.816,92.071c0-3.179,0.469-6.445-0.095-9.521
		c-1.295-7.053,2.01-8.569,8.043-7.52c4.625,0.803,9.61,0.723,13.608,3.349c5.649,3.707,8.432,9.269,6.999,16.071
		c-1.303,6.188-4.774,10.156-11.466,12.173c-17.195,5.182-17.09,5.531-17.09-11.825C377.816,93.889,377.816,92.98,377.816,92.071z"
		/>
	<path fill-rule="evenodd" clip-rule="evenodd" fill="#FBFAFB" d="M477.739,376.46c-4.061,0.205-7.105-2.295-6.901-5.659
		c0.156-2.563,2.102-7.133,6.078-6.379c3.687,0.696,9.73,0.4,9.509,6.085C486.264,374.633,482.185,376.678,477.739,376.46z"/>
	<path fill-rule="evenodd" clip-rule="evenodd" fill="#FBFAFB" d="M485.718,349.023c-1.746,1.723-1.137,5.87-5.564,5.618
		c-3.92-0.221-6.726-2.32-6.694-6.093c0.027-3.2,2.787-5.851,5.97-6.021C482.938,342.337,484.915,345.072,485.718,349.023z"/>
	<path fill-rule="evenodd" clip-rule="evenodd" fill="#FEFDFE" d="M581.425,289.152c3.787,0.734,8.061,0.771,7.896,6.921
		c-0.157,5.93-3.958,6.346-8.307,6.77c-7.057,0.689-3.716-4.605-3.878-7.258C576.979,293.043,574.561,287.895,581.425,289.152z"/>
	<path fill-rule="evenodd" clip-rule="evenodd" fill="#FDFDFD" d="M576.505,280.566c1.499-2.423-2.084-7.042,3.707-6.369
		c3.654,0.425,7.726,0.716,7.604,5.885c-0.12,5.027-4.258,5.84-7.899,6.245C573.917,286.996,578.853,281.811,576.505,280.566z"/>
	<path fill-rule="evenodd" clip-rule="evenodd" fill="#F9F9F9" d="M297.764,294.686c4.183-1.192,3.522,1.839,3.734,4.568
		c0.311,4.012-2.598,4.774-5.207,4.823c-2.886,0.052-5.543-2.6-5.5-4.935C290.856,295.718,293.867,294.121,297.764,294.686z"/>
	<path fill-rule="evenodd" clip-rule="evenodd" fill="#F9F9F9" d="M243.666,361.46c-3.48,0.433-6.068-1.516-6.167-4.489
		c-0.137-4.127,3.771-4.452,6.954-5.064c3.587-0.691,3.939,1.122,3.885,4.123C248.278,359.412,247.79,361.843,243.666,361.46z"/>
	<path fill-rule="evenodd" clip-rule="evenodd" fill="#FDFDFD" d="M174.536,352.248c-0.337-5.065,1.987-8.625,6.692-9.777
		c3.678-0.902,7.151,4.72,6.996,10.659c-0.124,4.747-1.019,8.655-7.265,8.395C174.364,361.248,174.936,356.517,174.536,352.248z"/>
	<path fill-rule="evenodd" clip-rule="evenodd" fill="#FBFBFB" d="M177.56,291.096c-2.424,1.565-4.754,0.869-6.828,0.672
		c-1.858-0.176-4.629,1.982-5.619-1.421c-0.75-2.575,1.525-3.836,3.037-4.695c2.06-1.17,4.823-1.462,6.71,0.521
		C176.103,287.482,176.678,289.424,177.56,291.096z"/>
	<path fill-rule="evenodd" clip-rule="evenodd" fill="#FCFCFC" d="M308.256,353.143c0.136,3.973,0.212,8.296-6.116,8.338
		c-6.723,0.044-6.651-5.517-7.338-9.598c-0.778-4.631,3.757-9.709,7.376-9.529C305.556,342.523,308.261,347.114,308.256,353.143z"/>
	<path fill-rule="evenodd" clip-rule="evenodd" fill="#FAFAFA" d="M607.526,292.15c-2.085-1.135-5.867,1.428-5.773-1.681
		c0.081-2.695,1.851-5.928,6.605-5.619c3.861,0.25,5.378,2.246,5.26,4.923C613.401,294.651,609.167,290.299,607.526,292.15z"/>
	<path fill-rule="evenodd" clip-rule="evenodd" fill="#FAFAFA" d="M401.674,292.318c-2.313-1.303-6.12,1.365-5.908-2.014
		c0.179-2.824,2.29-5.771,6.857-5.417c3.824,0.297,5.332,2.284,5.047,5.097C407.182,294.813,402.961,289.793,401.674,292.318z"/>
</g>
</svg>
