<?xml version="1.0" encoding="UTF-8" standalone="no"?>
<svg
   xmlns:dc="http://purl.org/dc/elements/1.1/"
   xmlns:cc="http://creativecommons.org/ns#"
   xmlns:rdf="http://www.w3.org/1999/02/22-rdf-syntax-ns#"
   xmlns:svg="http://www.w3.org/2000/svg"
   xmlns="http://www.w3.org/2000/svg"
   viewBox="0 0 466.66666 1057.3333"
   height="1057.3333"
   width="466.66666"
   xml:space="preserve"
   id="svg2"
   version="1.1"><metadata
     id="metadata8"><rdf:RDF><cc:Work
         rdf:about=""><dc:format>image/svg+xml</dc:format><dc:type
           rdf:resource="http://purl.org/dc/dcmitype/StillImage" /></cc:Work></rdf:RDF></metadata><defs
     id="defs6" /><g
     transform="matrix(1.3333333,0,0,-1.3333333,0,1057.3333)"
     id="g10"><g
       transform="scale(0.1)"
       id="g12"><path
         id="path14"
         style="fill:#88b3c8;fill-opacity:1;fill-rule:nonzero;stroke:none"
         d="M 500,2430 H 0 v 5000 h 500 v -500 h 500 V 2930 H 500 v -500" /><path
         id="path16"
         style="fill:#88b3c8;fill-opacity:1;fill-rule:nonzero;stroke:none"
         d="M 2500,6930 H 1000 v 500 H 500 v 500 h 2500 v -500 h -500 v -500" /><path
         id="path18"
         style="fill:#5b8eb1;fill-opacity:1;fill-rule:nonzero;stroke:none"
         d="m 500,6930 h 500 v 500 H 500 Z" /><path
         id="path20"
         style="fill:#88b3c8;fill-opacity:1;fill-rule:nonzero;stroke:none"
         d="M 3500,5930 H 2975.31 L 2635.3,6270 2500,6134.7 V 6930 h 500 v 500 h 500 V 5930" /><path
         id="path22"
         style="fill:#5b8eb1;fill-opacity:1;fill-rule:nonzero;stroke:none"
         d="m 2500,6930 h 500 v 500 h -500 z" /><path
         id="path24"
         style="fill:#88b3c8;fill-opacity:1;fill-rule:nonzero;stroke:none"
         d="m 3500,2430 h -500 v 500 h -500 v 792.89 l 145.3,-145.3 352.41,352.41 H 3500 V 2430" /><path
         id="path26"
         style="fill:#88b3c8;fill-opacity:1;fill-rule:nonzero;stroke:none"
         d="m 1935.9,4918.79 -325.9,325.91 890,890 V 5930 h 475.31 l 367.1,-367.1 -634.1,-634.1 -381.2,381.2 -391.21,-391.21" /><path
         id="path28"
         style="fill:#5b8eb1;fill-opacity:1;fill-rule:nonzero;stroke:none"
         d="M 2975.31,5930 H 2500 v 204.7 l 135.3,135.3 340.01,-340" /><path
         id="path30"
         style="fill:#88b3c8;fill-opacity:1;fill-rule:nonzero;stroke:none"
         d="m 2500,3722.89 -880,880 315.9,315.9 381.21,-381.2 391.2,391.21 644.1,-644.1 -354.7,-354.7 H 2500 v -207.11" /><path
         id="path32"
         style="fill:#5b8eb1;fill-opacity:1;fill-rule:nonzero;stroke:none"
         d="M 2645.3,3577.59 2500,3722.89 V 3930 h 497.71 L 2645.3,3577.59" /><path
         id="path34"
         style="fill:#5b8eb1;fill-opacity:1;fill-rule:nonzero;stroke:none"
         d="m 2317.11,4537.59 -381.21,381.2 391.21,391.21 381.2,-381.2 -391.2,-391.21" /><path
         id="path36"
         style="fill:#88b3c8;fill-opacity:1;fill-rule:nonzero;stroke:none"
         d="M 3000,1930 H 500 v 500 h 500 v 500 h 1500 v -500 h 500 v -500" /><path
         id="path38"
         style="fill:#5b8eb1;fill-opacity:1;fill-rule:nonzero;stroke:none"
         d="m 500,2430 h 500 v 500 H 500 Z" /><path
         id="path40"
         style="fill:#5b8eb1;fill-opacity:1;fill-rule:nonzero;stroke:none"
         d="m 2500,2430 h 500 v 500 h -500 z" /><path
         id="path42"
         style="fill:#297a6c;fill-opacity:1;fill-rule:evenodd;stroke:none"
         d="m 500,7930 c 276.145,0 500,-223.86 500,-500 0,-276.14 -223.855,-500 -500,-500 -276.145,0 -500,223.86 -500,500 0,276.14 223.855,500 500,500" /><path
         id="path44"
         style="fill:#559f35;fill-opacity:1;fill-rule:evenodd;stroke:none"
         d="m 3000,4430 c 276.14,0 500,-223.86 500,-500 0,-276.14 -223.86,-500 -500,-500 -276.14,0 -500,223.86 -500,500 0,276.14 223.86,500 500,500" /><path
         id="path46"
         style="fill:#203965;fill-opacity:1;fill-rule:evenodd;stroke:none"
         d="m 2000,5430 c 276.14,0 500,-223.86 500,-500 0,-276.14 -223.86,-500 -500,-500 -276.14,0 -500,223.86 -500,500 0,276.14 223.86,500 500,500" /><path
         id="path48"
         style="fill:#83cd27;fill-opacity:1;fill-rule:evenodd;stroke:none"
         d="m 3000,6430 c 276.14,0 500,-223.86 500,-500 0,-276.14 -223.86,-500 -500,-500 -276.14,0 -500,223.86 -500,500 0,276.14 223.86,500 500,500" /><path
         id="path50"
         style="fill:#223263;fill-opacity:1;fill-rule:evenodd;stroke:none"
         d="m 3000,2930 c 276.14,0 500,-223.86 500,-500 0,-276.14 -223.86,-500 -500,-500 -276.14,0 -500,223.86 -500,500 0,276.14 223.86,500 500,500" /><path
         id="path52"
         style="fill:#c81d2c;fill-opacity:1;fill-rule:evenodd;stroke:none"
         d="m 3000,7930 c 276.14,0 500,-223.86 500,-500 0,-276.14 -223.86,-500 -500,-500 -276.14,0 -500,223.86 -500,500 0,276.14 223.86,500 500,500" /><path
         id="path54"
         style="fill:#8f1d26;fill-opacity:1;fill-rule:evenodd;stroke:none"
         d="m 500,2930 c 276.145,0 500,-223.86 500,-500 0,-276.14 -223.855,-500 -500,-500 -276.145,0 -500,223.86 -500,500 0,276.14 223.855,500 500,500" /><g
         transform="scale(10)"
         id="g56"><text
           id="text62"
           style="font-variant:normal;font-weight:normal;font-size:45px;font-family:Constantia;-inkscape-font-specification:Constantia;writing-mode:lr-tb;fill:#2d5da1;fill-opacity:1;fill-rule:nonzero;stroke:none"
           transform="matrix(1,0,0,-1,0.98125,130.88)"><tspan
             id="tspan58"
             y="0"
             x="0 26.602503 52.458 80.598602 105.3335 120.35639 153.79239 164.8163 187.4852 216.52719 251.8524 287.7713 323.69022">BERLIN SCHOOL</tspan><tspan
             id="tspan60"
             y="54"
             x="5.9406199 41.85952 65.847321 76.871223 101.84782 129.35123 165.27013 198.70612 234.62502 275.0928 290.11533 319.15732">OF ECONOMICS</tspan></text>
</g></g></g></svg>