<?xml version="1.0" encoding="utf-8"?>
<!-- Generator: Adobe Illustrator 16.0.0, SVG Export Plug-In . SVG Version: 6.00 Build 0)  -->
<!DOCTYPE svg PUBLIC "-//W3C//DTD SVG 1.1 Tiny//EN" "http://www.w3.org/Graphics/SVG/1.1/DTD/svg11-tiny.dtd">
<svg version="1.1" baseProfile="tiny" xmlns="http://www.w3.org/2000/svg" xmlns:xlink="http://www.w3.org/1999/xlink" x="0px"
	 y="0px" width="750px" height="130px" viewBox="0 0 750 130" xml:space="preserve">
<g id="boundingbox">
	<rect fill-rule="evenodd" fill="none" width="750" height="130"/>
</g>
<g id="logo">
	<g>
		<polygon fill-rule="evenodd" fill="#00786B" points="723.357,99.989 735.896,99.989 735.896,31.588 725.734,31.588 
			725.734,83.744 698.462,31.588 686.016,31.588 686.016,99.989 696.186,99.989 696.186,48.024 		"/>
		<rect x="656.284" y="31.612" fill-rule="evenodd" fill="#00786B" width="10.163" height="68.377"/>
		<polygon fill-rule="evenodd" fill="#00786B" points="607.316,99.989 644.372,99.989 644.372,90.963 617.676,90.963 
			617.676,31.588 607.316,31.588 		"/>
		<path fill-rule="evenodd" fill="#00786B" d="M565.028,40.139c7.126,0,12.735,2.753,12.735,9.881
			c0,7.122-6.085,11.873-15.397,11.873c-1.805,0-3.419-0.093-5.034-0.189V40.518C559.611,40.329,562.084,40.139,565.028,40.139z
			 M547.258,99.989h10.074V70.823c6.746,0,10.358,3.612,14.061,10.638l9.695,18.528h11.685l-12.543-22.516
			c-2.183-3.799-4.652-6.743-7.411-8.741c8.744-2.943,15.302-9.402,15.302-18.999c0-12.827-10.263-18.621-23.374-18.621
			c-6.367,0-11.116,0.476-17.488,1.14V99.989z"/>
		<polygon fill-rule="evenodd" fill="#00786B" points="490.007,99.989 529.915,99.989 529.915,90.866 500.174,90.866 
			500.174,69.208 527.066,69.208 527.066,60.185 500.174,60.185 500.174,40.711 528.964,40.711 529.439,31.588 490.007,31.588 		"/>
		<path fill-rule="evenodd" fill="#00786B" d="M450.668,39.948c7.411,0,11.588,2.565,11.588,8.742
			c0,6.171-4.463,11.112-15.387,11.112h-4.756V40.425C444.868,40.139,447.724,39.948,450.668,39.948z M448.767,68.258
			c11.496,0,16.53,3.52,16.53,11.588c0,8.076-5.889,11.972-14.629,11.972c-2.756,0-5.7-0.097-8.555-0.379V68.258H448.767z
			 M431.946,99.514c5.986,0.572,11.878,1.047,18.243,1.047c13.114,0,25.56-5.034,25.56-20.239c0-8.927-4.938-14.532-12.635-17.19
			c5.893-3.043,9.501-8.172,9.501-15.012c0-11.876-9.122-17.006-22.044-17.006c-6.461,0-13.3,0.57-18.625,1.14V99.514z"/>
	</g>
	<g>
		<path fill="#00786B" d="M13.856,62.151v49.84c5.271-2.272,18.437-8.31,36.088-18.845C38.254,85.381,25.792,75.252,13.856,62.151z"
			/>
		<path fill="#00786B" d="M57.855,98.133c-11.196,5.985-23.217,11.923-36.066,17.682h75.863
			C90.324,113.706,75.405,108.599,57.855,98.133z"/>
		<path fill="#00786B" d="M145.13,15.813H14.863c3.148,11.089,14.645,43.393,46.949,69.97
			C86.024,70.192,116.027,47.335,145.13,15.813z"/>
		<g>
			<path fill="#00786B" d="M215.647,42.617c-3.134,0-6.554,0.193-9.877,0.572v45.315c3.041,0.286,6.078,0.379,8.933,0.379
				c13.775,0,20.994-7.693,20.994-24.032C235.697,47.941,228.003,42.617,215.647,42.617z"/>
			<path fill="#00786B" d="M170.954,15.813C161.397,25.866,127.9,58.724,69.559,91.721c13.388,9.622,29.865,18.129,50.102,24.094
				h284.036V15.813H170.954z M213.753,100.571c-6.654,0-13.59-0.476-21.381-1.14V32.358c6.747-0.665,15.013-1.326,22.803-1.326
				c22.327,0,34.208,10.166,34.208,32.965C249.383,88.79,237.316,100.571,213.753,100.571z M280.792,100.007h-13.493V31.638h13.493
				V100.007z M367.123,100h-17.574l-10.635-51.583L328.286,100h-17.674l-14.44-68.403h14.058l9.884,52.919l10.545-52.919h17.178
				l10.449,52.348l10.263-52.348h13.589L367.123,100z"/>
		</g>
	</g>
</g>
</svg>
