<?xml version="1.0" encoding="utf-8"?>
<!-- Generator: Adobe Illustrator 16.0.0, SVG Export Plug-In . SVG Version: 6.00 Build 0)  -->
<!DOCTYPE svg PUBLIC "-//W3C//DTD SVG 1.1//EN" "http://www.w3.org/Graphics/SVG/1.1/DTD/svg11.dtd">
<svg version="1.1" xmlns="http://www.w3.org/2000/svg" xmlns:xlink="http://www.w3.org/1999/xlink" x="0px" y="0px"
	 width="113.387px" height="55.843px" viewBox="0 0 113.387 55.843" enable-background="new 0 0 113.387 55.843"
	 xml:space="preserve">
<g id="Ebene_3">
</g>
<g id="XMLID_1_">
	<g>
		<rect x="0.001" fill="#102A63" width="55.843" height="55.842"/>
		<rect x="31.268" fill="#3F4C82" width="13.41" height="13.41"/>
		<rect x="49.987" fill="#3F4C82" width="5.856" height="13.41"/>
		<rect x="31.268" y="17.189" fill="#3F4C82" width="13.41" height="13.41"/>
		<rect x="31.268" y="34.38" fill="#3F4C82" width="13.41" height="13.411"/>
		<rect x="49.987" y="17.189" fill="#3F4C82" width="5.856" height="13.412"/>
		<rect x="49.987" y="34.38" fill="#3F4C82" width="5.856" height="13.411"/>
		<rect x="57.544" fill="#83818A" width="55.843" height="55.842"/>
		<rect x="57.544" fill="#A2A0A9" width="5.855" height="13.412"/>
		<rect x="68.708" y="17.189" fill="#A2A0A9" width="13.412" height="13.412"/>
		<rect x="68.708" fill="#A2A0A9" width="13.412" height="13.412"/>
		<rect x="68.708" y="34.379" fill="#A2A0A9" width="13.412" height="13.411"/>
		<rect x="57.544" y="17.189" fill="#A2A0A9" width="5.856" height="13.412"/>
		<rect x="57.544" y="34.379" fill="#A2A0A9" width="5.856" height="13.411"/>
		<g>
			<path fill="#FFFFFF" d="M8.082,36.445v-8.468h4.697v1.155l-3.313,0.013v2.336H12.5v1.143H9.466v2.653l3.313,0.013v1.155H8.082z"
				/>
			<path fill="#FFFFFF" d="M16.361,36.623c-0.901,0-1.688-0.216-2.285-0.508l0.076-1.282c0.597,0.343,1.32,0.597,2.12,0.597
				c1.181,0,1.688-0.571,1.688-1.27c0-0.686-0.622-1.092-1.435-1.384l-0.33-0.114c-1.295-0.457-2.082-1.117-2.082-2.539
				c0-1.384,1.041-2.323,2.831-2.323c0.889,0,1.523,0.19,2.057,0.419l-0.076,1.257c-0.495-0.241-1.155-0.495-1.879-0.495
				c-0.939,0-1.511,0.368-1.511,1.13c0,0.686,0.521,0.99,1.143,1.231l0.901,0.355c1.003,0.406,1.803,1.054,1.803,2.412
				C19.383,35.544,18.367,36.623,16.361,36.623z"/>
			<path fill="#FFFFFF" d="M27.752,36.445l-0.305-6.513h-0.013l-2.526,4.837l-2.526-4.837h-0.013l-0.305,6.513h-1.32l0.521-8.468
				h1.435l2.209,4.189h0.013l2.196-4.189h1.435l0.533,8.468H27.752z"/>
			<path fill="#FFFFFF" d="M33.696,29.171v7.274h-1.384v-7.274h-2.285v-1.193h5.954v1.193H33.696z"/>
			<path fill="#FFFFFF" d="M10.646,47.797H8.082v-8.468h2.653c1.422,0,2.742,0.381,2.742,2.057c0,1.27-0.927,1.739-1.447,1.904
				v0.013c0.495,0.089,1.688,0.47,1.688,1.98C13.719,46.908,12.792,47.797,10.646,47.797z M10.621,40.446H9.466v2.374h1.054
				c1.028,0,1.536-0.457,1.536-1.27C12.056,40.713,11.497,40.446,10.621,40.446z M10.596,43.938h-1.13v2.729h1.079
				c1.117,0,1.752-0.419,1.752-1.371C12.297,44.318,11.662,43.938,10.596,43.938z"/>
			<path fill="#FFFFFF" d="M15.334,47.797v-8.468h4.697v1.155l-3.313,0.013v2.336h3.034v1.143h-3.034v2.653l3.313,0.013v1.155
				H15.334z"/>
			<path fill="#FFFFFF" d="M26.102,47.797l-1.028-2.59c-0.216-0.521-0.546-0.787-0.965-0.787h-1.041v3.377h-1.384v-8.468h2.755
				c1.765,0,2.882,0.673,2.882,2.412c0,1.155-0.711,1.892-1.714,2.184v0.013c0.14,0.025,0.508,0.203,0.749,0.774l1.346,3.085H26.102
				z M24.337,40.472h-1.27v2.806h1.117c1.168,0,1.714-0.559,1.714-1.422C25.898,40.941,25.454,40.472,24.337,40.472z"/>
			<path fill="#FFFFFF" d="M29.063,47.797v-8.468h1.384v7.3l3.25,0.013v1.155H29.063z"/>
			<path fill="#FFFFFF" d="M35.069,47.797v-8.468h1.396v8.468H35.069z"/>
			<path fill="#FFFFFF" d="M43.195,47.797l-3.491-6.271h-0.013l0.025,6.271h-1.295v-8.468h1.473l3.491,6.271h0.013l-0.025-6.271
				h1.295v8.468H43.195z"/>
		</g>
	</g>
</g>
<g id="Ebene_4" display="none">
</g>
</svg>
