<?xml version="1.0" encoding="utf-8"?>
<!-- Generator: Adobe Illustrator 16.0.0, SVG Export Plug-In . SVG Version: 6.00 Build 0)  -->
<!DOCTYPE svg PUBLIC "-//W3C//DTD SVG 1.1//EN" "http://www.w3.org/Graphics/SVG/1.1/DTD/svg11.dtd">
<svg version="1.1" id="Ebene_1" xmlns="http://www.w3.org/2000/svg" xmlns:xlink="http://www.w3.org/1999/xlink" x="0px" y="0px"
	 width="115px" height="68px" viewBox="0 0 115 68" enable-background="new 0 0 115 68" xml:space="preserve">
<g>
	<g>
		<g>
			<defs>
				<rect id="SVGID_1_" x="8.782" y="10.592" width="97.436" height="46.816"/>
			</defs>
			<clipPath id="SVGID_2_">
				<use xlink:href="#SVGID_1_"  overflow="visible"/>
			</clipPath>
			<path clip-path="url(#SVGID_2_)" d="M53.929,25.611c0,1.027-0.521,1.511-1.137,1.511c-0.742,0-1.138-0.526-1.138-1.528
				c0-1.02,0.565-1.467,1.147-1.467C53.562,24.127,53.929,24.664,53.929,25.611 M54.911,25.549c0-1.563-0.84-2.228-2.027-2.228
				c-1.354,0-2.221,1.026-2.221,2.37c0,1.564,0.807,2.255,2.039,2.255C54.017,27.946,54.911,26.917,54.911,25.549"/>
		</g>
	</g>
	<g>
		<g>
			<defs>
				<rect id="SVGID_3_" x="8.782" y="10.592" width="97.436" height="46.816"/>
			</defs>
			<clipPath id="SVGID_4_">
				<use xlink:href="#SVGID_3_"  overflow="visible"/>
			</clipPath>
			<path clip-path="url(#SVGID_4_)" d="M58.661,21.346c-0.232-0.054-0.477-0.08-0.727-0.08c-1.154,0-1.736,0.59-1.736,1.808v0.34
				h-0.85v0.743h0.85v3.702h0.949v-3.702H58.3v-0.743h-1.152v-0.356c0-0.696,0.258-1.012,0.832-1.012c0.195,0,0.41,0.026,0.607,0.09
				L58.661,21.346z"/>
		</g>
	</g>
	<g>
		<g>
			<defs>
				<rect id="SVGID_5_" x="8.782" y="10.592" width="97.436" height="46.816"/>
			</defs>
			<clipPath id="SVGID_6_">
				<use xlink:href="#SVGID_5_"  overflow="visible"/>
			</clipPath>
			<path clip-path="url(#SVGID_6_)" d="M65.728,21.997c-0.525-0.17-1.1-0.258-1.682-0.258c-2.066,0-3.318,1.356-3.318,3.228
				c0,1.86,1.154,2.979,3.023,2.979c0.688,0,1.422-0.136,2.02-0.367v-2.835h-0.975v2.189c-0.277,0.091-0.582,0.144-0.93,0.144
				c-1.299,0-2.096-0.813-2.096-2.208c0-1.493,0.977-2.279,2.191-2.279c0.555,0,1.109,0.114,1.609,0.313L65.728,21.997z"/>
		</g>
	</g>
	<g>
		<g>
			<defs>
				<rect id="SVGID_7_" x="8.782" y="10.592" width="97.436" height="46.816"/>
			</defs>
			<clipPath id="SVGID_8_">
				<use xlink:href="#SVGID_7_"  overflow="visible"/>
			</clipPath>
			<path clip-path="url(#SVGID_8_)" d="M70.028,25.611c0,1.027-0.52,1.511-1.137,1.511c-0.742,0-1.135-0.526-1.135-1.528
				c0-1.02,0.563-1.467,1.145-1.467C69.663,24.127,70.028,24.664,70.028,25.611 M71.013,25.549c0-1.563-0.842-2.228-2.031-2.228
				c-1.35,0-2.219,1.026-2.219,2.37c0,1.564,0.807,2.255,2.041,2.255C70.12,27.946,71.013,26.917,71.013,25.549"/>
		</g>
	</g>
	<g>
		<g>
			<defs>
				<rect id="SVGID_9_" x="8.782" y="10.592" width="97.436" height="46.816"/>
			</defs>
			<clipPath id="SVGID_10_">
				<use xlink:href="#SVGID_9_"  overflow="visible"/>
			</clipPath>
			<path clip-path="url(#SVGID_10_)" d="M75.626,23.411h-1.027l-0.852,2.388c-0.1,0.287-0.188,0.6-0.26,0.877h-0.01
				c-0.08-0.295-0.178-0.606-0.285-0.912l-0.832-2.353h-1.057l1.664,4.444h0.975L75.626,23.411z"/>
		</g>
	</g>
	<g>
		<g>
			<defs>
				<rect id="SVGID_11_" x="8.782" y="10.592" width="97.436" height="46.816"/>
			</defs>
			<clipPath id="SVGID_12_">
				<use xlink:href="#SVGID_11_"  overflow="visible"/>
			</clipPath>
			<path clip-path="url(#SVGID_12_)" d="M78.755,25.021h-1.887c0.078-0.6,0.457-0.991,0.99-0.991
				C78.425,24.029,78.772,24.414,78.755,25.021 M79.712,25.244c0-1.057-0.545-1.923-1.814-1.923c-1.297,0-2.029,1.003-2.029,2.345
				c0,1.563,0.76,2.28,2.146,2.28c0.545,0,1.092-0.101,1.539-0.287l-0.09-0.76c-0.367,0.178-0.84,0.284-1.297,0.284
				c-0.887,0-1.344-0.465-1.314-1.492h2.834C79.706,25.521,79.712,25.371,79.712,25.244"/>
		</g>
	</g>
	<g>
		<g>
			<defs>
				<rect id="SVGID_13_" x="8.782" y="10.592" width="97.436" height="46.816"/>
			</defs>
			<clipPath id="SVGID_14_">
				<use xlink:href="#SVGID_13_"  overflow="visible"/>
			</clipPath>
			<path clip-path="url(#SVGID_14_)" d="M83.108,23.321c-0.83-0.08-1.275,0.476-1.475,1.071h-0.02
				c0.063-0.34,0.092-0.731,0.092-0.981h-0.914v4.444h0.957v-1.809c0-1.33,0.43-1.949,1.314-1.787L83.108,23.321z"/>
		</g>
	</g>
	<g>
		<g>
			<defs>
				<rect id="SVGID_15_" x="8.782" y="10.592" width="97.436" height="46.816"/>
			</defs>
			<clipPath id="SVGID_16_">
				<use xlink:href="#SVGID_15_"  overflow="visible"/>
			</clipPath>
			<path clip-path="url(#SVGID_16_)" d="M87.696,27.855v-3.11c0-0.787-0.313-1.423-1.322-1.423c-0.75,0-1.287,0.395-1.547,0.966
				l-0.012-0.008c0.045-0.25,0.063-0.638,0.063-0.868h-0.912v4.443h0.957v-2.145c0-0.888,0.492-1.595,1.164-1.595
				c0.51,0,0.662,0.321,0.662,0.877v2.86L87.696,27.855L87.696,27.855z"/>
		</g>
	</g>
	<g>
		<g>
			<defs>
				<rect id="SVGID_17_" x="8.782" y="10.592" width="97.436" height="46.816"/>
			</defs>
			<clipPath id="SVGID_18_">
				<use xlink:href="#SVGID_17_"  overflow="visible"/>
			</clipPath>
			<path clip-path="url(#SVGID_18_)" d="M91.399,25.934c0,0.635-0.438,1.262-1.092,1.262c-0.375,0-0.605-0.217-0.605-0.546
				c0-0.386,0.303-0.806,1.697-0.806V25.934z M92.384,27.855c-0.021-0.375-0.027-0.83-0.027-1.217v-1.813
				c0-0.912-0.377-1.503-1.734-1.503c-0.572,0-1.127,0.125-1.564,0.295l0.09,0.814c0.375-0.231,0.912-0.356,1.324-0.356
				c0.697,0,0.93,0.285,0.93,0.84v0.287c-1.602,0-2.621,0.59-2.621,1.606c0,0.707,0.482,1.139,1.244,1.139
				c0.705,0,1.262-0.396,1.477-0.922l0.01,0.01c-0.037,0.24-0.045,0.535-0.045,0.821L92.384,27.855L92.384,27.855z"/>
		</g>
	</g>
	<g>
		<g>
			<defs>
				<rect id="SVGID_19_" x="8.782" y="10.592" width="97.436" height="46.816"/>
			</defs>
			<clipPath id="SVGID_20_">
				<use xlink:href="#SVGID_19_"  overflow="visible"/>
			</clipPath>
			<path clip-path="url(#SVGID_20_)" d="M97.499,27.855v-3.11c0-0.787-0.314-1.423-1.322-1.423c-0.752,0-1.289,0.395-1.549,0.966
				L94.62,24.28c0.045-0.25,0.063-0.638,0.063-0.868h-0.912v4.443h0.957v-2.145c0-0.888,0.492-1.595,1.162-1.595
				c0.51,0,0.662,0.321,0.662,0.877v2.86L97.499,27.855L97.499,27.855z"/>
		</g>
	</g>
	<g>
		<g>
			<defs>
				<rect id="SVGID_21_" x="8.782" y="10.592" width="97.436" height="46.816"/>
			</defs>
			<clipPath id="SVGID_22_">
				<use xlink:href="#SVGID_21_"  overflow="visible"/>
			</clipPath>
			<path clip-path="url(#SVGID_22_)" d="M101.765,27.704l-0.082-0.813c-0.258,0.136-0.625,0.215-0.965,0.215
				c-0.887,0-1.182-0.616-1.182-1.432c0-0.938,0.41-1.537,1.227-1.537c0.322,0,0.625,0.07,0.895,0.17l0.1-0.832
				c-0.295-0.09-0.635-0.135-0.967-0.135c-1.529,0-2.256,1.029-2.256,2.441c0,1.583,0.832,2.146,1.979,2.146
				C101.003,27.928,101.468,27.821,101.765,27.704"/>
		</g>
	</g>
	<g>
		<g>
			<defs>
				<rect id="SVGID_23_" x="8.782" y="10.592" width="97.436" height="46.816"/>
			</defs>
			<clipPath id="SVGID_24_">
				<use xlink:href="#SVGID_23_"  overflow="visible"/>
			</clipPath>
			<path clip-path="url(#SVGID_24_)" d="M105.259,25.021h-1.887c0.08-0.6,0.455-0.991,0.99-0.991
				C104.927,24.029,105.276,24.414,105.259,25.021 M106.216,25.244c0-1.057-0.547-1.923-1.816-1.923
				c-1.297,0-2.027,1.003-2.027,2.345c0,1.563,0.76,2.28,2.146,2.28c0.545,0,1.09-0.101,1.537-0.287l-0.088-0.76
				c-0.367,0.178-0.842,0.284-1.297,0.284c-0.889,0-1.342-0.465-1.316-1.492h2.836C106.208,25.521,106.216,25.371,106.216,25.244"/>
		</g>
	</g>
</g>
<polygon points="55.833,17.122 55.833,11.084 54.866,11.084 54.866,13.58 52.015,13.58 52.015,11.084 51.04,11.084 51.04,17.122 
	52.015,17.122 52.015,14.411 54.866,14.411 54.866,17.122 "/>
<g>
	<g>
		<g>
			<defs>
				<rect id="SVGID_25_" x="8.782" y="10.592" width="97.436" height="46.816"/>
			</defs>
			<clipPath id="SVGID_26_">
				<use xlink:href="#SVGID_25_"  overflow="visible"/>
			</clipPath>
			<path clip-path="url(#SVGID_26_)" d="M59.767,14.286H57.88c0.08-0.601,0.455-0.993,0.992-0.993
				C59.437,13.293,59.786,13.678,59.767,14.286 M60.724,14.51c0-1.056-0.545-1.922-1.816-1.922c-1.296,0-2.029,1-2.029,2.344
				c0,1.563,0.76,2.278,2.146,2.278c0.545,0,1.094-0.097,1.539-0.284l-0.09-0.762c-0.367,0.18-0.842,0.286-1.297,0.286
				c-0.887,0-1.342-0.464-1.314-1.494h2.832C60.714,14.786,60.724,14.635,60.724,14.51"/>
		</g>
	</g>
	<g>
		<g>
			<defs>
				<rect id="SVGID_27_" x="8.782" y="10.592" width="97.436" height="46.816"/>
			</defs>
			<clipPath id="SVGID_28_">
				<use xlink:href="#SVGID_27_"  overflow="visible"/>
			</clipPath>
			<path clip-path="url(#SVGID_28_)" d="M64.122,12.588c-0.832-0.08-1.279,0.475-1.477,1.071h-0.018
				c0.063-0.34,0.088-0.731,0.088-0.981h-0.912v4.443h0.957v-1.809c0-1.33,0.43-1.948,1.314-1.786L64.122,12.588z"/>
		</g>
	</g>
	<g>
		<g>
			<defs>
				<rect id="SVGID_29_" x="8.782" y="10.592" width="97.436" height="46.816"/>
			</defs>
			<clipPath id="SVGID_30_">
				<use xlink:href="#SVGID_29_"  overflow="visible"/>
			</clipPath>
			<path clip-path="url(#SVGID_30_)" d="M67.438,17.102v-0.784c-0.17,0.045-0.385,0.069-0.582,0.069c-0.445,0-0.582-0.18-0.582-0.84
				v-2.13h1.164v-0.741h-1.172v-1.674l-0.949,0.26v1.414h-0.85v0.741h0.85v2.425c0,0.992,0.287,1.359,1.234,1.359
				C66.847,17.202,67.179,17.158,67.438,17.102"/>
		</g>
	</g>
	<g>
		<g>
			<defs>
				<rect id="SVGID_31_" x="8.782" y="10.592" width="97.436" height="46.816"/>
			</defs>
			<clipPath id="SVGID_32_">
				<use xlink:href="#SVGID_31_"  overflow="visible"/>
			</clipPath>
			<path clip-path="url(#SVGID_32_)" d="M69.421,12.678h-0.957v4.443h0.957V12.678z M69.556,11.415c0-0.34-0.277-0.601-0.609-0.601
				c-0.34,0-0.615,0.27-0.615,0.601c0,0.33,0.275,0.601,0.615,0.601C69.278,12.014,69.556,11.745,69.556,11.415"/>
		</g>
	</g>
	<g>
		<g>
			<defs>
				<rect id="SVGID_33_" x="8.782" y="10.592" width="97.436" height="46.816"/>
			</defs>
			<clipPath id="SVGID_34_">
				<use xlink:href="#SVGID_33_"  overflow="visible"/>
			</clipPath>
			<path clip-path="url(#SVGID_34_)" d="M73.345,14.286h-1.887c0.08-0.601,0.455-0.993,0.992-0.993
				C73.015,13.293,73.362,13.678,73.345,14.286 M74.302,14.51c0-1.056-0.545-1.922-1.814-1.922c-1.297,0-2.029,1-2.029,2.344
				c0,1.563,0.76,2.278,2.146,2.278c0.545,0,1.092-0.097,1.539-0.284l-0.09-0.762c-0.367,0.18-0.842,0.286-1.297,0.286
				c-0.885,0-1.342-0.464-1.314-1.494h2.834C74.294,14.786,74.302,14.635,74.302,14.51"/>
		</g>
	</g>
	<g>
		<g>
			<defs>
				<rect id="SVGID_35_" x="8.782" y="10.592" width="97.436" height="46.816"/>
			</defs>
			<clipPath id="SVGID_36_">
				<use xlink:href="#SVGID_35_"  overflow="visible"/>
			</clipPath>
			<path clip-path="url(#SVGID_36_)" d="M80.712,15.297c0-1.888-2.641-1.438-2.641-2.646c0-0.501,0.387-0.851,1.137-0.851
				c0.357,0,0.742,0.063,1.092,0.17l0.055-0.867c-0.367-0.063-0.732-0.107-1.092-0.107c-1.404,0-2.219,0.727-2.219,1.764
				c0,1.948,2.639,1.412,2.639,2.685c0,0.651-0.537,0.93-1.199,0.93c-0.438,0-0.912-0.098-1.252-0.224l-0.053,0.921
				c0.348,0.09,0.777,0.144,1.217,0.144C79.835,17.211,80.712,16.405,80.712,15.297"/>
		</g>
	</g>
	<g>
		<g>
			<defs>
				<rect id="SVGID_37_" x="8.782" y="10.592" width="97.436" height="46.816"/>
			</defs>
			<clipPath id="SVGID_38_">
				<use xlink:href="#SVGID_37_"  overflow="visible"/>
			</clipPath>
			<path clip-path="url(#SVGID_38_)" d="M84.702,16.971l-0.08-0.813c-0.262,0.134-0.627,0.215-0.969,0.215
				c-0.885,0-1.18-0.616-1.18-1.431c0-0.939,0.41-1.538,1.225-1.538c0.322,0,0.629,0.069,0.896,0.17l0.098-0.832
				c-0.295-0.089-0.635-0.134-0.965-0.134c-1.529,0-2.254,1.027-2.254,2.439c0,1.582,0.832,2.146,1.979,2.146
				C83.94,17.193,84.405,17.086,84.702,16.971"/>
		</g>
	</g>
	<g>
		<g>
			<defs>
				<rect id="SVGID_39_" x="8.782" y="10.592" width="97.436" height="46.816"/>
			</defs>
			<clipPath id="SVGID_40_">
				<use xlink:href="#SVGID_39_"  overflow="visible"/>
			</clipPath>
			<path clip-path="url(#SVGID_40_)" d="M89.413,17.122V14.01c0-0.787-0.314-1.422-1.324-1.422c-0.727,0-1.252,0.365-1.512,0.92
				l-0.02-0.008c0.063-0.242,0.08-0.617,0.08-0.896v-2.012h-0.957v6.529h0.957v-2.139c0-0.895,0.492-1.602,1.164-1.602
				c0.51,0,0.662,0.321,0.662,0.877v2.861h0.947v0.003H89.413z"/>
		</g>
	</g>
	<g>
		<g>
			<defs>
				<rect id="SVGID_41_" x="8.782" y="10.592" width="97.436" height="46.816"/>
			</defs>
			<clipPath id="SVGID_42_">
				<use xlink:href="#SVGID_41_"  overflow="visible"/>
			</clipPath>
			<path clip-path="url(#SVGID_42_)" d="M93.696,14.877c0,1.028-0.52,1.512-1.137,1.512c-0.742,0-1.137-0.525-1.137-1.527
				c0-1.021,0.563-1.469,1.145-1.469C93.331,13.391,93.696,13.928,93.696,14.877 M94.679,14.814c0-1.565-0.84-2.229-2.029-2.229
				c-1.352,0-2.219,1.028-2.219,2.37c0,1.563,0.805,2.253,2.039,2.253C93.786,17.211,94.679,16.182,94.679,14.814"/>
		</g>
	</g>
	<g>
		<g>
			<defs>
				<rect id="SVGID_43_" x="8.782" y="10.592" width="97.436" height="46.816"/>
			</defs>
			<clipPath id="SVGID_44_">
				<use xlink:href="#SVGID_43_"  overflow="visible"/>
			</clipPath>
			<path clip-path="url(#SVGID_44_)" d="M98.604,14.877c0,1.028-0.518,1.512-1.135,1.512c-0.744,0-1.137-0.525-1.137-1.527
				c0-1.021,0.563-1.469,1.145-1.469C98.237,13.391,98.604,13.928,98.604,14.877 M99.589,14.814c0-1.565-0.842-2.229-2.031-2.229
				c-1.35,0-2.217,1.028-2.217,2.37c0,1.563,0.805,2.253,2.039,2.253C98.694,17.211,99.589,16.182,99.589,14.814"/>
		</g>
	</g>
</g>
<rect x="100.626" y="10.592" width="0.957" height="6.529"/>
<polygon fill="#D2D2D2" points="40.324,32.174 40.324,36.379 50.841,36.379 50.841,57.408 55.044,57.408 55.044,36.379 
	61.351,36.379 61.351,57.408 65.558,57.408 65.558,32.174 "/>
<rect x="40.326" y="32.174" fill="#C10A27" width="4.205" height="25.234"/>
<polygon fill="#D2D2D2" points="8.782,32.174 8.782,57.408 12.988,57.408 12.988,36.379 19.296,36.379 19.296,57.408 23.5,57.408 
	23.5,36.379 34.015,36.379 34.015,32.174 "/>
<rect x="29.81" y="32.174" fill="#C10A27" width="4.205" height="25.234"/>
</svg>
